G04 #@! TF.GenerationSoftware,KiCad,Pcbnew,(5.1.5)-3*
G04 #@! TF.CreationDate,2021-02-03T08:35:31+01:00*
G04 #@! TF.ProjectId,OpenSPAD,4f70656e-5350-4414-942e-6b696361645f,rev?*
G04 #@! TF.SameCoordinates,Original*
G04 #@! TF.FileFunction,Copper,L2,Bot*
G04 #@! TF.FilePolarity,Positive*
%FSLAX46Y46*%
G04 Gerber Fmt 4.6, Leading zero omitted, Abs format (unit mm)*
G04 Created by KiCad (PCBNEW (5.1.5)-3) date 2021-02-03 08:35:31*
%MOMM*%
%LPD*%
G04 APERTURE LIST*
%ADD10C,1.800000*%
%ADD11R,1.800000X1.800000*%
%ADD12O,2.000000X1.905000*%
%ADD13R,2.000000X1.905000*%
%ADD14C,1.600000*%
%ADD15O,1.700000X1.700000*%
%ADD16R,1.700000X1.700000*%
%ADD17R,1.500000X1.050000*%
%ADD18O,1.500000X1.050000*%
%ADD19C,2.600000*%
%ADD20R,2.600000X2.600000*%
%ADD21O,2.500000X1.600000*%
%ADD22O,7.000000X3.500000*%
%ADD23O,1.600000X1.600000*%
%ADD24R,1.600000X1.600000*%
%ADD25O,1.200000X1.200000*%
%ADD26O,1.200000X1.600000*%
%ADD27C,0.800000*%
%ADD28C,1.200000*%
%ADD29C,0.812800*%
%ADD30C,0.406400*%
%ADD31C,0.609600*%
%ADD32C,1.625600*%
%ADD33C,0.254000*%
G04 APERTURE END LIST*
D10*
X107369000Y-83342000D03*
D11*
X107369000Y-80802000D03*
D10*
X107369000Y-78008000D03*
D11*
X107369000Y-75468000D03*
D10*
X107369000Y-142270000D03*
D11*
X107369000Y-139730000D03*
D10*
X107369000Y-136936000D03*
D11*
X107369000Y-134396000D03*
D12*
X150422000Y-129008000D03*
X150422000Y-126468000D03*
D13*
X150422000Y-123928000D03*
D14*
X125530000Y-96264000D03*
X125530000Y-94264000D03*
D15*
X147247000Y-128046000D03*
D16*
X144707000Y-128046000D03*
D17*
X134366000Y-125730000D03*
D18*
X134366000Y-128270000D03*
X134366000Y-127000000D03*
D19*
X115618000Y-94392000D03*
X112618000Y-89692000D03*
D20*
X118618000Y-89692000D03*
D21*
X117402000Y-127538000D03*
X117402000Y-124998000D03*
D22*
X112322000Y-119918000D03*
X112322000Y-130078000D03*
D23*
X108458000Y-114808000D03*
X108458000Y-99568000D03*
X144018000Y-114808000D03*
X110998000Y-99568000D03*
X141478000Y-114808000D03*
X113538000Y-99568000D03*
X138938000Y-114808000D03*
X116078000Y-99568000D03*
X136398000Y-114808000D03*
X118618000Y-99568000D03*
X133858000Y-114808000D03*
X121158000Y-99568000D03*
X131318000Y-114808000D03*
X123698000Y-99568000D03*
X128778000Y-114808000D03*
X126238000Y-99568000D03*
X126238000Y-114808000D03*
X128778000Y-99568000D03*
X123698000Y-114808000D03*
X131318000Y-99568000D03*
X121158000Y-114808000D03*
X133858000Y-99568000D03*
X118618000Y-114808000D03*
X136398000Y-99568000D03*
X116078000Y-114808000D03*
X138938000Y-99568000D03*
X113538000Y-114808000D03*
X141478000Y-99568000D03*
X110998000Y-114808000D03*
D24*
X144018000Y-99568000D03*
D14*
X145796000Y-89948000D03*
X145796000Y-91948000D03*
X125530000Y-88708000D03*
X125530000Y-90708000D03*
X145796000Y-80804000D03*
X145796000Y-82804000D03*
X125476000Y-83090000D03*
X125476000Y-85090000D03*
D15*
X192078000Y-106329000D03*
X192078000Y-108869000D03*
D16*
X192078000Y-111409000D03*
D25*
X184914000Y-106413000D03*
D26*
X184914000Y-111493000D03*
D27*
X166424000Y-88930000D03*
X165154000Y-88930000D03*
X165154000Y-87660000D03*
X182930000Y-117732000D03*
X181406000Y-117732000D03*
X178866000Y-117732000D03*
X177342000Y-117732000D03*
X136906000Y-87376000D03*
X139446000Y-87376000D03*
X141986000Y-87376000D03*
X175006000Y-86106000D03*
X172974000Y-86106000D03*
X179070000Y-86106000D03*
X175768000Y-90932000D03*
X177800000Y-90932000D03*
X179832000Y-90932000D03*
X158242000Y-98298000D03*
X160274000Y-98298000D03*
X159004000Y-111506000D03*
X159004000Y-113538000D03*
X160020000Y-112522000D03*
X161036000Y-111506000D03*
X161036000Y-113538000D03*
X137414000Y-105029000D03*
X137414000Y-107061000D03*
X137414000Y-109093000D03*
X140208000Y-105029000D03*
X140208000Y-107061000D03*
X140208000Y-109093000D03*
X152146000Y-104394000D03*
X155575000Y-98298000D03*
X154813000Y-97282000D03*
X114808000Y-107442000D03*
X114808000Y-105410000D03*
X114808000Y-109474000D03*
X152400000Y-112268000D03*
X154432000Y-112268000D03*
X164592000Y-76962000D03*
X158496000Y-76962000D03*
X156464000Y-76962000D03*
X154432000Y-76962000D03*
X134620000Y-87376000D03*
X177346000Y-124744000D03*
X178870000Y-124744000D03*
X181410000Y-124744000D03*
X182934000Y-124744000D03*
X171758000Y-114076000D03*
X179886000Y-93756000D03*
X179886000Y-95280000D03*
X179886000Y-96804000D03*
X179886000Y-98328000D03*
X179886000Y-99852000D03*
X186998000Y-85628000D03*
X186998000Y-84612000D03*
X186998000Y-83596000D03*
X186998000Y-78516000D03*
X183442000Y-89692000D03*
X183442000Y-91216000D03*
X165154000Y-79024000D03*
X166678000Y-79024000D03*
X168202000Y-79024000D03*
X176838000Y-78008000D03*
X178362000Y-78008000D03*
X162560000Y-76962000D03*
X160582000Y-76962000D03*
X168202000Y-86136000D03*
X191824000Y-123728000D03*
X191824000Y-124998000D03*
X191824000Y-126268000D03*
X188268000Y-127030000D03*
X186744000Y-127030000D03*
X185220000Y-127030000D03*
X136325000Y-128681000D03*
X148517000Y-107853000D03*
X152454000Y-118140000D03*
X153978000Y-118140000D03*
X155502000Y-118140000D03*
X172012000Y-119156000D03*
X173536000Y-119156000D03*
X175060000Y-119156000D03*
X180140000Y-121188000D03*
X166462000Y-87698000D03*
X165827000Y-88333000D03*
X131118000Y-136301000D03*
X138484000Y-136555000D03*
X138484000Y-130332000D03*
X143183000Y-138206000D03*
X129721000Y-118648000D03*
X130864000Y-118648000D03*
X132007000Y-118648000D03*
X133150000Y-118648000D03*
X131372000Y-126141000D03*
X131372000Y-124998000D03*
X131880000Y-123982000D03*
X132769000Y-123093000D03*
X134293000Y-129951000D03*
X122101000Y-133634000D03*
X123371000Y-133634000D03*
X124641000Y-133634000D03*
X125911000Y-133634000D03*
X120831000Y-133634000D03*
X131118000Y-137571000D03*
X131118000Y-121569000D03*
X158188000Y-81878000D03*
X158188000Y-80986000D03*
X152146000Y-91948000D03*
X153162000Y-91948000D03*
X154178000Y-91948000D03*
X134674000Y-120142000D03*
X138738000Y-124206000D03*
X134674000Y-122328000D03*
X166570000Y-97242000D03*
X184096000Y-77938000D03*
X185420000Y-115062000D03*
X173990000Y-109220000D03*
X162506000Y-84542000D03*
X169364000Y-89876000D03*
X179070004Y-82256000D03*
X159473997Y-84542000D03*
X160474000Y-84542000D03*
X150368000Y-100838000D03*
X153416000Y-108416800D03*
X153416000Y-99187000D03*
X150368000Y-99187000D03*
X161505997Y-84542000D03*
X151384000Y-100076000D03*
X154432000Y-108416800D03*
X151384000Y-97566000D03*
X153416000Y-97566000D03*
X166370000Y-116078000D03*
X190246000Y-118110000D03*
X152146000Y-82804000D03*
X153162000Y-82804000D03*
X181356000Y-112522000D03*
X164030000Y-97242000D03*
X180540000Y-77938000D03*
D28*
X127562000Y-131856000D03*
X126038000Y-131856000D03*
X129086000Y-131856000D03*
D27*
X164465000Y-112268000D03*
X165735000Y-120384790D03*
X170180000Y-112268000D03*
X168910000Y-102108000D03*
X166370000Y-102108000D03*
X162560000Y-120384790D03*
X161036000Y-107083203D03*
X155702000Y-110744000D03*
X151130011Y-113538000D03*
X161036000Y-106083200D03*
X155702000Y-102616000D03*
X151130000Y-105410000D03*
X161036000Y-108083206D03*
X152400000Y-109219998D03*
X131318000Y-127508000D03*
X122682000Y-127508000D03*
X143564000Y-122458000D03*
X145542000Y-117282292D03*
X178235000Y-128046000D03*
X175949000Y-128046000D03*
X173790000Y-128046000D03*
X171504000Y-128046000D03*
X148771000Y-133507000D03*
X139246000Y-140873000D03*
X133648400Y-134777000D03*
X117529000Y-119029000D03*
D29*
X158188000Y-80986000D02*
X158188000Y-91240000D01*
X157480000Y-91948000D02*
X152146000Y-91948000D01*
X158188000Y-91240000D02*
X157480000Y-91948000D01*
X134674000Y-122204000D02*
X134674000Y-123220000D01*
X134674000Y-123220000D02*
X135660000Y-124206000D01*
X135660000Y-124206000D02*
X138738000Y-124206000D01*
X134674000Y-120142000D02*
X134674000Y-122204000D01*
D30*
X166062000Y-97242000D02*
X166570000Y-97242000D01*
X182826000Y-78192000D02*
X182826000Y-83272000D01*
X184096000Y-77938000D02*
X183080000Y-77938000D01*
X182826000Y-83272000D02*
X181810000Y-84288000D01*
X165808000Y-96988000D02*
X166062000Y-97242000D01*
X181810000Y-84288000D02*
X172158000Y-84288000D01*
X183080000Y-77938000D02*
X182826000Y-78192000D01*
X172158000Y-84288000D02*
X171396000Y-85050000D01*
X171396000Y-85050000D02*
X171396000Y-90892000D01*
X166316000Y-91654000D02*
X165808000Y-92162000D01*
X171396000Y-90892000D02*
X170634000Y-91654000D01*
X170634000Y-91654000D02*
X166316000Y-91654000D01*
X165808000Y-92162000D02*
X165808000Y-96988000D01*
D31*
X176276000Y-115062000D02*
X175006000Y-115062000D01*
X185420000Y-115062000D02*
X176276000Y-115062000D01*
X175006000Y-115062000D02*
X173990000Y-114046000D01*
X173990000Y-114046000D02*
X173990000Y-109220000D01*
D30*
X152908000Y-96012000D02*
X152400000Y-96520000D01*
X116586000Y-103886000D02*
X116078000Y-104394000D01*
X152400000Y-96520000D02*
X152400000Y-101346000D01*
X162506000Y-84542000D02*
X162506000Y-92764000D01*
X159258000Y-96012000D02*
X152908000Y-96012000D01*
X162506000Y-92764000D02*
X159258000Y-96012000D01*
X152400000Y-101346000D02*
X149860000Y-103886000D01*
X149860000Y-103886000D02*
X116586000Y-103886000D01*
X116078000Y-104394000D02*
X116078000Y-114808000D01*
X171650000Y-82256000D02*
X178504319Y-82256000D01*
X178504319Y-82256000D02*
X179070004Y-82256000D01*
X169364000Y-84542000D02*
X171650000Y-82256000D01*
X169364000Y-89876000D02*
X169364000Y-84542000D01*
X149352000Y-94234000D02*
X149352000Y-100838000D01*
X158496000Y-92964000D02*
X150622000Y-92964000D01*
X148590000Y-101600000D02*
X134366000Y-101600000D01*
X150622000Y-92964000D02*
X149352000Y-94234000D01*
X159473997Y-84542000D02*
X159473997Y-91986003D01*
X159473997Y-91986003D02*
X158496000Y-92964000D01*
X149352000Y-100838000D02*
X148590000Y-101600000D01*
X134366000Y-101600000D02*
X133858000Y-101092000D01*
X133858000Y-101092000D02*
X133858000Y-99568000D01*
X110998000Y-101854000D02*
X110998000Y-99568000D01*
X149352000Y-102362000D02*
X111506000Y-102362000D01*
X111506000Y-102362000D02*
X110998000Y-101854000D01*
X150368000Y-100838000D02*
X150368000Y-101346000D01*
X150368000Y-101346000D02*
X149352000Y-102362000D01*
X153416000Y-99314000D02*
X153416000Y-99187000D01*
X153416000Y-108416800D02*
X153416000Y-99314000D01*
X150368000Y-100838000D02*
X150368000Y-99187000D01*
X150368000Y-94996000D02*
X150368000Y-98621315D01*
X151384000Y-93980000D02*
X150368000Y-94996000D01*
X158896000Y-93980000D02*
X151384000Y-93980000D01*
X160474000Y-84542000D02*
X160474000Y-92402000D01*
X160474000Y-92402000D02*
X158896000Y-93980000D01*
X150368000Y-98621315D02*
X150368000Y-99187000D01*
X108966000Y-103124000D02*
X108458000Y-103632000D01*
X149606000Y-103124000D02*
X108966000Y-103124000D01*
X108458000Y-103632000D02*
X108458000Y-114808000D01*
X151384000Y-100076000D02*
X151384000Y-101346000D01*
X151384000Y-101346000D02*
X149606000Y-103124000D01*
X161505997Y-92583000D02*
X161505997Y-84542000D01*
X159092997Y-94996000D02*
X161505997Y-92583000D01*
X151384000Y-100076000D02*
X151384000Y-97566000D01*
X151384000Y-97566000D02*
X151384000Y-95504000D01*
X151384000Y-95504000D02*
X151892000Y-94996000D01*
X151892000Y-94996000D02*
X159092997Y-94996000D01*
X154432000Y-98582000D02*
X153416000Y-97566000D01*
X154432000Y-108416800D02*
X154432000Y-98582000D01*
X166370000Y-116078000D02*
X189484000Y-116078000D01*
X189484000Y-116078000D02*
X190246000Y-116840000D01*
X190246000Y-116840000D02*
X190246000Y-118110000D01*
D29*
X173355000Y-89027000D02*
X180467000Y-89027000D01*
X172466000Y-89916000D02*
X173355000Y-89027000D01*
X172466000Y-91440000D02*
X172466000Y-89916000D01*
X171196000Y-92710000D02*
X172466000Y-91440000D01*
X169672000Y-92710000D02*
X171196000Y-92710000D01*
X168656000Y-93726000D02*
X169672000Y-92710000D01*
X168656000Y-97790000D02*
X168656000Y-93726000D01*
X156464000Y-80264000D02*
X157226000Y-79502000D01*
X156464000Y-82042000D02*
X156464000Y-80264000D01*
X163830000Y-80264000D02*
X163830000Y-94996000D01*
X152146000Y-82804000D02*
X155702000Y-82804000D01*
X181356000Y-89916000D02*
X181356000Y-112522000D01*
X162814000Y-96012000D02*
X162814000Y-97790000D01*
X155702000Y-82804000D02*
X156464000Y-82042000D01*
X163068000Y-79502000D02*
X163830000Y-80264000D01*
X162814000Y-97790000D02*
X163830000Y-98806000D01*
X167640000Y-98806000D02*
X168656000Y-97790000D01*
X163830000Y-94996000D02*
X162814000Y-96012000D01*
X180467000Y-89027000D02*
X181356000Y-89916000D01*
X157226000Y-79502000D02*
X163068000Y-79502000D01*
X163830000Y-98806000D02*
X167640000Y-98806000D01*
D30*
X164792000Y-96988000D02*
X164792000Y-95210000D01*
X164030000Y-97242000D02*
X164538000Y-97242000D01*
X164538000Y-97242000D02*
X164792000Y-96988000D01*
X164792000Y-95210000D02*
X164792000Y-94448000D01*
X164792000Y-94448000D02*
X164792000Y-94194000D01*
X169872000Y-90892000D02*
X165808000Y-90892000D01*
X170380000Y-84796000D02*
X170380000Y-90384000D01*
X171904000Y-83272000D02*
X170380000Y-84796000D01*
X164792000Y-91908000D02*
X164792000Y-94448000D01*
X170380000Y-90384000D02*
X169872000Y-90892000D01*
X181556000Y-77938000D02*
X181810000Y-78192000D01*
X180540000Y-77938000D02*
X181556000Y-77938000D01*
X181810000Y-78192000D02*
X181810000Y-82510000D01*
X165808000Y-90892000D02*
X164792000Y-91908000D01*
X181810000Y-82510000D02*
X181048000Y-83272000D01*
X181048000Y-83272000D02*
X171904000Y-83272000D01*
D32*
X123498000Y-94264000D02*
X125530000Y-94264000D01*
X122482000Y-95280000D02*
X123498000Y-94264000D01*
X120450000Y-119156000D02*
X118164000Y-116870000D01*
X120450000Y-130840000D02*
X120450000Y-119156000D01*
X106988000Y-116870000D02*
X105718000Y-115600000D01*
X118164000Y-116870000D02*
X106988000Y-116870000D01*
X121466000Y-131856000D02*
X120450000Y-130840000D01*
X121466000Y-97058000D02*
X122482000Y-96042000D01*
X105718000Y-115600000D02*
X105718000Y-98582000D01*
X105718000Y-98582000D02*
X107242000Y-97058000D01*
X107242000Y-97058000D02*
X121466000Y-97058000D01*
X129086000Y-131856000D02*
X121466000Y-131856000D01*
X122482000Y-96042000D02*
X122482000Y-95280000D01*
D30*
X165335001Y-119984791D02*
X165735000Y-120384790D01*
X164465000Y-112268000D02*
X164465000Y-119114790D01*
X164465000Y-119114790D02*
X165335001Y-119984791D01*
X170180000Y-112268000D02*
X169418000Y-112268000D01*
X169418000Y-112268000D02*
X168910000Y-111760000D01*
X168910000Y-111760000D02*
X168910000Y-102108000D01*
X162560000Y-103208000D02*
X162560000Y-120384790D01*
X166370000Y-102108000D02*
X163660000Y-102108000D01*
X163660000Y-102108000D02*
X162560000Y-103208000D01*
X155956000Y-109982000D02*
X155702000Y-110236000D01*
X161601685Y-107083203D02*
X161839201Y-107320719D01*
X155702000Y-110236000D02*
X155702000Y-110744000D01*
X161036000Y-107083203D02*
X161601685Y-107083203D01*
X161839201Y-107320719D02*
X161839201Y-108924799D01*
X161839201Y-108924799D02*
X160782000Y-109982000D01*
X160782000Y-109982000D02*
X155956000Y-109982000D01*
X151130011Y-112972315D02*
X151130011Y-113538000D01*
X121158000Y-111590000D02*
X121864389Y-110883611D01*
X121158000Y-114808000D02*
X121158000Y-111590000D01*
X150277611Y-110883611D02*
X151130011Y-111736011D01*
X121864389Y-110883611D02*
X150277611Y-110883611D01*
X151130011Y-111736011D02*
X151130011Y-112972315D01*
X161036000Y-106083200D02*
X156121200Y-106083200D01*
X156121200Y-106083200D02*
X155702000Y-105664000D01*
X155702000Y-105664000D02*
X155702000Y-102616000D01*
X118618000Y-111082000D02*
X118618000Y-114808000D01*
X119422799Y-110277201D02*
X118618000Y-111082000D01*
X150410799Y-110277201D02*
X119422799Y-110277201D01*
X151130000Y-105410000D02*
X151130000Y-109558000D01*
X151130000Y-109558000D02*
X150410799Y-110277201D01*
X152400002Y-109220000D02*
X152400000Y-109219998D01*
X160528000Y-109220000D02*
X152400002Y-109220000D01*
X161036000Y-108083206D02*
X161036000Y-108712000D01*
X161036000Y-108712000D02*
X160528000Y-109220000D01*
D29*
X122682000Y-127508000D02*
X131318000Y-127508000D01*
D30*
X135182000Y-116362000D02*
X134039000Y-116362000D01*
X135483610Y-116663610D02*
X135182000Y-116362000D01*
X134039000Y-116362000D02*
X133858000Y-116181000D01*
X136325000Y-125379000D02*
X136688390Y-125015610D01*
X134366000Y-127000000D02*
X135974000Y-127000000D01*
X136325000Y-126649000D02*
X136325000Y-125379000D01*
X139547610Y-123870649D02*
X139073351Y-123396390D01*
X139073351Y-123396390D02*
X135995350Y-123396390D01*
X136688390Y-125015610D02*
X139117128Y-125015610D01*
X135974000Y-127000000D02*
X136325000Y-126649000D01*
X139117128Y-125015610D02*
X139547610Y-124585128D01*
X139547610Y-124585128D02*
X139547610Y-123870649D01*
X133858000Y-116181000D02*
X133858000Y-114808000D01*
X135483610Y-122884650D02*
X135483610Y-116663610D01*
X135995350Y-123396390D02*
X135483610Y-122884650D01*
X145542000Y-120118000D02*
X145542000Y-121750000D01*
X145542000Y-120480000D02*
X145542000Y-120118000D01*
X145542000Y-121750000D02*
X144834000Y-122458000D01*
X144834000Y-122458000D02*
X143564000Y-122458000D01*
X145542000Y-120118000D02*
X145542000Y-117282292D01*
D32*
X148825000Y-126468000D02*
X147247000Y-128046000D01*
X150422000Y-126468000D02*
X148825000Y-126468000D01*
D30*
X177911180Y-125817180D02*
X178235000Y-126141000D01*
X171602410Y-125817180D02*
X177911180Y-125817180D01*
X150326801Y-112664822D02*
X150326801Y-119282019D01*
X124305977Y-111490023D02*
X149152002Y-111490023D01*
X171291230Y-125506000D02*
X171602410Y-125817180D01*
X171291230Y-124086046D02*
X171291230Y-125506000D01*
X149152002Y-111490023D02*
X150326801Y-112664822D01*
X151175551Y-120130769D02*
X158508774Y-120130772D01*
X123698000Y-114808000D02*
X123698000Y-112098000D01*
X150326801Y-119282019D02*
X151175551Y-120130769D01*
X123698000Y-112098000D02*
X124305977Y-111490023D01*
X169663185Y-122458000D02*
X170018412Y-122813228D01*
X178235000Y-126141000D02*
X178235000Y-128046000D01*
X160836001Y-122457999D02*
X169663185Y-122458000D01*
X158508774Y-120130772D02*
X160836001Y-122457999D01*
X170018412Y-122813228D02*
X171291230Y-124086046D01*
X175949000Y-126903000D02*
X175949000Y-128046000D01*
X171348410Y-126423590D02*
X175469590Y-126423590D01*
X149720390Y-112916005D02*
X149720390Y-119533202D01*
X160584818Y-123064410D02*
X169412002Y-123064410D01*
X175469590Y-126423590D02*
X175949000Y-126903000D01*
X126238000Y-114808000D02*
X126238000Y-112606000D01*
X126238000Y-112606000D02*
X126747567Y-112096433D01*
X170684820Y-125760000D02*
X171348410Y-126423590D01*
X150924368Y-120737180D02*
X158257590Y-120737182D01*
X148900818Y-112096433D02*
X149720390Y-112916005D01*
X149720390Y-119533202D02*
X150924368Y-120737180D01*
X158257590Y-120737182D02*
X160584818Y-123064410D01*
X126747567Y-112096433D02*
X148900818Y-112096433D01*
X169412002Y-123064410D02*
X170684820Y-124337228D01*
X170684820Y-124337228D02*
X170684820Y-125760000D01*
X128778000Y-113368000D02*
X128778000Y-114808000D01*
X129443157Y-112702843D02*
X128778000Y-113368000D01*
X148649634Y-112702843D02*
X129443157Y-112702843D01*
X171094410Y-127030000D02*
X170078410Y-126014000D01*
X173536000Y-127030000D02*
X171094410Y-127030000D01*
X149113979Y-119784385D02*
X149113979Y-113167188D01*
X173790000Y-128046000D02*
X173790000Y-127284000D01*
X170078410Y-126014000D02*
X170078410Y-124588410D01*
X149113979Y-113167188D02*
X148649634Y-112702843D01*
X173790000Y-127284000D02*
X173536000Y-127030000D01*
X170078410Y-124588410D02*
X169160821Y-123670821D01*
X169160821Y-123670821D02*
X160333635Y-123670821D01*
X158006406Y-121343592D02*
X150673185Y-121343591D01*
X160333635Y-123670821D02*
X158006406Y-121343592D01*
X150673185Y-121343591D02*
X149113979Y-119784385D01*
X171250000Y-128046000D02*
X171504000Y-128046000D01*
X169472000Y-126268000D02*
X171250000Y-128046000D01*
X169472000Y-124998000D02*
X169472000Y-126268000D01*
X169472000Y-124998000D02*
X169472000Y-124839592D01*
X168909639Y-124277231D02*
X168456000Y-124277231D01*
X169472000Y-124839592D02*
X168909639Y-124277231D01*
X168751232Y-124277232D02*
X169472000Y-124998000D01*
X157755222Y-121950002D02*
X160082452Y-124277232D01*
X150422002Y-121950002D02*
X157755222Y-121950002D01*
X148507568Y-120035568D02*
X150422002Y-121950002D01*
X160082452Y-124277232D02*
X168751232Y-124277232D01*
X131318000Y-114808000D02*
X131318000Y-113876000D01*
X148507568Y-113431568D02*
X148507568Y-120035568D01*
X131318000Y-113876000D02*
X131884746Y-113309254D01*
X131884746Y-113309254D02*
X148385254Y-113309254D01*
X148385254Y-113309254D02*
X148507568Y-113431568D01*
D32*
X148771000Y-133507000D02*
X145850000Y-133507000D01*
X144707000Y-132364000D02*
X144707000Y-128046000D01*
X145850000Y-133507000D02*
X144707000Y-132364000D01*
D31*
X148771000Y-133507000D02*
X148771000Y-139984000D01*
X148771000Y-139984000D02*
X147882000Y-140873000D01*
X147882000Y-140873000D02*
X139246000Y-140873000D01*
D30*
X118603304Y-119029000D02*
X117529000Y-119029000D01*
X119233990Y-119659686D02*
X118603304Y-119029000D01*
X133023000Y-134777000D02*
X132896000Y-134904000D01*
X120069000Y-134904000D02*
X119233990Y-134068990D01*
X133648400Y-134777000D02*
X133023000Y-134777000D01*
X132896000Y-134904000D02*
X120069000Y-134904000D01*
X119233990Y-134068990D02*
X119233990Y-119659686D01*
D33*
G36*
X195309001Y-152543000D02*
G01*
X105079000Y-152543000D01*
X105079000Y-133496000D01*
X105830928Y-133496000D01*
X105830928Y-135296000D01*
X105843188Y-135420482D01*
X105879498Y-135540180D01*
X105938463Y-135650494D01*
X106017815Y-135747185D01*
X106114506Y-135826537D01*
X106224820Y-135885502D01*
X106243127Y-135891056D01*
X106176688Y-135957495D01*
X106008701Y-136208905D01*
X105892989Y-136488257D01*
X105834000Y-136784816D01*
X105834000Y-137087184D01*
X105892989Y-137383743D01*
X106008701Y-137663095D01*
X106176688Y-137914505D01*
X106390495Y-138128312D01*
X106485703Y-138191928D01*
X106469000Y-138191928D01*
X106344518Y-138204188D01*
X106224820Y-138240498D01*
X106114506Y-138299463D01*
X106017815Y-138378815D01*
X105938463Y-138475506D01*
X105879498Y-138585820D01*
X105843188Y-138705518D01*
X105830928Y-138830000D01*
X105830928Y-140630000D01*
X105843188Y-140754482D01*
X105879498Y-140874180D01*
X105938463Y-140984494D01*
X106017815Y-141081185D01*
X106114506Y-141160537D01*
X106224820Y-141219502D01*
X106243127Y-141225056D01*
X106176688Y-141291495D01*
X106008701Y-141542905D01*
X105892989Y-141822257D01*
X105834000Y-142118816D01*
X105834000Y-142421184D01*
X105892989Y-142717743D01*
X106008701Y-142997095D01*
X106176688Y-143248505D01*
X106390495Y-143462312D01*
X106641905Y-143630299D01*
X106921257Y-143746011D01*
X107217816Y-143805000D01*
X107520184Y-143805000D01*
X107816743Y-143746011D01*
X108096095Y-143630299D01*
X108347505Y-143462312D01*
X108561312Y-143248505D01*
X108729299Y-142997095D01*
X108845011Y-142717743D01*
X108904000Y-142421184D01*
X108904000Y-142118816D01*
X108845011Y-141822257D01*
X108729299Y-141542905D01*
X108561312Y-141291495D01*
X108494873Y-141225056D01*
X108513180Y-141219502D01*
X108623494Y-141160537D01*
X108720185Y-141081185D01*
X108799537Y-140984494D01*
X108858502Y-140874180D01*
X108894812Y-140754482D01*
X108907072Y-140630000D01*
X108907072Y-138830000D01*
X108894812Y-138705518D01*
X108858502Y-138585820D01*
X108799537Y-138475506D01*
X108720185Y-138378815D01*
X108623494Y-138299463D01*
X108513180Y-138240498D01*
X108393482Y-138204188D01*
X108269000Y-138191928D01*
X108252297Y-138191928D01*
X108347505Y-138128312D01*
X108561312Y-137914505D01*
X108729299Y-137663095D01*
X108845011Y-137383743D01*
X108904000Y-137087184D01*
X108904000Y-136784816D01*
X108845011Y-136488257D01*
X108729299Y-136208905D01*
X108561312Y-135957495D01*
X108494873Y-135891056D01*
X108513180Y-135885502D01*
X108623494Y-135826537D01*
X108720185Y-135747185D01*
X108799537Y-135650494D01*
X108858502Y-135540180D01*
X108894812Y-135420482D01*
X108907072Y-135296000D01*
X108907072Y-133496000D01*
X108894812Y-133371518D01*
X108858502Y-133251820D01*
X108799537Y-133141506D01*
X108720185Y-133044815D01*
X108623494Y-132965463D01*
X108513180Y-132906498D01*
X108393482Y-132870188D01*
X108269000Y-132857928D01*
X106469000Y-132857928D01*
X106344518Y-132870188D01*
X106224820Y-132906498D01*
X106114506Y-132965463D01*
X106017815Y-133044815D01*
X105938463Y-133141506D01*
X105879498Y-133251820D01*
X105843188Y-133371518D01*
X105830928Y-133496000D01*
X105079000Y-133496000D01*
X105079000Y-130576003D01*
X108239573Y-130576003D01*
X108319947Y-130873368D01*
X108518388Y-131297439D01*
X108795748Y-131674648D01*
X109141369Y-131990498D01*
X109541968Y-132232852D01*
X109982150Y-132392396D01*
X110445000Y-132463000D01*
X112195000Y-132463000D01*
X112195000Y-130205000D01*
X112449000Y-130205000D01*
X112449000Y-132463000D01*
X114199000Y-132463000D01*
X114661850Y-132392396D01*
X115102032Y-132232852D01*
X115502631Y-131990498D01*
X115848252Y-131674648D01*
X116125612Y-131297439D01*
X116324053Y-130873368D01*
X116404427Y-130576003D01*
X116294625Y-130205000D01*
X112449000Y-130205000D01*
X112195000Y-130205000D01*
X108349375Y-130205000D01*
X108239573Y-130576003D01*
X105079000Y-130576003D01*
X105079000Y-129579997D01*
X108239573Y-129579997D01*
X108349375Y-129951000D01*
X112195000Y-129951000D01*
X112195000Y-127693000D01*
X112449000Y-127693000D01*
X112449000Y-129951000D01*
X116294625Y-129951000D01*
X116404427Y-129579997D01*
X116324053Y-129282632D01*
X116125612Y-128858561D01*
X115848252Y-128481352D01*
X115502631Y-128165502D01*
X115102032Y-127923148D01*
X115002408Y-127887039D01*
X115560096Y-127887039D01*
X115577633Y-127969818D01*
X115688285Y-128229646D01*
X115847500Y-128462895D01*
X116049161Y-128660601D01*
X116285517Y-128815166D01*
X116547486Y-128920650D01*
X116825000Y-128973000D01*
X117275000Y-128973000D01*
X117275000Y-127665000D01*
X115682085Y-127665000D01*
X115560096Y-127887039D01*
X115002408Y-127887039D01*
X114661850Y-127763604D01*
X114199000Y-127693000D01*
X112449000Y-127693000D01*
X112195000Y-127693000D01*
X110445000Y-127693000D01*
X109982150Y-127763604D01*
X109541968Y-127923148D01*
X109141369Y-128165502D01*
X108795748Y-128481352D01*
X108518388Y-128858561D01*
X108319947Y-129282632D01*
X108239573Y-129579997D01*
X105079000Y-129579997D01*
X105079000Y-120416003D01*
X108239573Y-120416003D01*
X108319947Y-120713368D01*
X108518388Y-121137439D01*
X108795748Y-121514648D01*
X109141369Y-121830498D01*
X109541968Y-122072852D01*
X109982150Y-122232396D01*
X110445000Y-122303000D01*
X112195000Y-122303000D01*
X112195000Y-120045000D01*
X112449000Y-120045000D01*
X112449000Y-122303000D01*
X114199000Y-122303000D01*
X114661850Y-122232396D01*
X115102032Y-122072852D01*
X115502631Y-121830498D01*
X115848252Y-121514648D01*
X116125612Y-121137439D01*
X116324053Y-120713368D01*
X116404427Y-120416003D01*
X116294625Y-120045000D01*
X112449000Y-120045000D01*
X112195000Y-120045000D01*
X108349375Y-120045000D01*
X108239573Y-120416003D01*
X105079000Y-120416003D01*
X105079000Y-117008498D01*
X105913960Y-117843458D01*
X105959298Y-117898702D01*
X106179754Y-118079626D01*
X106431270Y-118214065D01*
X106704182Y-118296851D01*
X106916878Y-118317800D01*
X106916887Y-118317800D01*
X106987999Y-118324804D01*
X107059111Y-118317800D01*
X108799635Y-118317800D01*
X108795748Y-118321352D01*
X108518388Y-118698561D01*
X108319947Y-119122632D01*
X108239573Y-119419997D01*
X108349375Y-119791000D01*
X112195000Y-119791000D01*
X112195000Y-119771000D01*
X112449000Y-119771000D01*
X112449000Y-119791000D01*
X116294625Y-119791000D01*
X116404427Y-119419997D01*
X116324053Y-119122632D01*
X116125612Y-118698561D01*
X115848252Y-118321352D01*
X115844365Y-118317800D01*
X116776489Y-118317800D01*
X116725063Y-118369226D01*
X116611795Y-118538744D01*
X116533774Y-118727102D01*
X116494000Y-118927061D01*
X116494000Y-119130939D01*
X116533774Y-119330898D01*
X116611795Y-119519256D01*
X116725063Y-119688774D01*
X116869226Y-119832937D01*
X117038744Y-119946205D01*
X117227102Y-120024226D01*
X117427061Y-120064000D01*
X117630939Y-120064000D01*
X117830898Y-120024226D01*
X118019256Y-119946205D01*
X118137496Y-119867200D01*
X118256111Y-119867200D01*
X118395791Y-120006881D01*
X118395791Y-123663386D01*
X118133309Y-123583764D01*
X117922492Y-123563000D01*
X116881508Y-123563000D01*
X116670691Y-123583764D01*
X116400192Y-123665818D01*
X116150899Y-123799068D01*
X115932392Y-123978392D01*
X115753068Y-124196899D01*
X115619818Y-124446192D01*
X115537764Y-124716691D01*
X115510057Y-124998000D01*
X115537764Y-125279309D01*
X115619818Y-125549808D01*
X115753068Y-125799101D01*
X115932392Y-126017608D01*
X116150899Y-126196932D01*
X116278741Y-126265265D01*
X116049161Y-126415399D01*
X115847500Y-126613105D01*
X115688285Y-126846354D01*
X115577633Y-127106182D01*
X115560096Y-127188961D01*
X115682085Y-127411000D01*
X117275000Y-127411000D01*
X117275000Y-127391000D01*
X117529000Y-127391000D01*
X117529000Y-127411000D01*
X117549000Y-127411000D01*
X117549000Y-127665000D01*
X117529000Y-127665000D01*
X117529000Y-128973000D01*
X117979000Y-128973000D01*
X118256514Y-128920650D01*
X118395790Y-128864569D01*
X118395790Y-134027827D01*
X118391736Y-134068990D01*
X118395790Y-134110153D01*
X118395790Y-134110159D01*
X118407919Y-134233305D01*
X118455848Y-134391306D01*
X118533681Y-134536921D01*
X118638426Y-134664554D01*
X118670408Y-134690801D01*
X119447193Y-135467587D01*
X119473436Y-135499564D01*
X119505412Y-135525806D01*
X119505414Y-135525808D01*
X119541158Y-135555142D01*
X119601068Y-135604309D01*
X119746683Y-135682142D01*
X119904684Y-135730071D01*
X120027830Y-135742200D01*
X120027839Y-135742200D01*
X120068999Y-135746254D01*
X120110159Y-135742200D01*
X132854837Y-135742200D01*
X132896000Y-135746254D01*
X132937163Y-135742200D01*
X132937170Y-135742200D01*
X133060316Y-135730071D01*
X133166771Y-135697778D01*
X133346502Y-135772226D01*
X133546461Y-135812000D01*
X133750339Y-135812000D01*
X133950298Y-135772226D01*
X134138656Y-135694205D01*
X134308174Y-135580937D01*
X134452337Y-135436774D01*
X134565605Y-135267256D01*
X134643626Y-135078898D01*
X134683400Y-134878939D01*
X134683400Y-134675061D01*
X134643626Y-134475102D01*
X134565605Y-134286744D01*
X134452337Y-134117226D01*
X134308174Y-133973063D01*
X134138656Y-133859795D01*
X133950298Y-133781774D01*
X133750339Y-133742000D01*
X133546461Y-133742000D01*
X133346502Y-133781774D01*
X133158144Y-133859795D01*
X133043020Y-133936718D01*
X133022999Y-133934746D01*
X132981837Y-133938800D01*
X132981830Y-133938800D01*
X132858684Y-133950929D01*
X132700683Y-133998858D01*
X132575444Y-134065800D01*
X120416194Y-134065800D01*
X120072190Y-133721797D01*
X120072190Y-132509689D01*
X120391966Y-132829465D01*
X120437298Y-132884702D01*
X120492535Y-132930034D01*
X120492541Y-132930040D01*
X120598191Y-133016744D01*
X120657754Y-133065626D01*
X120909270Y-133200065D01*
X121182182Y-133282851D01*
X121394878Y-133303800D01*
X121394888Y-133303800D01*
X121466000Y-133310804D01*
X121537112Y-133303800D01*
X129157122Y-133303800D01*
X129369818Y-133282851D01*
X129642730Y-133200065D01*
X129894246Y-133065626D01*
X130114702Y-132884702D01*
X130295626Y-132664246D01*
X130430065Y-132412730D01*
X130512851Y-132139818D01*
X130540805Y-131856000D01*
X130512851Y-131572182D01*
X130430065Y-131299270D01*
X130295626Y-131047754D01*
X130114702Y-130827298D01*
X129894246Y-130646374D01*
X129642730Y-130511935D01*
X129369818Y-130429149D01*
X129157122Y-130408200D01*
X122065699Y-130408200D01*
X121897800Y-130240302D01*
X121897800Y-128575810D01*
X133022036Y-128575810D01*
X133030728Y-128637337D01*
X133123725Y-128846882D01*
X133255816Y-129034258D01*
X133421924Y-129192264D01*
X133615666Y-129314828D01*
X133829596Y-129397239D01*
X134055493Y-129436331D01*
X134239000Y-129276598D01*
X134239000Y-128397000D01*
X134493000Y-128397000D01*
X134493000Y-129276598D01*
X134676507Y-129436331D01*
X134902404Y-129397239D01*
X135116334Y-129314828D01*
X135310076Y-129192264D01*
X135476184Y-129034258D01*
X135608275Y-128846882D01*
X135701272Y-128637337D01*
X135709964Y-128575810D01*
X135584163Y-128397000D01*
X134493000Y-128397000D01*
X134239000Y-128397000D01*
X133147837Y-128397000D01*
X133022036Y-128575810D01*
X121897800Y-128575810D01*
X121897800Y-128194016D01*
X121942057Y-128247943D01*
X122100630Y-128378081D01*
X122281546Y-128474783D01*
X122477850Y-128534331D01*
X122630848Y-128549400D01*
X131369152Y-128549400D01*
X131522150Y-128534331D01*
X131718454Y-128474783D01*
X131899370Y-128378081D01*
X132057943Y-128247943D01*
X132188081Y-128089370D01*
X132284783Y-127908454D01*
X132344331Y-127712150D01*
X132364438Y-127508000D01*
X132344331Y-127303850D01*
X132284783Y-127107546D01*
X132188081Y-126926630D01*
X132057943Y-126768057D01*
X131899370Y-126637919D01*
X131718454Y-126541217D01*
X131522150Y-126481669D01*
X131369152Y-126466600D01*
X122630848Y-126466600D01*
X122477850Y-126481669D01*
X122281546Y-126541217D01*
X122100630Y-126637919D01*
X121942057Y-126768057D01*
X121897800Y-126821984D01*
X121897800Y-119227111D01*
X121904804Y-119155999D01*
X121897800Y-119084887D01*
X121897800Y-119084878D01*
X121876851Y-118872182D01*
X121794065Y-118599270D01*
X121659626Y-118347754D01*
X121478702Y-118127298D01*
X121423460Y-118081962D01*
X119371731Y-116030233D01*
X119532759Y-115922637D01*
X119732637Y-115722759D01*
X119888000Y-115490241D01*
X120043363Y-115722759D01*
X120243241Y-115922637D01*
X120478273Y-116079680D01*
X120739426Y-116187853D01*
X121016665Y-116243000D01*
X121299335Y-116243000D01*
X121576574Y-116187853D01*
X121837727Y-116079680D01*
X122072759Y-115922637D01*
X122272637Y-115722759D01*
X122428000Y-115490241D01*
X122583363Y-115722759D01*
X122783241Y-115922637D01*
X123018273Y-116079680D01*
X123279426Y-116187853D01*
X123556665Y-116243000D01*
X123839335Y-116243000D01*
X124116574Y-116187853D01*
X124377727Y-116079680D01*
X124612759Y-115922637D01*
X124812637Y-115722759D01*
X124968000Y-115490241D01*
X125123363Y-115722759D01*
X125323241Y-115922637D01*
X125558273Y-116079680D01*
X125819426Y-116187853D01*
X126096665Y-116243000D01*
X126379335Y-116243000D01*
X126656574Y-116187853D01*
X126917727Y-116079680D01*
X127152759Y-115922637D01*
X127352637Y-115722759D01*
X127508000Y-115490241D01*
X127663363Y-115722759D01*
X127863241Y-115922637D01*
X128098273Y-116079680D01*
X128359426Y-116187853D01*
X128636665Y-116243000D01*
X128919335Y-116243000D01*
X129196574Y-116187853D01*
X129457727Y-116079680D01*
X129692759Y-115922637D01*
X129892637Y-115722759D01*
X130048000Y-115490241D01*
X130203363Y-115722759D01*
X130403241Y-115922637D01*
X130638273Y-116079680D01*
X130899426Y-116187853D01*
X131176665Y-116243000D01*
X131459335Y-116243000D01*
X131736574Y-116187853D01*
X131997727Y-116079680D01*
X132232759Y-115922637D01*
X132432637Y-115722759D01*
X132588000Y-115490241D01*
X132743363Y-115722759D01*
X132943241Y-115922637D01*
X133019800Y-115973792D01*
X133019800Y-116139837D01*
X133015746Y-116181000D01*
X133019800Y-116222163D01*
X133019800Y-116222169D01*
X133031929Y-116345315D01*
X133079858Y-116503316D01*
X133157691Y-116648931D01*
X133262436Y-116776564D01*
X133294418Y-116802811D01*
X133417189Y-116925582D01*
X133443436Y-116957564D01*
X133571068Y-117062309D01*
X133716683Y-117140142D01*
X133874684Y-117188071D01*
X133997830Y-117200200D01*
X133997837Y-117200200D01*
X134039000Y-117204254D01*
X134080163Y-117200200D01*
X134645411Y-117200200D01*
X134645411Y-119098378D01*
X134469850Y-119115669D01*
X134273546Y-119175217D01*
X134092630Y-119271919D01*
X133934057Y-119402057D01*
X133803919Y-119560630D01*
X133707217Y-119741547D01*
X133647669Y-119937851D01*
X133632600Y-120090849D01*
X133632601Y-122152839D01*
X133632600Y-122152849D01*
X133632601Y-123168849D01*
X133627563Y-123220000D01*
X133632601Y-123271151D01*
X133632601Y-123271152D01*
X133647670Y-123424150D01*
X133677444Y-123522302D01*
X133707218Y-123620455D01*
X133803919Y-123801369D01*
X133901450Y-123920211D01*
X133901454Y-123920215D01*
X133934058Y-123959943D01*
X133973786Y-123992547D01*
X134548166Y-124566928D01*
X133616000Y-124566928D01*
X133491518Y-124579188D01*
X133371820Y-124615498D01*
X133261506Y-124674463D01*
X133164815Y-124753815D01*
X133085463Y-124850506D01*
X133026498Y-124960820D01*
X132990188Y-125080518D01*
X132977928Y-125205000D01*
X132977928Y-126255000D01*
X132990188Y-126379482D01*
X133026498Y-126499180D01*
X133061093Y-126563902D01*
X132997785Y-126772600D01*
X132975388Y-127000000D01*
X132997785Y-127227400D01*
X133064115Y-127446060D01*
X133164929Y-127634669D01*
X133123725Y-127693118D01*
X133030728Y-127902663D01*
X133022036Y-127964190D01*
X133147837Y-128143000D01*
X133912891Y-128143000D01*
X133913600Y-128143215D01*
X134084021Y-128160000D01*
X134647979Y-128160000D01*
X134818400Y-128143215D01*
X134819109Y-128143000D01*
X135584163Y-128143000D01*
X135709964Y-127964190D01*
X135701272Y-127902663D01*
X135672663Y-127838200D01*
X135932837Y-127838200D01*
X135974000Y-127842254D01*
X136015163Y-127838200D01*
X136015170Y-127838200D01*
X136138316Y-127826071D01*
X136296317Y-127778142D01*
X136441932Y-127700309D01*
X136569564Y-127595564D01*
X136595811Y-127563582D01*
X136888583Y-127270810D01*
X136920564Y-127244564D01*
X137025309Y-127116932D01*
X137103142Y-126971317D01*
X137151071Y-126813316D01*
X137163200Y-126690170D01*
X137163200Y-126690163D01*
X137167254Y-126649000D01*
X137163200Y-126607837D01*
X137163200Y-125853810D01*
X139075965Y-125853810D01*
X139117128Y-125857864D01*
X139158291Y-125853810D01*
X139158298Y-125853810D01*
X139281444Y-125841681D01*
X139439445Y-125793752D01*
X139585060Y-125715919D01*
X139712692Y-125611174D01*
X139738939Y-125579192D01*
X140111193Y-125206938D01*
X140143174Y-125180692D01*
X140247919Y-125053060D01*
X140325752Y-124907445D01*
X140373681Y-124749444D01*
X140385810Y-124626298D01*
X140385810Y-124626289D01*
X140389864Y-124585129D01*
X140385810Y-124543969D01*
X140385810Y-123911819D01*
X140389865Y-123870649D01*
X140373681Y-123706333D01*
X140325752Y-123548332D01*
X140247919Y-123402717D01*
X140247382Y-123402063D01*
X140143174Y-123275085D01*
X140111187Y-123248834D01*
X139695162Y-122832808D01*
X139668915Y-122800826D01*
X139541283Y-122696081D01*
X139395668Y-122618248D01*
X139237667Y-122570319D01*
X139114521Y-122558190D01*
X139114514Y-122558190D01*
X139073351Y-122554136D01*
X139032188Y-122558190D01*
X136342543Y-122558190D01*
X136321810Y-122537457D01*
X136321810Y-122356061D01*
X142529000Y-122356061D01*
X142529000Y-122559939D01*
X142568774Y-122759898D01*
X142646795Y-122948256D01*
X142760063Y-123117774D01*
X142904226Y-123261937D01*
X143073744Y-123375205D01*
X143262102Y-123453226D01*
X143462061Y-123493000D01*
X143665939Y-123493000D01*
X143865898Y-123453226D01*
X144054256Y-123375205D01*
X144172496Y-123296200D01*
X144792837Y-123296200D01*
X144834000Y-123300254D01*
X144875163Y-123296200D01*
X144875170Y-123296200D01*
X144998316Y-123284071D01*
X145156317Y-123236142D01*
X145301932Y-123158309D01*
X145429564Y-123053564D01*
X145455811Y-123021583D01*
X146105587Y-122371807D01*
X146137564Y-122345564D01*
X146172496Y-122303000D01*
X146242309Y-122217932D01*
X146275358Y-122156102D01*
X146320142Y-122072317D01*
X146368071Y-121914316D01*
X146380200Y-121791170D01*
X146380200Y-121791161D01*
X146384254Y-121750001D01*
X146380200Y-121708841D01*
X146380200Y-117890788D01*
X146459205Y-117772548D01*
X146537226Y-117584190D01*
X146577000Y-117384231D01*
X146577000Y-117180353D01*
X146537226Y-116980394D01*
X146459205Y-116792036D01*
X146345937Y-116622518D01*
X146201774Y-116478355D01*
X146032256Y-116365087D01*
X145843898Y-116287066D01*
X145643939Y-116247292D01*
X145440061Y-116247292D01*
X145240102Y-116287066D01*
X145051744Y-116365087D01*
X144882226Y-116478355D01*
X144738063Y-116622518D01*
X144624795Y-116792036D01*
X144546774Y-116980394D01*
X144507000Y-117180353D01*
X144507000Y-117384231D01*
X144546774Y-117584190D01*
X144624795Y-117772548D01*
X144703801Y-117890789D01*
X144703800Y-120076830D01*
X144703800Y-120076831D01*
X144703801Y-121402806D01*
X144486807Y-121619800D01*
X144172496Y-121619800D01*
X144054256Y-121540795D01*
X143865898Y-121462774D01*
X143665939Y-121423000D01*
X143462061Y-121423000D01*
X143262102Y-121462774D01*
X143073744Y-121540795D01*
X142904226Y-121654063D01*
X142760063Y-121798226D01*
X142646795Y-121967744D01*
X142568774Y-122156102D01*
X142529000Y-122356061D01*
X136321810Y-122356061D01*
X136321810Y-116704773D01*
X136325864Y-116663610D01*
X136321810Y-116622447D01*
X136321810Y-116622440D01*
X136309681Y-116499294D01*
X136261752Y-116341293D01*
X136203568Y-116232438D01*
X136256665Y-116243000D01*
X136539335Y-116243000D01*
X136816574Y-116187853D01*
X137077727Y-116079680D01*
X137312759Y-115922637D01*
X137512637Y-115722759D01*
X137668000Y-115490241D01*
X137823363Y-115722759D01*
X138023241Y-115922637D01*
X138258273Y-116079680D01*
X138519426Y-116187853D01*
X138796665Y-116243000D01*
X139079335Y-116243000D01*
X139356574Y-116187853D01*
X139617727Y-116079680D01*
X139852759Y-115922637D01*
X140052637Y-115722759D01*
X140209680Y-115487727D01*
X140214067Y-115477135D01*
X140325615Y-115663131D01*
X140514586Y-115871519D01*
X140740580Y-116039037D01*
X140994913Y-116159246D01*
X141128961Y-116199904D01*
X141351000Y-116077915D01*
X141351000Y-114935000D01*
X141331000Y-114935000D01*
X141331000Y-114681000D01*
X141351000Y-114681000D01*
X141351000Y-114661000D01*
X141605000Y-114661000D01*
X141605000Y-114681000D01*
X141625000Y-114681000D01*
X141625000Y-114935000D01*
X141605000Y-114935000D01*
X141605000Y-116077915D01*
X141827039Y-116199904D01*
X141961087Y-116159246D01*
X142215420Y-116039037D01*
X142441414Y-115871519D01*
X142630385Y-115663131D01*
X142741933Y-115477135D01*
X142746320Y-115487727D01*
X142903363Y-115722759D01*
X143103241Y-115922637D01*
X143338273Y-116079680D01*
X143599426Y-116187853D01*
X143876665Y-116243000D01*
X144159335Y-116243000D01*
X144436574Y-116187853D01*
X144697727Y-116079680D01*
X144932759Y-115922637D01*
X145132637Y-115722759D01*
X145289680Y-115487727D01*
X145397853Y-115226574D01*
X145453000Y-114949335D01*
X145453000Y-114666665D01*
X145397853Y-114389426D01*
X145297625Y-114147454D01*
X147669368Y-114147454D01*
X147669369Y-119994395D01*
X147665314Y-120035568D01*
X147681497Y-120199883D01*
X147729426Y-120357884D01*
X147807259Y-120503499D01*
X147885389Y-120598700D01*
X147912005Y-120631132D01*
X147943981Y-120657374D01*
X149624035Y-122337428D01*
X149422000Y-122337428D01*
X149297518Y-122349688D01*
X149177820Y-122385998D01*
X149067506Y-122444963D01*
X148970815Y-122524315D01*
X148891463Y-122621006D01*
X148832498Y-122731320D01*
X148796188Y-122851018D01*
X148783928Y-122975500D01*
X148783928Y-124880500D01*
X148796188Y-125004982D01*
X148799443Y-125015713D01*
X148753887Y-125020200D01*
X148753878Y-125020200D01*
X148541182Y-125041149D01*
X148268270Y-125123935D01*
X148016754Y-125258374D01*
X148016752Y-125258375D01*
X148016753Y-125258375D01*
X147851541Y-125393960D01*
X147851535Y-125393966D01*
X147796298Y-125439298D01*
X147750966Y-125494535D01*
X146458913Y-126786588D01*
X146300368Y-126892525D01*
X146168513Y-127024380D01*
X146146502Y-126951820D01*
X146087537Y-126841506D01*
X146008185Y-126744815D01*
X145911494Y-126665463D01*
X145801180Y-126606498D01*
X145681482Y-126570188D01*
X145557000Y-126557928D01*
X143857000Y-126557928D01*
X143732518Y-126570188D01*
X143612820Y-126606498D01*
X143502506Y-126665463D01*
X143405815Y-126744815D01*
X143326463Y-126841506D01*
X143267498Y-126951820D01*
X143231188Y-127071518D01*
X143218928Y-127196000D01*
X143218928Y-128896000D01*
X143231188Y-129020482D01*
X143259201Y-129112828D01*
X143259200Y-132292888D01*
X143252196Y-132364000D01*
X143259200Y-132435112D01*
X143259200Y-132435121D01*
X143280149Y-132647817D01*
X143362935Y-132920729D01*
X143483140Y-133145614D01*
X143497375Y-133172246D01*
X143632960Y-133337458D01*
X143632966Y-133337464D01*
X143678298Y-133392701D01*
X143733536Y-133438034D01*
X144775962Y-134480460D01*
X144821298Y-134535702D01*
X144876540Y-134581038D01*
X144876541Y-134581039D01*
X144877326Y-134581683D01*
X145041754Y-134716626D01*
X145293270Y-134851065D01*
X145566182Y-134933851D01*
X145778878Y-134954800D01*
X145778887Y-134954800D01*
X145849999Y-134961804D01*
X145921111Y-134954800D01*
X147831200Y-134954800D01*
X147831201Y-139594722D01*
X147492723Y-139933200D01*
X139681707Y-139933200D01*
X139547898Y-139877774D01*
X139347939Y-139838000D01*
X139144061Y-139838000D01*
X138944102Y-139877774D01*
X138755744Y-139955795D01*
X138586226Y-140069063D01*
X138442063Y-140213226D01*
X138328795Y-140382744D01*
X138250774Y-140571102D01*
X138211000Y-140771061D01*
X138211000Y-140974939D01*
X138250774Y-141174898D01*
X138328795Y-141363256D01*
X138442063Y-141532774D01*
X138586226Y-141676937D01*
X138755744Y-141790205D01*
X138944102Y-141868226D01*
X139144061Y-141908000D01*
X139347939Y-141908000D01*
X139547898Y-141868226D01*
X139681707Y-141812800D01*
X147835843Y-141812800D01*
X147882000Y-141817346D01*
X147928157Y-141812800D01*
X147928167Y-141812800D01*
X148066233Y-141799202D01*
X148243386Y-141745463D01*
X148406651Y-141658196D01*
X148549754Y-141540754D01*
X148579191Y-141504886D01*
X149402895Y-140681183D01*
X149438754Y-140651754D01*
X149504944Y-140571102D01*
X149556196Y-140508652D01*
X149643463Y-140345386D01*
X149697202Y-140168233D01*
X149710800Y-140030167D01*
X149710800Y-140030157D01*
X149715346Y-139984000D01*
X149710800Y-139937843D01*
X149710800Y-134608662D01*
X149799702Y-134535702D01*
X149980626Y-134315246D01*
X150115065Y-134063730D01*
X150197851Y-133790818D01*
X150225805Y-133507000D01*
X150197851Y-133223182D01*
X150115065Y-132950270D01*
X149980626Y-132698754D01*
X149799702Y-132478298D01*
X149579246Y-132297374D01*
X149327730Y-132162935D01*
X149054818Y-132080149D01*
X148842122Y-132059200D01*
X146449698Y-132059200D01*
X146154800Y-131764302D01*
X146154800Y-129112825D01*
X146168513Y-129067620D01*
X146300368Y-129199475D01*
X146543589Y-129361990D01*
X146813842Y-129473932D01*
X147100740Y-129531000D01*
X147393260Y-129531000D01*
X147680158Y-129473932D01*
X147904564Y-129380980D01*
X148831437Y-129380980D01*
X148902429Y-129599094D01*
X149046031Y-129874923D01*
X149240685Y-130117437D01*
X149478911Y-130317316D01*
X149751554Y-130466879D01*
X150048137Y-130560378D01*
X150295000Y-130433570D01*
X150295000Y-129135000D01*
X150549000Y-129135000D01*
X150549000Y-130433570D01*
X150795863Y-130560378D01*
X151092446Y-130466879D01*
X151365089Y-130317316D01*
X151603315Y-130117437D01*
X151797969Y-129874923D01*
X151941571Y-129599094D01*
X152012563Y-129380980D01*
X151892594Y-129135000D01*
X150549000Y-129135000D01*
X150295000Y-129135000D01*
X148951406Y-129135000D01*
X148831437Y-129380980D01*
X147904564Y-129380980D01*
X147950411Y-129361990D01*
X148193632Y-129199475D01*
X148400475Y-128992632D01*
X148506412Y-128834087D01*
X148892217Y-128448282D01*
X148831437Y-128635020D01*
X148951406Y-128881000D01*
X150295000Y-128881000D01*
X150295000Y-128861000D01*
X150549000Y-128861000D01*
X150549000Y-128881000D01*
X151892594Y-128881000D01*
X152012563Y-128635020D01*
X151941571Y-128416906D01*
X151797969Y-128141077D01*
X151603315Y-127898563D01*
X151418101Y-127743163D01*
X151597463Y-127595963D01*
X151795845Y-127354235D01*
X151943255Y-127078449D01*
X152034030Y-126779204D01*
X152064681Y-126468000D01*
X152034030Y-126156796D01*
X151943255Y-125857551D01*
X151795845Y-125581765D01*
X151692554Y-125455905D01*
X151776494Y-125411037D01*
X151873185Y-125331685D01*
X151952537Y-125234994D01*
X152011502Y-125124680D01*
X152047812Y-125004982D01*
X152060072Y-124880500D01*
X152060072Y-122975500D01*
X152047812Y-122851018D01*
X152028757Y-122788202D01*
X157408029Y-122788202D01*
X159460643Y-124840817D01*
X159486888Y-124872796D01*
X159518864Y-124899038D01*
X159518866Y-124899040D01*
X159576018Y-124945943D01*
X159614520Y-124977541D01*
X159760135Y-125055374D01*
X159918136Y-125103303D01*
X160041282Y-125115432D01*
X160041291Y-125115432D01*
X160082451Y-125119486D01*
X160123611Y-125115432D01*
X165117342Y-125115432D01*
X164968440Y-125338279D01*
X164788654Y-125772321D01*
X164697000Y-126233098D01*
X164697000Y-126702902D01*
X164788654Y-127163679D01*
X164968440Y-127597721D01*
X165229450Y-127988349D01*
X165561651Y-128320550D01*
X165952279Y-128581560D01*
X166386321Y-128761346D01*
X166847098Y-128853000D01*
X167316902Y-128853000D01*
X167777679Y-128761346D01*
X168211721Y-128581560D01*
X168602349Y-128320550D01*
X168934550Y-127988349D01*
X169195560Y-127597721D01*
X169318800Y-127300193D01*
X170628194Y-128609588D01*
X170654436Y-128641564D01*
X170660466Y-128646513D01*
X170700063Y-128705774D01*
X170844226Y-128849937D01*
X171013744Y-128963205D01*
X171202102Y-129041226D01*
X171402061Y-129081000D01*
X171605939Y-129081000D01*
X171805898Y-129041226D01*
X171994256Y-128963205D01*
X172163774Y-128849937D01*
X172307937Y-128705774D01*
X172421205Y-128536256D01*
X172499226Y-128347898D01*
X172539000Y-128147939D01*
X172539000Y-127944061D01*
X172523910Y-127868200D01*
X172770090Y-127868200D01*
X172755000Y-127944061D01*
X172755000Y-128147939D01*
X172794774Y-128347898D01*
X172872795Y-128536256D01*
X172986063Y-128705774D01*
X173130226Y-128849937D01*
X173299744Y-128963205D01*
X173488102Y-129041226D01*
X173688061Y-129081000D01*
X173891939Y-129081000D01*
X174091898Y-129041226D01*
X174280256Y-128963205D01*
X174449774Y-128849937D01*
X174593937Y-128705774D01*
X174707205Y-128536256D01*
X174785226Y-128347898D01*
X174825000Y-128147939D01*
X174825000Y-127944061D01*
X174785226Y-127744102D01*
X174707205Y-127555744D01*
X174628200Y-127437504D01*
X174628200Y-127325159D01*
X174632254Y-127283999D01*
X174630067Y-127261790D01*
X175110800Y-127261790D01*
X175110800Y-127437504D01*
X175031795Y-127555744D01*
X174953774Y-127744102D01*
X174914000Y-127944061D01*
X174914000Y-128147939D01*
X174953774Y-128347898D01*
X175031795Y-128536256D01*
X175145063Y-128705774D01*
X175289226Y-128849937D01*
X175458744Y-128963205D01*
X175647102Y-129041226D01*
X175847061Y-129081000D01*
X176050939Y-129081000D01*
X176250898Y-129041226D01*
X176439256Y-128963205D01*
X176608774Y-128849937D01*
X176752937Y-128705774D01*
X176866205Y-128536256D01*
X176944226Y-128347898D01*
X176984000Y-128147939D01*
X176984000Y-127944061D01*
X176944226Y-127744102D01*
X176866205Y-127555744D01*
X176787200Y-127437504D01*
X176787200Y-126944162D01*
X176791254Y-126902999D01*
X176787200Y-126861836D01*
X176787200Y-126861830D01*
X176775071Y-126738684D01*
X176749801Y-126655380D01*
X177396800Y-126655380D01*
X177396801Y-127437503D01*
X177317795Y-127555744D01*
X177239774Y-127744102D01*
X177200000Y-127944061D01*
X177200000Y-128147939D01*
X177239774Y-128347898D01*
X177317795Y-128536256D01*
X177431063Y-128705774D01*
X177575226Y-128849937D01*
X177744744Y-128963205D01*
X177933102Y-129041226D01*
X178133061Y-129081000D01*
X178336939Y-129081000D01*
X178536898Y-129041226D01*
X178725256Y-128963205D01*
X178894774Y-128849937D01*
X179038937Y-128705774D01*
X179152205Y-128536256D01*
X179230226Y-128347898D01*
X179270000Y-128147939D01*
X179270000Y-127944061D01*
X179230226Y-127744102D01*
X179152205Y-127555744D01*
X179073200Y-127437504D01*
X179073200Y-126182163D01*
X179077254Y-126141000D01*
X179073200Y-126099837D01*
X179073200Y-126099830D01*
X179061071Y-125976684D01*
X179013142Y-125818683D01*
X178935309Y-125673068D01*
X178830564Y-125545436D01*
X178798583Y-125519190D01*
X178532991Y-125253598D01*
X178506744Y-125221616D01*
X178379112Y-125116871D01*
X178233497Y-125039038D01*
X178075496Y-124991109D01*
X177952350Y-124978980D01*
X177952343Y-124978980D01*
X177911180Y-124974926D01*
X177870017Y-124978980D01*
X172129430Y-124978980D01*
X172129430Y-124127205D01*
X172133484Y-124086045D01*
X172129430Y-124044885D01*
X172129430Y-124044876D01*
X172117301Y-123921730D01*
X172069372Y-123763729D01*
X171991539Y-123618114D01*
X171963349Y-123583764D01*
X171913038Y-123522460D01*
X171913036Y-123522458D01*
X171886794Y-123490482D01*
X171854819Y-123464241D01*
X170581997Y-122191420D01*
X170284991Y-121894413D01*
X170258749Y-121862437D01*
X170219832Y-121830498D01*
X170131117Y-121757692D01*
X169985503Y-121679859D01*
X169827501Y-121631930D01*
X169663186Y-121615746D01*
X169622014Y-121619801D01*
X161183195Y-121619799D01*
X159130578Y-119567183D01*
X159104338Y-119535209D01*
X159072362Y-119508967D01*
X159072359Y-119508964D01*
X158976705Y-119430463D01*
X158831090Y-119352630D01*
X158673089Y-119304701D01*
X158508774Y-119288518D01*
X158467602Y-119292573D01*
X151522745Y-119292569D01*
X151165001Y-118934826D01*
X151165001Y-114573000D01*
X151231950Y-114573000D01*
X151431909Y-114533226D01*
X151620267Y-114455205D01*
X151789785Y-114341937D01*
X151933948Y-114197774D01*
X152047216Y-114028256D01*
X152125237Y-113839898D01*
X152165011Y-113639939D01*
X152165011Y-113436061D01*
X152125237Y-113236102D01*
X152047216Y-113047744D01*
X151968211Y-112929504D01*
X151968211Y-111777174D01*
X151972265Y-111736011D01*
X151968211Y-111694848D01*
X151968211Y-111694841D01*
X151956082Y-111571695D01*
X151908153Y-111413694D01*
X151830320Y-111268079D01*
X151801531Y-111233000D01*
X151751819Y-111172425D01*
X151751817Y-111172423D01*
X151725575Y-111140447D01*
X151693599Y-111114206D01*
X151226393Y-110647000D01*
X151693587Y-110179807D01*
X151725564Y-110153564D01*
X151758949Y-110112885D01*
X151799464Y-110063517D01*
X151909744Y-110137203D01*
X152098102Y-110215224D01*
X152298061Y-110254998D01*
X152501939Y-110254998D01*
X152701898Y-110215224D01*
X152890256Y-110137203D01*
X153008493Y-110058200D01*
X154880020Y-110058200D01*
X154875929Y-110071685D01*
X154870653Y-110125247D01*
X154784795Y-110253744D01*
X154706774Y-110442102D01*
X154667000Y-110642061D01*
X154667000Y-110845939D01*
X154706774Y-111045898D01*
X154784795Y-111234256D01*
X154898063Y-111403774D01*
X155042226Y-111547937D01*
X155211744Y-111661205D01*
X155400102Y-111739226D01*
X155600061Y-111779000D01*
X155803939Y-111779000D01*
X156003898Y-111739226D01*
X156192256Y-111661205D01*
X156361774Y-111547937D01*
X156505937Y-111403774D01*
X156619205Y-111234256D01*
X156697226Y-111045898D01*
X156737000Y-110845939D01*
X156737000Y-110820200D01*
X160740837Y-110820200D01*
X160782000Y-110824254D01*
X160823163Y-110820200D01*
X160823170Y-110820200D01*
X160946316Y-110808071D01*
X161104317Y-110760142D01*
X161249932Y-110682309D01*
X161377564Y-110577564D01*
X161403811Y-110545582D01*
X161721800Y-110227593D01*
X161721801Y-119776293D01*
X161642795Y-119894534D01*
X161564774Y-120082892D01*
X161525000Y-120282851D01*
X161525000Y-120486729D01*
X161564774Y-120686688D01*
X161642795Y-120875046D01*
X161756063Y-121044564D01*
X161900226Y-121188727D01*
X162069744Y-121301995D01*
X162258102Y-121380016D01*
X162458061Y-121419790D01*
X162661939Y-121419790D01*
X162861898Y-121380016D01*
X163050256Y-121301995D01*
X163219774Y-121188727D01*
X163363937Y-121044564D01*
X163477205Y-120875046D01*
X163555226Y-120686688D01*
X163595000Y-120486729D01*
X163595000Y-120282851D01*
X163555226Y-120082892D01*
X163477205Y-119894534D01*
X163398200Y-119776294D01*
X163398200Y-112166061D01*
X163430000Y-112166061D01*
X163430000Y-112369939D01*
X163469774Y-112569898D01*
X163547795Y-112758256D01*
X163626800Y-112876496D01*
X163626801Y-119073617D01*
X163622746Y-119114790D01*
X163638929Y-119279105D01*
X163686858Y-119437106D01*
X163764691Y-119582721D01*
X163830441Y-119662837D01*
X163869437Y-119710354D01*
X163901413Y-119736596D01*
X164712031Y-120547215D01*
X164739774Y-120686688D01*
X164817795Y-120875046D01*
X164931063Y-121044564D01*
X165075226Y-121188727D01*
X165244744Y-121301995D01*
X165433102Y-121380016D01*
X165633061Y-121419790D01*
X165836939Y-121419790D01*
X166036898Y-121380016D01*
X166225256Y-121301995D01*
X166394774Y-121188727D01*
X166538937Y-121044564D01*
X166652205Y-120875046D01*
X166730226Y-120686688D01*
X166770000Y-120486729D01*
X166770000Y-120282851D01*
X166730226Y-120082892D01*
X166652205Y-119894534D01*
X166538937Y-119725016D01*
X166394774Y-119580853D01*
X166225256Y-119467585D01*
X166036898Y-119389564D01*
X165897425Y-119361821D01*
X165303200Y-118767597D01*
X165303200Y-115976061D01*
X165335000Y-115976061D01*
X165335000Y-116179939D01*
X165374774Y-116379898D01*
X165452795Y-116568256D01*
X165566063Y-116737774D01*
X165710226Y-116881937D01*
X165879744Y-116995205D01*
X166068102Y-117073226D01*
X166268061Y-117113000D01*
X166471939Y-117113000D01*
X166671898Y-117073226D01*
X166860256Y-116995205D01*
X166978496Y-116916200D01*
X189136807Y-116916200D01*
X189407800Y-117187194D01*
X189407801Y-117501504D01*
X189328795Y-117619744D01*
X189250774Y-117808102D01*
X189211000Y-118008061D01*
X189211000Y-118211939D01*
X189250774Y-118411898D01*
X189328795Y-118600256D01*
X189442063Y-118769774D01*
X189586226Y-118913937D01*
X189755744Y-119027205D01*
X189944102Y-119105226D01*
X190144061Y-119145000D01*
X190347939Y-119145000D01*
X190547898Y-119105226D01*
X190736256Y-119027205D01*
X190905774Y-118913937D01*
X191049937Y-118769774D01*
X191163205Y-118600256D01*
X191241226Y-118411898D01*
X191281000Y-118211939D01*
X191281000Y-118008061D01*
X191241226Y-117808102D01*
X191163205Y-117619744D01*
X191084200Y-117501504D01*
X191084200Y-116881163D01*
X191088254Y-116840000D01*
X191084200Y-116798837D01*
X191084200Y-116798830D01*
X191072071Y-116675684D01*
X191024142Y-116517683D01*
X190946309Y-116372068D01*
X190921053Y-116341293D01*
X190867808Y-116276414D01*
X190867806Y-116276412D01*
X190841564Y-116244436D01*
X190809588Y-116218195D01*
X190105811Y-115514417D01*
X190079564Y-115482436D01*
X189951932Y-115377691D01*
X189806317Y-115299858D01*
X189648316Y-115251929D01*
X189525170Y-115239800D01*
X189525163Y-115239800D01*
X189484000Y-115235746D01*
X189442837Y-115239800D01*
X186439910Y-115239800D01*
X186455000Y-115163939D01*
X186455000Y-114960061D01*
X186415226Y-114760102D01*
X186337205Y-114571744D01*
X186223937Y-114402226D01*
X186079774Y-114258063D01*
X185910256Y-114144795D01*
X185721898Y-114066774D01*
X185521939Y-114027000D01*
X185318061Y-114027000D01*
X185118102Y-114066774D01*
X184984293Y-114122200D01*
X175395277Y-114122200D01*
X174929800Y-113656724D01*
X174929800Y-109655707D01*
X174985226Y-109521898D01*
X175025000Y-109321939D01*
X175025000Y-109118061D01*
X174985226Y-108918102D01*
X174907205Y-108729744D01*
X174793937Y-108560226D01*
X174649774Y-108416063D01*
X174480256Y-108302795D01*
X174291898Y-108224774D01*
X174091939Y-108185000D01*
X173888061Y-108185000D01*
X173688102Y-108224774D01*
X173499744Y-108302795D01*
X173330226Y-108416063D01*
X173186063Y-108560226D01*
X173072795Y-108729744D01*
X172994774Y-108918102D01*
X172955000Y-109118061D01*
X172955000Y-109321939D01*
X172994774Y-109521898D01*
X173050201Y-109655709D01*
X173050200Y-113999843D01*
X173045654Y-114046000D01*
X173050200Y-114092157D01*
X173050200Y-114092166D01*
X173063798Y-114230232D01*
X173117537Y-114407385D01*
X173204804Y-114570651D01*
X173322246Y-114713754D01*
X173358115Y-114743191D01*
X173854723Y-115239800D01*
X166978496Y-115239800D01*
X166860256Y-115160795D01*
X166671898Y-115082774D01*
X166471939Y-115043000D01*
X166268061Y-115043000D01*
X166068102Y-115082774D01*
X165879744Y-115160795D01*
X165710226Y-115274063D01*
X165566063Y-115418226D01*
X165452795Y-115587744D01*
X165374774Y-115776102D01*
X165335000Y-115976061D01*
X165303200Y-115976061D01*
X165303200Y-112876496D01*
X165382205Y-112758256D01*
X165460226Y-112569898D01*
X165500000Y-112369939D01*
X165500000Y-112166061D01*
X165460226Y-111966102D01*
X165382205Y-111777744D01*
X165268937Y-111608226D01*
X165124774Y-111464063D01*
X164955256Y-111350795D01*
X164766898Y-111272774D01*
X164566939Y-111233000D01*
X164363061Y-111233000D01*
X164163102Y-111272774D01*
X163974744Y-111350795D01*
X163805226Y-111464063D01*
X163661063Y-111608226D01*
X163547795Y-111777744D01*
X163469774Y-111966102D01*
X163430000Y-112166061D01*
X163398200Y-112166061D01*
X163398200Y-103555193D01*
X164007194Y-102946200D01*
X165761504Y-102946200D01*
X165879744Y-103025205D01*
X166068102Y-103103226D01*
X166268061Y-103143000D01*
X166471939Y-103143000D01*
X166671898Y-103103226D01*
X166860256Y-103025205D01*
X167029774Y-102911937D01*
X167173937Y-102767774D01*
X167287205Y-102598256D01*
X167365226Y-102409898D01*
X167405000Y-102209939D01*
X167405000Y-102006061D01*
X167875000Y-102006061D01*
X167875000Y-102209939D01*
X167914774Y-102409898D01*
X167992795Y-102598256D01*
X168071801Y-102716497D01*
X168071800Y-111718837D01*
X168067746Y-111760000D01*
X168071800Y-111801163D01*
X168071800Y-111801169D01*
X168083929Y-111924315D01*
X168131858Y-112082316D01*
X168209691Y-112227931D01*
X168314436Y-112355564D01*
X168346418Y-112381811D01*
X168796189Y-112831582D01*
X168822436Y-112863564D01*
X168950068Y-112968309D01*
X169095683Y-113046142D01*
X169253684Y-113094071D01*
X169376830Y-113106200D01*
X169376839Y-113106200D01*
X169417999Y-113110254D01*
X169459159Y-113106200D01*
X169571504Y-113106200D01*
X169689744Y-113185205D01*
X169878102Y-113263226D01*
X170078061Y-113303000D01*
X170281939Y-113303000D01*
X170481898Y-113263226D01*
X170670256Y-113185205D01*
X170839774Y-113071937D01*
X170983937Y-112927774D01*
X171097205Y-112758256D01*
X171175226Y-112569898D01*
X171215000Y-112369939D01*
X171215000Y-112166061D01*
X171175226Y-111966102D01*
X171097205Y-111777744D01*
X170983937Y-111608226D01*
X170839774Y-111464063D01*
X170670256Y-111350795D01*
X170481898Y-111272774D01*
X170281939Y-111233000D01*
X170078061Y-111233000D01*
X169878102Y-111272774D01*
X169748200Y-111326582D01*
X169748200Y-102716496D01*
X169827205Y-102598256D01*
X169905226Y-102409898D01*
X169945000Y-102209939D01*
X169945000Y-102006061D01*
X169905226Y-101806102D01*
X169827205Y-101617744D01*
X169713937Y-101448226D01*
X169569774Y-101304063D01*
X169400256Y-101190795D01*
X169211898Y-101112774D01*
X169011939Y-101073000D01*
X168808061Y-101073000D01*
X168608102Y-101112774D01*
X168419744Y-101190795D01*
X168250226Y-101304063D01*
X168106063Y-101448226D01*
X167992795Y-101617744D01*
X167914774Y-101806102D01*
X167875000Y-102006061D01*
X167405000Y-102006061D01*
X167365226Y-101806102D01*
X167287205Y-101617744D01*
X167173937Y-101448226D01*
X167029774Y-101304063D01*
X166860256Y-101190795D01*
X166671898Y-101112774D01*
X166471939Y-101073000D01*
X166268061Y-101073000D01*
X166068102Y-101112774D01*
X165879744Y-101190795D01*
X165761504Y-101269800D01*
X163701163Y-101269800D01*
X163660000Y-101265746D01*
X163618837Y-101269800D01*
X163618830Y-101269800D01*
X163495684Y-101281929D01*
X163337683Y-101329858D01*
X163192068Y-101407691D01*
X163064436Y-101512436D01*
X163038193Y-101544413D01*
X161996418Y-102586189D01*
X161964436Y-102612436D01*
X161859691Y-102740069D01*
X161781858Y-102885684D01*
X161733929Y-103043685D01*
X161721800Y-103166831D01*
X161721800Y-103166837D01*
X161717746Y-103208000D01*
X161721800Y-103249163D01*
X161721800Y-105305289D01*
X161695774Y-105279263D01*
X161526256Y-105165995D01*
X161337898Y-105087974D01*
X161137939Y-105048200D01*
X160934061Y-105048200D01*
X160734102Y-105087974D01*
X160545744Y-105165995D01*
X160427504Y-105245000D01*
X156540200Y-105245000D01*
X156540200Y-103224496D01*
X156619205Y-103106256D01*
X156697226Y-102917898D01*
X156737000Y-102717939D01*
X156737000Y-102514061D01*
X156697226Y-102314102D01*
X156619205Y-102125744D01*
X156505937Y-101956226D01*
X156361774Y-101812063D01*
X156192256Y-101698795D01*
X156003898Y-101620774D01*
X155803939Y-101581000D01*
X155600061Y-101581000D01*
X155400102Y-101620774D01*
X155270200Y-101674582D01*
X155270200Y-98623163D01*
X155274254Y-98582000D01*
X155270200Y-98540837D01*
X155270200Y-98540830D01*
X155258071Y-98417684D01*
X155210142Y-98259683D01*
X155132309Y-98114068D01*
X155094560Y-98068071D01*
X155053808Y-98018414D01*
X155053806Y-98018412D01*
X155027564Y-97986436D01*
X154995587Y-97960193D01*
X154438969Y-97403575D01*
X154411226Y-97264102D01*
X154333205Y-97075744D01*
X154219937Y-96906226D01*
X154163911Y-96850200D01*
X159216837Y-96850200D01*
X159258000Y-96854254D01*
X159299163Y-96850200D01*
X159299170Y-96850200D01*
X159422316Y-96838071D01*
X159580317Y-96790142D01*
X159725932Y-96712309D01*
X159853564Y-96607564D01*
X159879811Y-96575582D01*
X162788601Y-93666793D01*
X162788601Y-94564637D01*
X162113791Y-95239448D01*
X162074057Y-95272057D01*
X161943919Y-95430630D01*
X161847217Y-95611547D01*
X161787669Y-95807851D01*
X161772600Y-95960849D01*
X161772600Y-95960859D01*
X161767563Y-96012000D01*
X161772600Y-96063142D01*
X161772601Y-97738849D01*
X161767563Y-97790000D01*
X161772601Y-97841151D01*
X161772601Y-97841152D01*
X161787670Y-97994150D01*
X161806510Y-98056256D01*
X161847218Y-98190455D01*
X161943919Y-98371369D01*
X162041450Y-98490211D01*
X162041451Y-98490212D01*
X162074058Y-98529943D01*
X162113786Y-98562547D01*
X163057452Y-99506214D01*
X163090057Y-99545943D01*
X163129785Y-99578547D01*
X163129788Y-99578550D01*
X163248630Y-99676081D01*
X163393813Y-99753683D01*
X163429546Y-99772783D01*
X163625850Y-99832331D01*
X163778848Y-99847400D01*
X163778858Y-99847400D01*
X163830000Y-99852437D01*
X163881141Y-99847400D01*
X167588859Y-99847400D01*
X167640000Y-99852437D01*
X167691141Y-99847400D01*
X167691152Y-99847400D01*
X167844150Y-99832331D01*
X168040454Y-99772783D01*
X168221370Y-99676081D01*
X168379943Y-99545943D01*
X168412552Y-99506209D01*
X169356214Y-98562548D01*
X169395943Y-98529943D01*
X169428551Y-98490211D01*
X169526081Y-98371370D01*
X169622782Y-98190456D01*
X169622783Y-98190453D01*
X169682331Y-97994150D01*
X169697400Y-97841152D01*
X169697400Y-97841142D01*
X169702437Y-97790000D01*
X169697400Y-97738859D01*
X169697400Y-94157361D01*
X170103362Y-93751400D01*
X171144859Y-93751400D01*
X171196000Y-93756437D01*
X171247141Y-93751400D01*
X171247152Y-93751400D01*
X171400150Y-93736331D01*
X171596454Y-93676783D01*
X171777370Y-93580081D01*
X171935943Y-93449943D01*
X171968552Y-93410209D01*
X173166214Y-92212548D01*
X173205943Y-92179943D01*
X173240423Y-92137930D01*
X173336081Y-92021370D01*
X173432782Y-91840456D01*
X173432945Y-91839919D01*
X173492331Y-91644150D01*
X173507400Y-91491152D01*
X173507400Y-91491142D01*
X173512437Y-91440001D01*
X173507400Y-91388859D01*
X173507400Y-90347361D01*
X173786362Y-90068400D01*
X180035639Y-90068400D01*
X180314600Y-90347362D01*
X180314601Y-112573152D01*
X180329670Y-112726150D01*
X180389218Y-112922454D01*
X180485920Y-113103370D01*
X180616058Y-113261943D01*
X180774631Y-113392081D01*
X180955547Y-113488783D01*
X181151851Y-113548331D01*
X181356000Y-113568438D01*
X181560150Y-113548331D01*
X181756454Y-113488783D01*
X181937370Y-113392081D01*
X182095943Y-113261943D01*
X182226081Y-113103370D01*
X182322783Y-112922454D01*
X182382331Y-112726150D01*
X182397400Y-112573152D01*
X182397400Y-111232336D01*
X183679000Y-111232336D01*
X183679000Y-111753665D01*
X183696870Y-111935102D01*
X183767489Y-112167901D01*
X183882168Y-112382449D01*
X184036499Y-112570502D01*
X184224552Y-112724833D01*
X184439100Y-112839511D01*
X184671899Y-112910130D01*
X184914000Y-112933975D01*
X185156102Y-112910130D01*
X185388901Y-112839511D01*
X185603449Y-112724833D01*
X185791502Y-112570502D01*
X185945833Y-112382449D01*
X186060511Y-112167900D01*
X186131130Y-111935101D01*
X186149000Y-111753664D01*
X186149000Y-111232335D01*
X186131130Y-111050898D01*
X186060511Y-110818099D01*
X185945833Y-110603551D01*
X185909271Y-110559000D01*
X190589928Y-110559000D01*
X190589928Y-112259000D01*
X190602188Y-112383482D01*
X190638498Y-112503180D01*
X190697463Y-112613494D01*
X190776815Y-112710185D01*
X190873506Y-112789537D01*
X190983820Y-112848502D01*
X191103518Y-112884812D01*
X191228000Y-112897072D01*
X192928000Y-112897072D01*
X193052482Y-112884812D01*
X193172180Y-112848502D01*
X193282494Y-112789537D01*
X193379185Y-112710185D01*
X193458537Y-112613494D01*
X193517502Y-112503180D01*
X193553812Y-112383482D01*
X193566072Y-112259000D01*
X193566072Y-110559000D01*
X193553812Y-110434518D01*
X193517502Y-110314820D01*
X193458537Y-110204506D01*
X193379185Y-110107815D01*
X193282494Y-110028463D01*
X193172180Y-109969498D01*
X193091534Y-109945034D01*
X193175588Y-109869269D01*
X193349641Y-109635920D01*
X193474825Y-109373099D01*
X193519476Y-109225890D01*
X193398155Y-108996000D01*
X192205000Y-108996000D01*
X192205000Y-109016000D01*
X191951000Y-109016000D01*
X191951000Y-108996000D01*
X190757845Y-108996000D01*
X190636524Y-109225890D01*
X190681175Y-109373099D01*
X190806359Y-109635920D01*
X190980412Y-109869269D01*
X191064466Y-109945034D01*
X190983820Y-109969498D01*
X190873506Y-110028463D01*
X190776815Y-110107815D01*
X190697463Y-110204506D01*
X190638498Y-110314820D01*
X190602188Y-110434518D01*
X190589928Y-110559000D01*
X185909271Y-110559000D01*
X185791502Y-110415498D01*
X185603448Y-110261167D01*
X185388900Y-110146489D01*
X185156101Y-110075870D01*
X184914000Y-110052025D01*
X184671898Y-110075870D01*
X184439099Y-110146489D01*
X184224551Y-110261167D01*
X184036498Y-110415498D01*
X183882167Y-110603552D01*
X183767489Y-110818100D01*
X183696870Y-111050899D01*
X183679000Y-111232336D01*
X182397400Y-111232336D01*
X182397400Y-106291363D01*
X183679000Y-106291363D01*
X183679000Y-106534637D01*
X183726460Y-106773236D01*
X183819557Y-106997992D01*
X183954713Y-107200267D01*
X184126733Y-107372287D01*
X184329008Y-107507443D01*
X184553764Y-107600540D01*
X184792363Y-107648000D01*
X185035637Y-107648000D01*
X185274236Y-107600540D01*
X185498992Y-107507443D01*
X185701267Y-107372287D01*
X185873287Y-107200267D01*
X186008443Y-106997992D01*
X186101540Y-106773236D01*
X186149000Y-106534637D01*
X186149000Y-106291363D01*
X186127394Y-106182740D01*
X190593000Y-106182740D01*
X190593000Y-106475260D01*
X190650068Y-106762158D01*
X190762010Y-107032411D01*
X190924525Y-107275632D01*
X191131368Y-107482475D01*
X191313534Y-107604195D01*
X191196645Y-107673822D01*
X190980412Y-107868731D01*
X190806359Y-108102080D01*
X190681175Y-108364901D01*
X190636524Y-108512110D01*
X190757845Y-108742000D01*
X191951000Y-108742000D01*
X191951000Y-108722000D01*
X192205000Y-108722000D01*
X192205000Y-108742000D01*
X193398155Y-108742000D01*
X193519476Y-108512110D01*
X193474825Y-108364901D01*
X193349641Y-108102080D01*
X193175588Y-107868731D01*
X192959355Y-107673822D01*
X192842466Y-107604195D01*
X193024632Y-107482475D01*
X193231475Y-107275632D01*
X193393990Y-107032411D01*
X193505932Y-106762158D01*
X193563000Y-106475260D01*
X193563000Y-106182740D01*
X193505932Y-105895842D01*
X193393990Y-105625589D01*
X193231475Y-105382368D01*
X193024632Y-105175525D01*
X192781411Y-105013010D01*
X192511158Y-104901068D01*
X192224260Y-104844000D01*
X191931740Y-104844000D01*
X191644842Y-104901068D01*
X191374589Y-105013010D01*
X191131368Y-105175525D01*
X190924525Y-105382368D01*
X190762010Y-105625589D01*
X190650068Y-105895842D01*
X190593000Y-106182740D01*
X186127394Y-106182740D01*
X186101540Y-106052764D01*
X186008443Y-105828008D01*
X185873287Y-105625733D01*
X185701267Y-105453713D01*
X185498992Y-105318557D01*
X185274236Y-105225460D01*
X185035637Y-105178000D01*
X184792363Y-105178000D01*
X184553764Y-105225460D01*
X184329008Y-105318557D01*
X184126733Y-105453713D01*
X183954713Y-105625733D01*
X183819557Y-105828008D01*
X183726460Y-106052764D01*
X183679000Y-106291363D01*
X182397400Y-106291363D01*
X182397400Y-89967141D01*
X182402437Y-89916000D01*
X182397400Y-89864858D01*
X182397400Y-89864848D01*
X182382331Y-89711850D01*
X182322783Y-89515546D01*
X182226081Y-89334630D01*
X182217597Y-89324292D01*
X182128551Y-89215789D01*
X182128547Y-89215785D01*
X182095943Y-89176057D01*
X182056214Y-89143452D01*
X181239552Y-88326790D01*
X181206943Y-88287057D01*
X181048370Y-88156919D01*
X180867454Y-88060217D01*
X180671150Y-88000669D01*
X180518152Y-87985600D01*
X180518141Y-87985600D01*
X180467000Y-87980563D01*
X180415859Y-87985600D01*
X173406141Y-87985600D01*
X173355000Y-87980563D01*
X173303858Y-87985600D01*
X173303848Y-87985600D01*
X173150850Y-88000669D01*
X172954546Y-88060217D01*
X172895631Y-88091708D01*
X172773630Y-88156919D01*
X172654789Y-88254449D01*
X172654785Y-88254453D01*
X172615057Y-88287057D01*
X172582452Y-88326786D01*
X172234200Y-88675038D01*
X172234200Y-85397193D01*
X172505194Y-85126200D01*
X181768837Y-85126200D01*
X181810000Y-85130254D01*
X181851163Y-85126200D01*
X181851170Y-85126200D01*
X181974316Y-85114071D01*
X182132317Y-85066142D01*
X182277932Y-84988309D01*
X182405564Y-84883564D01*
X182431811Y-84851582D01*
X183389587Y-83893807D01*
X183421564Y-83867564D01*
X183452121Y-83830331D01*
X183526309Y-83739932D01*
X183604142Y-83594317D01*
X183652071Y-83436316D01*
X183661944Y-83336071D01*
X183664200Y-83313170D01*
X183664200Y-83313163D01*
X183668254Y-83272000D01*
X183664200Y-83230837D01*
X183664200Y-78879418D01*
X183794102Y-78933226D01*
X183994061Y-78973000D01*
X184197939Y-78973000D01*
X184397898Y-78933226D01*
X184586256Y-78855205D01*
X184755774Y-78741937D01*
X184899937Y-78597774D01*
X185013205Y-78428256D01*
X185091226Y-78239898D01*
X185131000Y-78039939D01*
X185131000Y-77836061D01*
X185091226Y-77636102D01*
X185013205Y-77447744D01*
X184899937Y-77278226D01*
X184755774Y-77134063D01*
X184586256Y-77020795D01*
X184397898Y-76942774D01*
X184197939Y-76903000D01*
X183994061Y-76903000D01*
X183794102Y-76942774D01*
X183605744Y-77020795D01*
X183487504Y-77099800D01*
X183121159Y-77099800D01*
X183079999Y-77095746D01*
X183038839Y-77099800D01*
X183038830Y-77099800D01*
X182915684Y-77111929D01*
X182757683Y-77159858D01*
X182612068Y-77237691D01*
X182484436Y-77342436D01*
X182458189Y-77374418D01*
X182318000Y-77514607D01*
X182177811Y-77374418D01*
X182151564Y-77342436D01*
X182023932Y-77237691D01*
X181878317Y-77159858D01*
X181720316Y-77111929D01*
X181597170Y-77099800D01*
X181597163Y-77099800D01*
X181556000Y-77095746D01*
X181514837Y-77099800D01*
X181148496Y-77099800D01*
X181030256Y-77020795D01*
X180841898Y-76942774D01*
X180641939Y-76903000D01*
X180438061Y-76903000D01*
X180238102Y-76942774D01*
X180049744Y-77020795D01*
X179880226Y-77134063D01*
X179736063Y-77278226D01*
X179622795Y-77447744D01*
X179544774Y-77636102D01*
X179505000Y-77836061D01*
X179505000Y-78039939D01*
X179544774Y-78239898D01*
X179622795Y-78428256D01*
X179736063Y-78597774D01*
X179880226Y-78741937D01*
X180049744Y-78855205D01*
X180238102Y-78933226D01*
X180438061Y-78973000D01*
X180641939Y-78973000D01*
X180841898Y-78933226D01*
X180971800Y-78879418D01*
X180971801Y-82162805D01*
X180700807Y-82433800D01*
X180089914Y-82433800D01*
X180105004Y-82357939D01*
X180105004Y-82154061D01*
X180065230Y-81954102D01*
X179987209Y-81765744D01*
X179873941Y-81596226D01*
X179729778Y-81452063D01*
X179560260Y-81338795D01*
X179371902Y-81260774D01*
X179171943Y-81221000D01*
X178968065Y-81221000D01*
X178768106Y-81260774D01*
X178579748Y-81338795D01*
X178461508Y-81417800D01*
X171691159Y-81417800D01*
X171649999Y-81413746D01*
X171608839Y-81417800D01*
X171608830Y-81417800D01*
X171485684Y-81429929D01*
X171327683Y-81477858D01*
X171225792Y-81532320D01*
X171182068Y-81555691D01*
X171107245Y-81617097D01*
X171054436Y-81660436D01*
X171028194Y-81692412D01*
X168800413Y-83920194D01*
X168768437Y-83946436D01*
X168742195Y-83978412D01*
X168742192Y-83978415D01*
X168663691Y-84074069D01*
X168585858Y-84219684D01*
X168537929Y-84377685D01*
X168521746Y-84542000D01*
X168525801Y-84583173D01*
X168525800Y-89267504D01*
X168446795Y-89385744D01*
X168368774Y-89574102D01*
X168329000Y-89774061D01*
X168329000Y-89977939D01*
X168344090Y-90053800D01*
X165849163Y-90053800D01*
X165808000Y-90049746D01*
X165766837Y-90053800D01*
X165766830Y-90053800D01*
X165647319Y-90065571D01*
X165643684Y-90065929D01*
X165485683Y-90113858D01*
X165340068Y-90191691D01*
X165313287Y-90213670D01*
X165212436Y-90296436D01*
X165186193Y-90328413D01*
X164871400Y-90643206D01*
X164871400Y-80315144D01*
X164876437Y-80264000D01*
X164871400Y-80212856D01*
X164871400Y-80212848D01*
X164856331Y-80059850D01*
X164796783Y-79863546D01*
X164700081Y-79682630D01*
X164605456Y-79567329D01*
X164602551Y-79563789D01*
X164602547Y-79563785D01*
X164569943Y-79524057D01*
X164530214Y-79491452D01*
X163840551Y-78801790D01*
X163807943Y-78762057D01*
X163649370Y-78631919D01*
X163468454Y-78535217D01*
X163272150Y-78475669D01*
X163119152Y-78460600D01*
X163119141Y-78460600D01*
X163068000Y-78455563D01*
X163016859Y-78460600D01*
X157277144Y-78460600D01*
X157226000Y-78455563D01*
X157174856Y-78460600D01*
X157174848Y-78460600D01*
X157021850Y-78475669D01*
X156825546Y-78535217D01*
X156708511Y-78597774D01*
X156644630Y-78631919D01*
X156525789Y-78729449D01*
X156525785Y-78729453D01*
X156486057Y-78762057D01*
X156453452Y-78801786D01*
X155763786Y-79491453D01*
X155724058Y-79524057D01*
X155691454Y-79563785D01*
X155691450Y-79563789D01*
X155593919Y-79682631D01*
X155497218Y-79863545D01*
X155485553Y-79902000D01*
X155437670Y-80059850D01*
X155432148Y-80115919D01*
X155417563Y-80264000D01*
X155422601Y-80315151D01*
X155422600Y-81610638D01*
X155270639Y-81762600D01*
X152094848Y-81762600D01*
X151941850Y-81777669D01*
X151745546Y-81837217D01*
X151564630Y-81933919D01*
X151406057Y-82064057D01*
X151275919Y-82222630D01*
X151179217Y-82403546D01*
X151119669Y-82599850D01*
X151099562Y-82804000D01*
X151119669Y-83008150D01*
X151179217Y-83204454D01*
X151275919Y-83385370D01*
X151406057Y-83543943D01*
X151564630Y-83674081D01*
X151745546Y-83770783D01*
X151941850Y-83830331D01*
X152094848Y-83845400D01*
X155650859Y-83845400D01*
X155702000Y-83850437D01*
X155753141Y-83845400D01*
X155753152Y-83845400D01*
X155906150Y-83830331D01*
X156102454Y-83770783D01*
X156283370Y-83674081D01*
X156441943Y-83543943D01*
X156474551Y-83504210D01*
X157146600Y-82832162D01*
X157146601Y-90808637D01*
X157048639Y-90906600D01*
X152094848Y-90906600D01*
X151941850Y-90921669D01*
X151745546Y-90981217D01*
X151564630Y-91077919D01*
X151406057Y-91208057D01*
X151275919Y-91366630D01*
X151179217Y-91547546D01*
X151119669Y-91743850D01*
X151099562Y-91948000D01*
X151117074Y-92125800D01*
X150663159Y-92125800D01*
X150621999Y-92121746D01*
X150580839Y-92125800D01*
X150580830Y-92125800D01*
X150457684Y-92137929D01*
X150299683Y-92185858D01*
X150216508Y-92230316D01*
X150154068Y-92263691D01*
X150077761Y-92326315D01*
X150026436Y-92368436D01*
X150000193Y-92400413D01*
X148788418Y-93612189D01*
X148756436Y-93638436D01*
X148651691Y-93766069D01*
X148573858Y-93911684D01*
X148525929Y-94069685D01*
X148513800Y-94192831D01*
X148513800Y-94192837D01*
X148509746Y-94234000D01*
X148513800Y-94275163D01*
X148513801Y-100490805D01*
X148242807Y-100761800D01*
X145316280Y-100761800D01*
X145348537Y-100722494D01*
X145407502Y-100612180D01*
X145443812Y-100492482D01*
X145456072Y-100368000D01*
X145456072Y-98768000D01*
X145443812Y-98643518D01*
X145407502Y-98523820D01*
X145348537Y-98413506D01*
X145269185Y-98316815D01*
X145172494Y-98237463D01*
X145062180Y-98178498D01*
X144942482Y-98142188D01*
X144818000Y-98129928D01*
X143218000Y-98129928D01*
X143093518Y-98142188D01*
X142973820Y-98178498D01*
X142863506Y-98237463D01*
X142766815Y-98316815D01*
X142687463Y-98413506D01*
X142628498Y-98523820D01*
X142592188Y-98643518D01*
X142591357Y-98651961D01*
X142392759Y-98453363D01*
X142157727Y-98296320D01*
X141896574Y-98188147D01*
X141619335Y-98133000D01*
X141336665Y-98133000D01*
X141059426Y-98188147D01*
X140798273Y-98296320D01*
X140563241Y-98453363D01*
X140363363Y-98653241D01*
X140208000Y-98885759D01*
X140052637Y-98653241D01*
X139852759Y-98453363D01*
X139617727Y-98296320D01*
X139356574Y-98188147D01*
X139079335Y-98133000D01*
X138796665Y-98133000D01*
X138519426Y-98188147D01*
X138258273Y-98296320D01*
X138023241Y-98453363D01*
X137823363Y-98653241D01*
X137666320Y-98888273D01*
X137661933Y-98898865D01*
X137550385Y-98712869D01*
X137361414Y-98504481D01*
X137135420Y-98336963D01*
X136881087Y-98216754D01*
X136747039Y-98176096D01*
X136525000Y-98298085D01*
X136525000Y-99441000D01*
X136545000Y-99441000D01*
X136545000Y-99695000D01*
X136525000Y-99695000D01*
X136525000Y-99715000D01*
X136271000Y-99715000D01*
X136271000Y-99695000D01*
X136251000Y-99695000D01*
X136251000Y-99441000D01*
X136271000Y-99441000D01*
X136271000Y-98298085D01*
X136048961Y-98176096D01*
X135914913Y-98216754D01*
X135660580Y-98336963D01*
X135434586Y-98504481D01*
X135245615Y-98712869D01*
X135134067Y-98898865D01*
X135129680Y-98888273D01*
X134972637Y-98653241D01*
X134772759Y-98453363D01*
X134537727Y-98296320D01*
X134276574Y-98188147D01*
X133999335Y-98133000D01*
X133716665Y-98133000D01*
X133439426Y-98188147D01*
X133178273Y-98296320D01*
X132943241Y-98453363D01*
X132743363Y-98653241D01*
X132588000Y-98885759D01*
X132432637Y-98653241D01*
X132232759Y-98453363D01*
X131997727Y-98296320D01*
X131736574Y-98188147D01*
X131459335Y-98133000D01*
X131176665Y-98133000D01*
X130899426Y-98188147D01*
X130638273Y-98296320D01*
X130403241Y-98453363D01*
X130203363Y-98653241D01*
X130048000Y-98885759D01*
X129892637Y-98653241D01*
X129692759Y-98453363D01*
X129457727Y-98296320D01*
X129196574Y-98188147D01*
X128919335Y-98133000D01*
X128636665Y-98133000D01*
X128359426Y-98188147D01*
X128098273Y-98296320D01*
X127863241Y-98453363D01*
X127663363Y-98653241D01*
X127508000Y-98885759D01*
X127352637Y-98653241D01*
X127152759Y-98453363D01*
X126917727Y-98296320D01*
X126656574Y-98188147D01*
X126379335Y-98133000D01*
X126096665Y-98133000D01*
X125819426Y-98188147D01*
X125558273Y-98296320D01*
X125323241Y-98453363D01*
X125123363Y-98653241D01*
X124968000Y-98885759D01*
X124812637Y-98653241D01*
X124612759Y-98453363D01*
X124377727Y-98296320D01*
X124116574Y-98188147D01*
X123839335Y-98133000D01*
X123556665Y-98133000D01*
X123279426Y-98188147D01*
X123018273Y-98296320D01*
X122783241Y-98453363D01*
X122583363Y-98653241D01*
X122428000Y-98885759D01*
X122272637Y-98653241D01*
X122072759Y-98453363D01*
X122004336Y-98407645D01*
X122022730Y-98402065D01*
X122274246Y-98267626D01*
X122415136Y-98152000D01*
X122439458Y-98132040D01*
X122439460Y-98132038D01*
X122494702Y-98086702D01*
X122540039Y-98031459D01*
X123314796Y-97256702D01*
X124716903Y-97256702D01*
X124788486Y-97500671D01*
X125043996Y-97621571D01*
X125318184Y-97690300D01*
X125600512Y-97704217D01*
X125880130Y-97662787D01*
X126146292Y-97567603D01*
X126271514Y-97500671D01*
X126343097Y-97256702D01*
X125530000Y-96443605D01*
X124716903Y-97256702D01*
X123314796Y-97256702D01*
X123455469Y-97116030D01*
X123510701Y-97070702D01*
X123556030Y-97015469D01*
X123556040Y-97015459D01*
X123691625Y-96850247D01*
X123691627Y-96850245D01*
X123826065Y-96598730D01*
X123908851Y-96325818D01*
X123929800Y-96113122D01*
X123929800Y-96113112D01*
X123936804Y-96042000D01*
X123929800Y-95970888D01*
X123929800Y-95879698D01*
X124097699Y-95711800D01*
X124203751Y-95711800D01*
X124172429Y-95777996D01*
X124103700Y-96052184D01*
X124089783Y-96334512D01*
X124131213Y-96614130D01*
X124226397Y-96880292D01*
X124293329Y-97005514D01*
X124537298Y-97077097D01*
X125350395Y-96264000D01*
X125336253Y-96249858D01*
X125515858Y-96070253D01*
X125530000Y-96084395D01*
X125544143Y-96070253D01*
X125723748Y-96249858D01*
X125709605Y-96264000D01*
X126522702Y-97077097D01*
X126766671Y-97005514D01*
X126887571Y-96750004D01*
X126956300Y-96475816D01*
X126970217Y-96193488D01*
X126928787Y-95913870D01*
X126833603Y-95647708D01*
X126766671Y-95522486D01*
X126522704Y-95450903D01*
X126638977Y-95334630D01*
X126575987Y-95271640D01*
X126739626Y-95072246D01*
X126874065Y-94820730D01*
X126956851Y-94547818D01*
X126984805Y-94264000D01*
X126956851Y-93980182D01*
X126874065Y-93707270D01*
X126739626Y-93455754D01*
X126558702Y-93235298D01*
X126338246Y-93054374D01*
X126086730Y-92919935D01*
X125813818Y-92837149D01*
X125601122Y-92816200D01*
X123569112Y-92816200D01*
X123498000Y-92809196D01*
X123426888Y-92816200D01*
X123426878Y-92816200D01*
X123214182Y-92837149D01*
X122941270Y-92919935D01*
X122689754Y-93054374D01*
X122689752Y-93054375D01*
X122689753Y-93054375D01*
X122524541Y-93189960D01*
X122524535Y-93189966D01*
X122469298Y-93235298D01*
X122423966Y-93290535D01*
X121508535Y-94205967D01*
X121453299Y-94251298D01*
X121407966Y-94306536D01*
X121407960Y-94306542D01*
X121344451Y-94383929D01*
X121272374Y-94471754D01*
X121137935Y-94723270D01*
X121055149Y-94996182D01*
X121034200Y-95208878D01*
X121034200Y-95208888D01*
X121027196Y-95280000D01*
X121034200Y-95351112D01*
X121034200Y-95442301D01*
X120866302Y-95610200D01*
X117131230Y-95610200D01*
X117332775Y-95308566D01*
X117478639Y-94956419D01*
X117553000Y-94582581D01*
X117553000Y-94201419D01*
X117478639Y-93827581D01*
X117332775Y-93475434D01*
X117121013Y-93158509D01*
X116851491Y-92888987D01*
X116534566Y-92677225D01*
X116182419Y-92531361D01*
X115808581Y-92457000D01*
X115427419Y-92457000D01*
X115053581Y-92531361D01*
X114701434Y-92677225D01*
X114384509Y-92888987D01*
X114114987Y-93158509D01*
X113903225Y-93475434D01*
X113757361Y-93827581D01*
X113683000Y-94201419D01*
X113683000Y-94582581D01*
X113757361Y-94956419D01*
X113903225Y-95308566D01*
X114104770Y-95610200D01*
X107313104Y-95610200D01*
X107241999Y-95603197D01*
X107170895Y-95610200D01*
X107170878Y-95610200D01*
X106958182Y-95631149D01*
X106685270Y-95713935D01*
X106433754Y-95848374D01*
X106433752Y-95848375D01*
X106433753Y-95848375D01*
X106294347Y-95962783D01*
X106213298Y-96029298D01*
X106167962Y-96084540D01*
X105079000Y-97173502D01*
X105079000Y-91041224D01*
X111448381Y-91041224D01*
X111580317Y-91336312D01*
X111921045Y-91507159D01*
X112288557Y-91608250D01*
X112668729Y-91635701D01*
X113046951Y-91588457D01*
X113408690Y-91468333D01*
X113655683Y-91336312D01*
X113787619Y-91041224D01*
X112618000Y-89871605D01*
X111448381Y-91041224D01*
X105079000Y-91041224D01*
X105079000Y-89742729D01*
X110674299Y-89742729D01*
X110721543Y-90120951D01*
X110841667Y-90482690D01*
X110973688Y-90729683D01*
X111268776Y-90861619D01*
X112438395Y-89692000D01*
X112797605Y-89692000D01*
X113967224Y-90861619D01*
X114262312Y-90729683D01*
X114433159Y-90388955D01*
X114534250Y-90021443D01*
X114561701Y-89641271D01*
X114514457Y-89263049D01*
X114394333Y-88901310D01*
X114262312Y-88654317D01*
X113967224Y-88522381D01*
X112797605Y-89692000D01*
X112438395Y-89692000D01*
X111268776Y-88522381D01*
X110973688Y-88654317D01*
X110802841Y-88995045D01*
X110701750Y-89362557D01*
X110674299Y-89742729D01*
X105079000Y-89742729D01*
X105079000Y-88342776D01*
X111448381Y-88342776D01*
X112618000Y-89512395D01*
X113738395Y-88392000D01*
X116679928Y-88392000D01*
X116679928Y-90992000D01*
X116692188Y-91116482D01*
X116728498Y-91236180D01*
X116787463Y-91346494D01*
X116866815Y-91443185D01*
X116963506Y-91522537D01*
X117073820Y-91581502D01*
X117193518Y-91617812D01*
X117318000Y-91630072D01*
X119918000Y-91630072D01*
X120042482Y-91617812D01*
X120162180Y-91581502D01*
X120272494Y-91522537D01*
X120369185Y-91443185D01*
X120448537Y-91346494D01*
X120507502Y-91236180D01*
X120543812Y-91116482D01*
X120556072Y-90992000D01*
X120556072Y-88778512D01*
X124089783Y-88778512D01*
X124131213Y-89058130D01*
X124226397Y-89324292D01*
X124293329Y-89449514D01*
X124537296Y-89521097D01*
X124421023Y-89637370D01*
X124496129Y-89712476D01*
X124415363Y-89793241D01*
X124258320Y-90028273D01*
X124150147Y-90289426D01*
X124095000Y-90566665D01*
X124095000Y-90849335D01*
X124150147Y-91126574D01*
X124258320Y-91387727D01*
X124415363Y-91622759D01*
X124615241Y-91822637D01*
X124850273Y-91979680D01*
X125111426Y-92087853D01*
X125388665Y-92143000D01*
X125671335Y-92143000D01*
X125948574Y-92087853D01*
X126209727Y-91979680D01*
X126444759Y-91822637D01*
X126644637Y-91622759D01*
X126801680Y-91387727D01*
X126909853Y-91126574D01*
X126965000Y-90849335D01*
X126965000Y-90566665D01*
X126909853Y-90289426D01*
X126801680Y-90028273D01*
X126795158Y-90018512D01*
X144355783Y-90018512D01*
X144397213Y-90298130D01*
X144492397Y-90564292D01*
X144559329Y-90689514D01*
X144803296Y-90761097D01*
X144687023Y-90877370D01*
X144762129Y-90952476D01*
X144681363Y-91033241D01*
X144524320Y-91268273D01*
X144416147Y-91529426D01*
X144361000Y-91806665D01*
X144361000Y-92089335D01*
X144416147Y-92366574D01*
X144524320Y-92627727D01*
X144681363Y-92862759D01*
X144881241Y-93062637D01*
X145116273Y-93219680D01*
X145377426Y-93327853D01*
X145654665Y-93383000D01*
X145937335Y-93383000D01*
X146214574Y-93327853D01*
X146475727Y-93219680D01*
X146710759Y-93062637D01*
X146910637Y-92862759D01*
X147067680Y-92627727D01*
X147175853Y-92366574D01*
X147231000Y-92089335D01*
X147231000Y-91806665D01*
X147175853Y-91529426D01*
X147067680Y-91268273D01*
X146910637Y-91033241D01*
X146829872Y-90952476D01*
X146904977Y-90877370D01*
X146788704Y-90761097D01*
X147032671Y-90689514D01*
X147153571Y-90434004D01*
X147222300Y-90159816D01*
X147236217Y-89877488D01*
X147194787Y-89597870D01*
X147099603Y-89331708D01*
X147032671Y-89206486D01*
X146788702Y-89134903D01*
X145975605Y-89948000D01*
X145989748Y-89962143D01*
X145810143Y-90141748D01*
X145796000Y-90127605D01*
X145781858Y-90141748D01*
X145602253Y-89962143D01*
X145616395Y-89948000D01*
X144803298Y-89134903D01*
X144559329Y-89206486D01*
X144438429Y-89461996D01*
X144369700Y-89736184D01*
X144355783Y-90018512D01*
X126795158Y-90018512D01*
X126644637Y-89793241D01*
X126563872Y-89712476D01*
X126638977Y-89637370D01*
X126522704Y-89521097D01*
X126766671Y-89449514D01*
X126887571Y-89194004D01*
X126947405Y-88955298D01*
X144982903Y-88955298D01*
X145796000Y-89768395D01*
X146609097Y-88955298D01*
X146537514Y-88711329D01*
X146282004Y-88590429D01*
X146007816Y-88521700D01*
X145725488Y-88507783D01*
X145445870Y-88549213D01*
X145179708Y-88644397D01*
X145054486Y-88711329D01*
X144982903Y-88955298D01*
X126947405Y-88955298D01*
X126956300Y-88919816D01*
X126970217Y-88637488D01*
X126928787Y-88357870D01*
X126833603Y-88091708D01*
X126766671Y-87966486D01*
X126522702Y-87894903D01*
X125709605Y-88708000D01*
X125723748Y-88722143D01*
X125544143Y-88901748D01*
X125530000Y-88887605D01*
X125515858Y-88901748D01*
X125336253Y-88722143D01*
X125350395Y-88708000D01*
X124537298Y-87894903D01*
X124293329Y-87966486D01*
X124172429Y-88221996D01*
X124103700Y-88496184D01*
X124089783Y-88778512D01*
X120556072Y-88778512D01*
X120556072Y-88392000D01*
X120543812Y-88267518D01*
X120507502Y-88147820D01*
X120448537Y-88037506D01*
X120369185Y-87940815D01*
X120272494Y-87861463D01*
X120162180Y-87802498D01*
X120042482Y-87766188D01*
X119918000Y-87753928D01*
X117318000Y-87753928D01*
X117193518Y-87766188D01*
X117073820Y-87802498D01*
X116963506Y-87861463D01*
X116866815Y-87940815D01*
X116787463Y-88037506D01*
X116728498Y-88147820D01*
X116692188Y-88267518D01*
X116679928Y-88392000D01*
X113738395Y-88392000D01*
X113787619Y-88342776D01*
X113655683Y-88047688D01*
X113314955Y-87876841D01*
X112947443Y-87775750D01*
X112567271Y-87748299D01*
X112189049Y-87795543D01*
X111827310Y-87915667D01*
X111580317Y-88047688D01*
X111448381Y-88342776D01*
X105079000Y-88342776D01*
X105079000Y-87715298D01*
X124716903Y-87715298D01*
X125530000Y-88528395D01*
X126343097Y-87715298D01*
X126271514Y-87471329D01*
X126016004Y-87350429D01*
X125741816Y-87281700D01*
X125459488Y-87267783D01*
X125179870Y-87309213D01*
X124913708Y-87404397D01*
X124788486Y-87471329D01*
X124716903Y-87715298D01*
X105079000Y-87715298D01*
X105079000Y-74568000D01*
X105830928Y-74568000D01*
X105830928Y-76368000D01*
X105843188Y-76492482D01*
X105879498Y-76612180D01*
X105938463Y-76722494D01*
X106017815Y-76819185D01*
X106114506Y-76898537D01*
X106224820Y-76957502D01*
X106243127Y-76963056D01*
X106176688Y-77029495D01*
X106008701Y-77280905D01*
X105892989Y-77560257D01*
X105834000Y-77856816D01*
X105834000Y-78159184D01*
X105892989Y-78455743D01*
X106008701Y-78735095D01*
X106176688Y-78986505D01*
X106390495Y-79200312D01*
X106485703Y-79263928D01*
X106469000Y-79263928D01*
X106344518Y-79276188D01*
X106224820Y-79312498D01*
X106114506Y-79371463D01*
X106017815Y-79450815D01*
X105938463Y-79547506D01*
X105879498Y-79657820D01*
X105843188Y-79777518D01*
X105830928Y-79902000D01*
X105830928Y-81702000D01*
X105843188Y-81826482D01*
X105879498Y-81946180D01*
X105938463Y-82056494D01*
X106017815Y-82153185D01*
X106114506Y-82232537D01*
X106224820Y-82291502D01*
X106243127Y-82297056D01*
X106176688Y-82363495D01*
X106008701Y-82614905D01*
X105892989Y-82894257D01*
X105834000Y-83190816D01*
X105834000Y-83493184D01*
X105892989Y-83789743D01*
X106008701Y-84069095D01*
X106176688Y-84320505D01*
X106390495Y-84534312D01*
X106641905Y-84702299D01*
X106921257Y-84818011D01*
X107217816Y-84877000D01*
X107520184Y-84877000D01*
X107816743Y-84818011D01*
X108096095Y-84702299D01*
X108347505Y-84534312D01*
X108561312Y-84320505D01*
X108729299Y-84069095D01*
X108845011Y-83789743D01*
X108904000Y-83493184D01*
X108904000Y-83190816D01*
X108897973Y-83160512D01*
X124035783Y-83160512D01*
X124077213Y-83440130D01*
X124172397Y-83706292D01*
X124239329Y-83831514D01*
X124483296Y-83903097D01*
X124367023Y-84019370D01*
X124442129Y-84094476D01*
X124361363Y-84175241D01*
X124204320Y-84410273D01*
X124096147Y-84671426D01*
X124041000Y-84948665D01*
X124041000Y-85231335D01*
X124096147Y-85508574D01*
X124204320Y-85769727D01*
X124361363Y-86004759D01*
X124561241Y-86204637D01*
X124796273Y-86361680D01*
X125057426Y-86469853D01*
X125334665Y-86525000D01*
X125617335Y-86525000D01*
X125894574Y-86469853D01*
X126155727Y-86361680D01*
X126390759Y-86204637D01*
X126590637Y-86004759D01*
X126747680Y-85769727D01*
X126855853Y-85508574D01*
X126911000Y-85231335D01*
X126911000Y-84948665D01*
X126855853Y-84671426D01*
X126747680Y-84410273D01*
X126590637Y-84175241D01*
X126509872Y-84094476D01*
X126584977Y-84019370D01*
X126468704Y-83903097D01*
X126712671Y-83831514D01*
X126833571Y-83576004D01*
X126902300Y-83301816D01*
X126916217Y-83019488D01*
X126874787Y-82739870D01*
X126779603Y-82473708D01*
X126712671Y-82348486D01*
X126468702Y-82276903D01*
X125655605Y-83090000D01*
X125669748Y-83104143D01*
X125490143Y-83283748D01*
X125476000Y-83269605D01*
X125461858Y-83283748D01*
X125282253Y-83104143D01*
X125296395Y-83090000D01*
X124483298Y-82276903D01*
X124239329Y-82348486D01*
X124118429Y-82603996D01*
X124049700Y-82878184D01*
X124035783Y-83160512D01*
X108897973Y-83160512D01*
X108845011Y-82894257D01*
X108729299Y-82614905D01*
X108561312Y-82363495D01*
X108494873Y-82297056D01*
X108513180Y-82291502D01*
X108623494Y-82232537D01*
X108720185Y-82153185D01*
X108766050Y-82097298D01*
X124662903Y-82097298D01*
X125476000Y-82910395D01*
X126289097Y-82097298D01*
X126217514Y-81853329D01*
X125962004Y-81732429D01*
X125687816Y-81663700D01*
X125405488Y-81649783D01*
X125125870Y-81691213D01*
X124859708Y-81786397D01*
X124734486Y-81853329D01*
X124662903Y-82097298D01*
X108766050Y-82097298D01*
X108799537Y-82056494D01*
X108858502Y-81946180D01*
X108894812Y-81826482D01*
X108907072Y-81702000D01*
X108907072Y-80874512D01*
X144355783Y-80874512D01*
X144397213Y-81154130D01*
X144492397Y-81420292D01*
X144559329Y-81545514D01*
X144803296Y-81617097D01*
X144687023Y-81733370D01*
X144762129Y-81808476D01*
X144681363Y-81889241D01*
X144524320Y-82124273D01*
X144416147Y-82385426D01*
X144361000Y-82662665D01*
X144361000Y-82945335D01*
X144416147Y-83222574D01*
X144524320Y-83483727D01*
X144681363Y-83718759D01*
X144881241Y-83918637D01*
X145116273Y-84075680D01*
X145377426Y-84183853D01*
X145654665Y-84239000D01*
X145937335Y-84239000D01*
X146214574Y-84183853D01*
X146475727Y-84075680D01*
X146710759Y-83918637D01*
X146910637Y-83718759D01*
X147067680Y-83483727D01*
X147175853Y-83222574D01*
X147231000Y-82945335D01*
X147231000Y-82662665D01*
X147175853Y-82385426D01*
X147067680Y-82124273D01*
X146910637Y-81889241D01*
X146829872Y-81808476D01*
X146904977Y-81733370D01*
X146788704Y-81617097D01*
X147032671Y-81545514D01*
X147153571Y-81290004D01*
X147222300Y-81015816D01*
X147236217Y-80733488D01*
X147194787Y-80453870D01*
X147099603Y-80187708D01*
X147032671Y-80062486D01*
X146788702Y-79990903D01*
X145975605Y-80804000D01*
X145989748Y-80818143D01*
X145810143Y-80997748D01*
X145796000Y-80983605D01*
X145781858Y-80997748D01*
X145602253Y-80818143D01*
X145616395Y-80804000D01*
X144803298Y-79990903D01*
X144559329Y-80062486D01*
X144438429Y-80317996D01*
X144369700Y-80592184D01*
X144355783Y-80874512D01*
X108907072Y-80874512D01*
X108907072Y-79902000D01*
X108898139Y-79811298D01*
X144982903Y-79811298D01*
X145796000Y-80624395D01*
X146609097Y-79811298D01*
X146537514Y-79567329D01*
X146282004Y-79446429D01*
X146007816Y-79377700D01*
X145725488Y-79363783D01*
X145445870Y-79405213D01*
X145179708Y-79500397D01*
X145054486Y-79567329D01*
X144982903Y-79811298D01*
X108898139Y-79811298D01*
X108894812Y-79777518D01*
X108858502Y-79657820D01*
X108799537Y-79547506D01*
X108720185Y-79450815D01*
X108623494Y-79371463D01*
X108513180Y-79312498D01*
X108393482Y-79276188D01*
X108269000Y-79263928D01*
X108252297Y-79263928D01*
X108347505Y-79200312D01*
X108561312Y-78986505D01*
X108729299Y-78735095D01*
X108845011Y-78455743D01*
X108904000Y-78159184D01*
X108904000Y-77856816D01*
X108845011Y-77560257D01*
X108729299Y-77280905D01*
X108561312Y-77029495D01*
X108494873Y-76963056D01*
X108513180Y-76957502D01*
X108623494Y-76898537D01*
X108720185Y-76819185D01*
X108799537Y-76722494D01*
X108858502Y-76612180D01*
X108894812Y-76492482D01*
X108907072Y-76368000D01*
X108907072Y-74568000D01*
X108894812Y-74443518D01*
X108858502Y-74323820D01*
X108799537Y-74213506D01*
X108720185Y-74116815D01*
X108623494Y-74037463D01*
X108513180Y-73978498D01*
X108393482Y-73942188D01*
X108269000Y-73929928D01*
X106469000Y-73929928D01*
X106344518Y-73942188D01*
X106224820Y-73978498D01*
X106114506Y-74037463D01*
X106017815Y-74116815D01*
X105938463Y-74213506D01*
X105879498Y-74323820D01*
X105843188Y-74443518D01*
X105830928Y-74568000D01*
X105079000Y-74568000D01*
X105079000Y-65313000D01*
X195309000Y-65313000D01*
X195309001Y-152543000D01*
G37*
X195309001Y-152543000D02*
X105079000Y-152543000D01*
X105079000Y-133496000D01*
X105830928Y-133496000D01*
X105830928Y-135296000D01*
X105843188Y-135420482D01*
X105879498Y-135540180D01*
X105938463Y-135650494D01*
X106017815Y-135747185D01*
X106114506Y-135826537D01*
X106224820Y-135885502D01*
X106243127Y-135891056D01*
X106176688Y-135957495D01*
X106008701Y-136208905D01*
X105892989Y-136488257D01*
X105834000Y-136784816D01*
X105834000Y-137087184D01*
X105892989Y-137383743D01*
X106008701Y-137663095D01*
X106176688Y-137914505D01*
X106390495Y-138128312D01*
X106485703Y-138191928D01*
X106469000Y-138191928D01*
X106344518Y-138204188D01*
X106224820Y-138240498D01*
X106114506Y-138299463D01*
X106017815Y-138378815D01*
X105938463Y-138475506D01*
X105879498Y-138585820D01*
X105843188Y-138705518D01*
X105830928Y-138830000D01*
X105830928Y-140630000D01*
X105843188Y-140754482D01*
X105879498Y-140874180D01*
X105938463Y-140984494D01*
X106017815Y-141081185D01*
X106114506Y-141160537D01*
X106224820Y-141219502D01*
X106243127Y-141225056D01*
X106176688Y-141291495D01*
X106008701Y-141542905D01*
X105892989Y-141822257D01*
X105834000Y-142118816D01*
X105834000Y-142421184D01*
X105892989Y-142717743D01*
X106008701Y-142997095D01*
X106176688Y-143248505D01*
X106390495Y-143462312D01*
X106641905Y-143630299D01*
X106921257Y-143746011D01*
X107217816Y-143805000D01*
X107520184Y-143805000D01*
X107816743Y-143746011D01*
X108096095Y-143630299D01*
X108347505Y-143462312D01*
X108561312Y-143248505D01*
X108729299Y-142997095D01*
X108845011Y-142717743D01*
X108904000Y-142421184D01*
X108904000Y-142118816D01*
X108845011Y-141822257D01*
X108729299Y-141542905D01*
X108561312Y-141291495D01*
X108494873Y-141225056D01*
X108513180Y-141219502D01*
X108623494Y-141160537D01*
X108720185Y-141081185D01*
X108799537Y-140984494D01*
X108858502Y-140874180D01*
X108894812Y-140754482D01*
X108907072Y-140630000D01*
X108907072Y-138830000D01*
X108894812Y-138705518D01*
X108858502Y-138585820D01*
X108799537Y-138475506D01*
X108720185Y-138378815D01*
X108623494Y-138299463D01*
X108513180Y-138240498D01*
X108393482Y-138204188D01*
X108269000Y-138191928D01*
X108252297Y-138191928D01*
X108347505Y-138128312D01*
X108561312Y-137914505D01*
X108729299Y-137663095D01*
X108845011Y-137383743D01*
X108904000Y-137087184D01*
X108904000Y-136784816D01*
X108845011Y-136488257D01*
X108729299Y-136208905D01*
X108561312Y-135957495D01*
X108494873Y-135891056D01*
X108513180Y-135885502D01*
X108623494Y-135826537D01*
X108720185Y-135747185D01*
X108799537Y-135650494D01*
X108858502Y-135540180D01*
X108894812Y-135420482D01*
X108907072Y-135296000D01*
X108907072Y-133496000D01*
X108894812Y-133371518D01*
X108858502Y-133251820D01*
X108799537Y-133141506D01*
X108720185Y-133044815D01*
X108623494Y-132965463D01*
X108513180Y-132906498D01*
X108393482Y-132870188D01*
X108269000Y-132857928D01*
X106469000Y-132857928D01*
X106344518Y-132870188D01*
X106224820Y-132906498D01*
X106114506Y-132965463D01*
X106017815Y-133044815D01*
X105938463Y-133141506D01*
X105879498Y-133251820D01*
X105843188Y-133371518D01*
X105830928Y-133496000D01*
X105079000Y-133496000D01*
X105079000Y-130576003D01*
X108239573Y-130576003D01*
X108319947Y-130873368D01*
X108518388Y-131297439D01*
X108795748Y-131674648D01*
X109141369Y-131990498D01*
X109541968Y-132232852D01*
X109982150Y-132392396D01*
X110445000Y-132463000D01*
X112195000Y-132463000D01*
X112195000Y-130205000D01*
X112449000Y-130205000D01*
X112449000Y-132463000D01*
X114199000Y-132463000D01*
X114661850Y-132392396D01*
X115102032Y-132232852D01*
X115502631Y-131990498D01*
X115848252Y-131674648D01*
X116125612Y-131297439D01*
X116324053Y-130873368D01*
X116404427Y-130576003D01*
X116294625Y-130205000D01*
X112449000Y-130205000D01*
X112195000Y-130205000D01*
X108349375Y-130205000D01*
X108239573Y-130576003D01*
X105079000Y-130576003D01*
X105079000Y-129579997D01*
X108239573Y-129579997D01*
X108349375Y-129951000D01*
X112195000Y-129951000D01*
X112195000Y-127693000D01*
X112449000Y-127693000D01*
X112449000Y-129951000D01*
X116294625Y-129951000D01*
X116404427Y-129579997D01*
X116324053Y-129282632D01*
X116125612Y-128858561D01*
X115848252Y-128481352D01*
X115502631Y-128165502D01*
X115102032Y-127923148D01*
X115002408Y-127887039D01*
X115560096Y-127887039D01*
X115577633Y-127969818D01*
X115688285Y-128229646D01*
X115847500Y-128462895D01*
X116049161Y-128660601D01*
X116285517Y-128815166D01*
X116547486Y-128920650D01*
X116825000Y-128973000D01*
X117275000Y-128973000D01*
X117275000Y-127665000D01*
X115682085Y-127665000D01*
X115560096Y-127887039D01*
X115002408Y-127887039D01*
X114661850Y-127763604D01*
X114199000Y-127693000D01*
X112449000Y-127693000D01*
X112195000Y-127693000D01*
X110445000Y-127693000D01*
X109982150Y-127763604D01*
X109541968Y-127923148D01*
X109141369Y-128165502D01*
X108795748Y-128481352D01*
X108518388Y-128858561D01*
X108319947Y-129282632D01*
X108239573Y-129579997D01*
X105079000Y-129579997D01*
X105079000Y-120416003D01*
X108239573Y-120416003D01*
X108319947Y-120713368D01*
X108518388Y-121137439D01*
X108795748Y-121514648D01*
X109141369Y-121830498D01*
X109541968Y-122072852D01*
X109982150Y-122232396D01*
X110445000Y-122303000D01*
X112195000Y-122303000D01*
X112195000Y-120045000D01*
X112449000Y-120045000D01*
X112449000Y-122303000D01*
X114199000Y-122303000D01*
X114661850Y-122232396D01*
X115102032Y-122072852D01*
X115502631Y-121830498D01*
X115848252Y-121514648D01*
X116125612Y-121137439D01*
X116324053Y-120713368D01*
X116404427Y-120416003D01*
X116294625Y-120045000D01*
X112449000Y-120045000D01*
X112195000Y-120045000D01*
X108349375Y-120045000D01*
X108239573Y-120416003D01*
X105079000Y-120416003D01*
X105079000Y-117008498D01*
X105913960Y-117843458D01*
X105959298Y-117898702D01*
X106179754Y-118079626D01*
X106431270Y-118214065D01*
X106704182Y-118296851D01*
X106916878Y-118317800D01*
X106916887Y-118317800D01*
X106987999Y-118324804D01*
X107059111Y-118317800D01*
X108799635Y-118317800D01*
X108795748Y-118321352D01*
X108518388Y-118698561D01*
X108319947Y-119122632D01*
X108239573Y-119419997D01*
X108349375Y-119791000D01*
X112195000Y-119791000D01*
X112195000Y-119771000D01*
X112449000Y-119771000D01*
X112449000Y-119791000D01*
X116294625Y-119791000D01*
X116404427Y-119419997D01*
X116324053Y-119122632D01*
X116125612Y-118698561D01*
X115848252Y-118321352D01*
X115844365Y-118317800D01*
X116776489Y-118317800D01*
X116725063Y-118369226D01*
X116611795Y-118538744D01*
X116533774Y-118727102D01*
X116494000Y-118927061D01*
X116494000Y-119130939D01*
X116533774Y-119330898D01*
X116611795Y-119519256D01*
X116725063Y-119688774D01*
X116869226Y-119832937D01*
X117038744Y-119946205D01*
X117227102Y-120024226D01*
X117427061Y-120064000D01*
X117630939Y-120064000D01*
X117830898Y-120024226D01*
X118019256Y-119946205D01*
X118137496Y-119867200D01*
X118256111Y-119867200D01*
X118395791Y-120006881D01*
X118395791Y-123663386D01*
X118133309Y-123583764D01*
X117922492Y-123563000D01*
X116881508Y-123563000D01*
X116670691Y-123583764D01*
X116400192Y-123665818D01*
X116150899Y-123799068D01*
X115932392Y-123978392D01*
X115753068Y-124196899D01*
X115619818Y-124446192D01*
X115537764Y-124716691D01*
X115510057Y-124998000D01*
X115537764Y-125279309D01*
X115619818Y-125549808D01*
X115753068Y-125799101D01*
X115932392Y-126017608D01*
X116150899Y-126196932D01*
X116278741Y-126265265D01*
X116049161Y-126415399D01*
X115847500Y-126613105D01*
X115688285Y-126846354D01*
X115577633Y-127106182D01*
X115560096Y-127188961D01*
X115682085Y-127411000D01*
X117275000Y-127411000D01*
X117275000Y-127391000D01*
X117529000Y-127391000D01*
X117529000Y-127411000D01*
X117549000Y-127411000D01*
X117549000Y-127665000D01*
X117529000Y-127665000D01*
X117529000Y-128973000D01*
X117979000Y-128973000D01*
X118256514Y-128920650D01*
X118395790Y-128864569D01*
X118395790Y-134027827D01*
X118391736Y-134068990D01*
X118395790Y-134110153D01*
X118395790Y-134110159D01*
X118407919Y-134233305D01*
X118455848Y-134391306D01*
X118533681Y-134536921D01*
X118638426Y-134664554D01*
X118670408Y-134690801D01*
X119447193Y-135467587D01*
X119473436Y-135499564D01*
X119505412Y-135525806D01*
X119505414Y-135525808D01*
X119541158Y-135555142D01*
X119601068Y-135604309D01*
X119746683Y-135682142D01*
X119904684Y-135730071D01*
X120027830Y-135742200D01*
X120027839Y-135742200D01*
X120068999Y-135746254D01*
X120110159Y-135742200D01*
X132854837Y-135742200D01*
X132896000Y-135746254D01*
X132937163Y-135742200D01*
X132937170Y-135742200D01*
X133060316Y-135730071D01*
X133166771Y-135697778D01*
X133346502Y-135772226D01*
X133546461Y-135812000D01*
X133750339Y-135812000D01*
X133950298Y-135772226D01*
X134138656Y-135694205D01*
X134308174Y-135580937D01*
X134452337Y-135436774D01*
X134565605Y-135267256D01*
X134643626Y-135078898D01*
X134683400Y-134878939D01*
X134683400Y-134675061D01*
X134643626Y-134475102D01*
X134565605Y-134286744D01*
X134452337Y-134117226D01*
X134308174Y-133973063D01*
X134138656Y-133859795D01*
X133950298Y-133781774D01*
X133750339Y-133742000D01*
X133546461Y-133742000D01*
X133346502Y-133781774D01*
X133158144Y-133859795D01*
X133043020Y-133936718D01*
X133022999Y-133934746D01*
X132981837Y-133938800D01*
X132981830Y-133938800D01*
X132858684Y-133950929D01*
X132700683Y-133998858D01*
X132575444Y-134065800D01*
X120416194Y-134065800D01*
X120072190Y-133721797D01*
X120072190Y-132509689D01*
X120391966Y-132829465D01*
X120437298Y-132884702D01*
X120492535Y-132930034D01*
X120492541Y-132930040D01*
X120598191Y-133016744D01*
X120657754Y-133065626D01*
X120909270Y-133200065D01*
X121182182Y-133282851D01*
X121394878Y-133303800D01*
X121394888Y-133303800D01*
X121466000Y-133310804D01*
X121537112Y-133303800D01*
X129157122Y-133303800D01*
X129369818Y-133282851D01*
X129642730Y-133200065D01*
X129894246Y-133065626D01*
X130114702Y-132884702D01*
X130295626Y-132664246D01*
X130430065Y-132412730D01*
X130512851Y-132139818D01*
X130540805Y-131856000D01*
X130512851Y-131572182D01*
X130430065Y-131299270D01*
X130295626Y-131047754D01*
X130114702Y-130827298D01*
X129894246Y-130646374D01*
X129642730Y-130511935D01*
X129369818Y-130429149D01*
X129157122Y-130408200D01*
X122065699Y-130408200D01*
X121897800Y-130240302D01*
X121897800Y-128575810D01*
X133022036Y-128575810D01*
X133030728Y-128637337D01*
X133123725Y-128846882D01*
X133255816Y-129034258D01*
X133421924Y-129192264D01*
X133615666Y-129314828D01*
X133829596Y-129397239D01*
X134055493Y-129436331D01*
X134239000Y-129276598D01*
X134239000Y-128397000D01*
X134493000Y-128397000D01*
X134493000Y-129276598D01*
X134676507Y-129436331D01*
X134902404Y-129397239D01*
X135116334Y-129314828D01*
X135310076Y-129192264D01*
X135476184Y-129034258D01*
X135608275Y-128846882D01*
X135701272Y-128637337D01*
X135709964Y-128575810D01*
X135584163Y-128397000D01*
X134493000Y-128397000D01*
X134239000Y-128397000D01*
X133147837Y-128397000D01*
X133022036Y-128575810D01*
X121897800Y-128575810D01*
X121897800Y-128194016D01*
X121942057Y-128247943D01*
X122100630Y-128378081D01*
X122281546Y-128474783D01*
X122477850Y-128534331D01*
X122630848Y-128549400D01*
X131369152Y-128549400D01*
X131522150Y-128534331D01*
X131718454Y-128474783D01*
X131899370Y-128378081D01*
X132057943Y-128247943D01*
X132188081Y-128089370D01*
X132284783Y-127908454D01*
X132344331Y-127712150D01*
X132364438Y-127508000D01*
X132344331Y-127303850D01*
X132284783Y-127107546D01*
X132188081Y-126926630D01*
X132057943Y-126768057D01*
X131899370Y-126637919D01*
X131718454Y-126541217D01*
X131522150Y-126481669D01*
X131369152Y-126466600D01*
X122630848Y-126466600D01*
X122477850Y-126481669D01*
X122281546Y-126541217D01*
X122100630Y-126637919D01*
X121942057Y-126768057D01*
X121897800Y-126821984D01*
X121897800Y-119227111D01*
X121904804Y-119155999D01*
X121897800Y-119084887D01*
X121897800Y-119084878D01*
X121876851Y-118872182D01*
X121794065Y-118599270D01*
X121659626Y-118347754D01*
X121478702Y-118127298D01*
X121423460Y-118081962D01*
X119371731Y-116030233D01*
X119532759Y-115922637D01*
X119732637Y-115722759D01*
X119888000Y-115490241D01*
X120043363Y-115722759D01*
X120243241Y-115922637D01*
X120478273Y-116079680D01*
X120739426Y-116187853D01*
X121016665Y-116243000D01*
X121299335Y-116243000D01*
X121576574Y-116187853D01*
X121837727Y-116079680D01*
X122072759Y-115922637D01*
X122272637Y-115722759D01*
X122428000Y-115490241D01*
X122583363Y-115722759D01*
X122783241Y-115922637D01*
X123018273Y-116079680D01*
X123279426Y-116187853D01*
X123556665Y-116243000D01*
X123839335Y-116243000D01*
X124116574Y-116187853D01*
X124377727Y-116079680D01*
X124612759Y-115922637D01*
X124812637Y-115722759D01*
X124968000Y-115490241D01*
X125123363Y-115722759D01*
X125323241Y-115922637D01*
X125558273Y-116079680D01*
X125819426Y-116187853D01*
X126096665Y-116243000D01*
X126379335Y-116243000D01*
X126656574Y-116187853D01*
X126917727Y-116079680D01*
X127152759Y-115922637D01*
X127352637Y-115722759D01*
X127508000Y-115490241D01*
X127663363Y-115722759D01*
X127863241Y-115922637D01*
X128098273Y-116079680D01*
X128359426Y-116187853D01*
X128636665Y-116243000D01*
X128919335Y-116243000D01*
X129196574Y-116187853D01*
X129457727Y-116079680D01*
X129692759Y-115922637D01*
X129892637Y-115722759D01*
X130048000Y-115490241D01*
X130203363Y-115722759D01*
X130403241Y-115922637D01*
X130638273Y-116079680D01*
X130899426Y-116187853D01*
X131176665Y-116243000D01*
X131459335Y-116243000D01*
X131736574Y-116187853D01*
X131997727Y-116079680D01*
X132232759Y-115922637D01*
X132432637Y-115722759D01*
X132588000Y-115490241D01*
X132743363Y-115722759D01*
X132943241Y-115922637D01*
X133019800Y-115973792D01*
X133019800Y-116139837D01*
X133015746Y-116181000D01*
X133019800Y-116222163D01*
X133019800Y-116222169D01*
X133031929Y-116345315D01*
X133079858Y-116503316D01*
X133157691Y-116648931D01*
X133262436Y-116776564D01*
X133294418Y-116802811D01*
X133417189Y-116925582D01*
X133443436Y-116957564D01*
X133571068Y-117062309D01*
X133716683Y-117140142D01*
X133874684Y-117188071D01*
X133997830Y-117200200D01*
X133997837Y-117200200D01*
X134039000Y-117204254D01*
X134080163Y-117200200D01*
X134645411Y-117200200D01*
X134645411Y-119098378D01*
X134469850Y-119115669D01*
X134273546Y-119175217D01*
X134092630Y-119271919D01*
X133934057Y-119402057D01*
X133803919Y-119560630D01*
X133707217Y-119741547D01*
X133647669Y-119937851D01*
X133632600Y-120090849D01*
X133632601Y-122152839D01*
X133632600Y-122152849D01*
X133632601Y-123168849D01*
X133627563Y-123220000D01*
X133632601Y-123271151D01*
X133632601Y-123271152D01*
X133647670Y-123424150D01*
X133677444Y-123522302D01*
X133707218Y-123620455D01*
X133803919Y-123801369D01*
X133901450Y-123920211D01*
X133901454Y-123920215D01*
X133934058Y-123959943D01*
X133973786Y-123992547D01*
X134548166Y-124566928D01*
X133616000Y-124566928D01*
X133491518Y-124579188D01*
X133371820Y-124615498D01*
X133261506Y-124674463D01*
X133164815Y-124753815D01*
X133085463Y-124850506D01*
X133026498Y-124960820D01*
X132990188Y-125080518D01*
X132977928Y-125205000D01*
X132977928Y-126255000D01*
X132990188Y-126379482D01*
X133026498Y-126499180D01*
X133061093Y-126563902D01*
X132997785Y-126772600D01*
X132975388Y-127000000D01*
X132997785Y-127227400D01*
X133064115Y-127446060D01*
X133164929Y-127634669D01*
X133123725Y-127693118D01*
X133030728Y-127902663D01*
X133022036Y-127964190D01*
X133147837Y-128143000D01*
X133912891Y-128143000D01*
X133913600Y-128143215D01*
X134084021Y-128160000D01*
X134647979Y-128160000D01*
X134818400Y-128143215D01*
X134819109Y-128143000D01*
X135584163Y-128143000D01*
X135709964Y-127964190D01*
X135701272Y-127902663D01*
X135672663Y-127838200D01*
X135932837Y-127838200D01*
X135974000Y-127842254D01*
X136015163Y-127838200D01*
X136015170Y-127838200D01*
X136138316Y-127826071D01*
X136296317Y-127778142D01*
X136441932Y-127700309D01*
X136569564Y-127595564D01*
X136595811Y-127563582D01*
X136888583Y-127270810D01*
X136920564Y-127244564D01*
X137025309Y-127116932D01*
X137103142Y-126971317D01*
X137151071Y-126813316D01*
X137163200Y-126690170D01*
X137163200Y-126690163D01*
X137167254Y-126649000D01*
X137163200Y-126607837D01*
X137163200Y-125853810D01*
X139075965Y-125853810D01*
X139117128Y-125857864D01*
X139158291Y-125853810D01*
X139158298Y-125853810D01*
X139281444Y-125841681D01*
X139439445Y-125793752D01*
X139585060Y-125715919D01*
X139712692Y-125611174D01*
X139738939Y-125579192D01*
X140111193Y-125206938D01*
X140143174Y-125180692D01*
X140247919Y-125053060D01*
X140325752Y-124907445D01*
X140373681Y-124749444D01*
X140385810Y-124626298D01*
X140385810Y-124626289D01*
X140389864Y-124585129D01*
X140385810Y-124543969D01*
X140385810Y-123911819D01*
X140389865Y-123870649D01*
X140373681Y-123706333D01*
X140325752Y-123548332D01*
X140247919Y-123402717D01*
X140247382Y-123402063D01*
X140143174Y-123275085D01*
X140111187Y-123248834D01*
X139695162Y-122832808D01*
X139668915Y-122800826D01*
X139541283Y-122696081D01*
X139395668Y-122618248D01*
X139237667Y-122570319D01*
X139114521Y-122558190D01*
X139114514Y-122558190D01*
X139073351Y-122554136D01*
X139032188Y-122558190D01*
X136342543Y-122558190D01*
X136321810Y-122537457D01*
X136321810Y-122356061D01*
X142529000Y-122356061D01*
X142529000Y-122559939D01*
X142568774Y-122759898D01*
X142646795Y-122948256D01*
X142760063Y-123117774D01*
X142904226Y-123261937D01*
X143073744Y-123375205D01*
X143262102Y-123453226D01*
X143462061Y-123493000D01*
X143665939Y-123493000D01*
X143865898Y-123453226D01*
X144054256Y-123375205D01*
X144172496Y-123296200D01*
X144792837Y-123296200D01*
X144834000Y-123300254D01*
X144875163Y-123296200D01*
X144875170Y-123296200D01*
X144998316Y-123284071D01*
X145156317Y-123236142D01*
X145301932Y-123158309D01*
X145429564Y-123053564D01*
X145455811Y-123021583D01*
X146105587Y-122371807D01*
X146137564Y-122345564D01*
X146172496Y-122303000D01*
X146242309Y-122217932D01*
X146275358Y-122156102D01*
X146320142Y-122072317D01*
X146368071Y-121914316D01*
X146380200Y-121791170D01*
X146380200Y-121791161D01*
X146384254Y-121750001D01*
X146380200Y-121708841D01*
X146380200Y-117890788D01*
X146459205Y-117772548D01*
X146537226Y-117584190D01*
X146577000Y-117384231D01*
X146577000Y-117180353D01*
X146537226Y-116980394D01*
X146459205Y-116792036D01*
X146345937Y-116622518D01*
X146201774Y-116478355D01*
X146032256Y-116365087D01*
X145843898Y-116287066D01*
X145643939Y-116247292D01*
X145440061Y-116247292D01*
X145240102Y-116287066D01*
X145051744Y-116365087D01*
X144882226Y-116478355D01*
X144738063Y-116622518D01*
X144624795Y-116792036D01*
X144546774Y-116980394D01*
X144507000Y-117180353D01*
X144507000Y-117384231D01*
X144546774Y-117584190D01*
X144624795Y-117772548D01*
X144703801Y-117890789D01*
X144703800Y-120076830D01*
X144703800Y-120076831D01*
X144703801Y-121402806D01*
X144486807Y-121619800D01*
X144172496Y-121619800D01*
X144054256Y-121540795D01*
X143865898Y-121462774D01*
X143665939Y-121423000D01*
X143462061Y-121423000D01*
X143262102Y-121462774D01*
X143073744Y-121540795D01*
X142904226Y-121654063D01*
X142760063Y-121798226D01*
X142646795Y-121967744D01*
X142568774Y-122156102D01*
X142529000Y-122356061D01*
X136321810Y-122356061D01*
X136321810Y-116704773D01*
X136325864Y-116663610D01*
X136321810Y-116622447D01*
X136321810Y-116622440D01*
X136309681Y-116499294D01*
X136261752Y-116341293D01*
X136203568Y-116232438D01*
X136256665Y-116243000D01*
X136539335Y-116243000D01*
X136816574Y-116187853D01*
X137077727Y-116079680D01*
X137312759Y-115922637D01*
X137512637Y-115722759D01*
X137668000Y-115490241D01*
X137823363Y-115722759D01*
X138023241Y-115922637D01*
X138258273Y-116079680D01*
X138519426Y-116187853D01*
X138796665Y-116243000D01*
X139079335Y-116243000D01*
X139356574Y-116187853D01*
X139617727Y-116079680D01*
X139852759Y-115922637D01*
X140052637Y-115722759D01*
X140209680Y-115487727D01*
X140214067Y-115477135D01*
X140325615Y-115663131D01*
X140514586Y-115871519D01*
X140740580Y-116039037D01*
X140994913Y-116159246D01*
X141128961Y-116199904D01*
X141351000Y-116077915D01*
X141351000Y-114935000D01*
X141331000Y-114935000D01*
X141331000Y-114681000D01*
X141351000Y-114681000D01*
X141351000Y-114661000D01*
X141605000Y-114661000D01*
X141605000Y-114681000D01*
X141625000Y-114681000D01*
X141625000Y-114935000D01*
X141605000Y-114935000D01*
X141605000Y-116077915D01*
X141827039Y-116199904D01*
X141961087Y-116159246D01*
X142215420Y-116039037D01*
X142441414Y-115871519D01*
X142630385Y-115663131D01*
X142741933Y-115477135D01*
X142746320Y-115487727D01*
X142903363Y-115722759D01*
X143103241Y-115922637D01*
X143338273Y-116079680D01*
X143599426Y-116187853D01*
X143876665Y-116243000D01*
X144159335Y-116243000D01*
X144436574Y-116187853D01*
X144697727Y-116079680D01*
X144932759Y-115922637D01*
X145132637Y-115722759D01*
X145289680Y-115487727D01*
X145397853Y-115226574D01*
X145453000Y-114949335D01*
X145453000Y-114666665D01*
X145397853Y-114389426D01*
X145297625Y-114147454D01*
X147669368Y-114147454D01*
X147669369Y-119994395D01*
X147665314Y-120035568D01*
X147681497Y-120199883D01*
X147729426Y-120357884D01*
X147807259Y-120503499D01*
X147885389Y-120598700D01*
X147912005Y-120631132D01*
X147943981Y-120657374D01*
X149624035Y-122337428D01*
X149422000Y-122337428D01*
X149297518Y-122349688D01*
X149177820Y-122385998D01*
X149067506Y-122444963D01*
X148970815Y-122524315D01*
X148891463Y-122621006D01*
X148832498Y-122731320D01*
X148796188Y-122851018D01*
X148783928Y-122975500D01*
X148783928Y-124880500D01*
X148796188Y-125004982D01*
X148799443Y-125015713D01*
X148753887Y-125020200D01*
X148753878Y-125020200D01*
X148541182Y-125041149D01*
X148268270Y-125123935D01*
X148016754Y-125258374D01*
X148016752Y-125258375D01*
X148016753Y-125258375D01*
X147851541Y-125393960D01*
X147851535Y-125393966D01*
X147796298Y-125439298D01*
X147750966Y-125494535D01*
X146458913Y-126786588D01*
X146300368Y-126892525D01*
X146168513Y-127024380D01*
X146146502Y-126951820D01*
X146087537Y-126841506D01*
X146008185Y-126744815D01*
X145911494Y-126665463D01*
X145801180Y-126606498D01*
X145681482Y-126570188D01*
X145557000Y-126557928D01*
X143857000Y-126557928D01*
X143732518Y-126570188D01*
X143612820Y-126606498D01*
X143502506Y-126665463D01*
X143405815Y-126744815D01*
X143326463Y-126841506D01*
X143267498Y-126951820D01*
X143231188Y-127071518D01*
X143218928Y-127196000D01*
X143218928Y-128896000D01*
X143231188Y-129020482D01*
X143259201Y-129112828D01*
X143259200Y-132292888D01*
X143252196Y-132364000D01*
X143259200Y-132435112D01*
X143259200Y-132435121D01*
X143280149Y-132647817D01*
X143362935Y-132920729D01*
X143483140Y-133145614D01*
X143497375Y-133172246D01*
X143632960Y-133337458D01*
X143632966Y-133337464D01*
X143678298Y-133392701D01*
X143733536Y-133438034D01*
X144775962Y-134480460D01*
X144821298Y-134535702D01*
X144876540Y-134581038D01*
X144876541Y-134581039D01*
X144877326Y-134581683D01*
X145041754Y-134716626D01*
X145293270Y-134851065D01*
X145566182Y-134933851D01*
X145778878Y-134954800D01*
X145778887Y-134954800D01*
X145849999Y-134961804D01*
X145921111Y-134954800D01*
X147831200Y-134954800D01*
X147831201Y-139594722D01*
X147492723Y-139933200D01*
X139681707Y-139933200D01*
X139547898Y-139877774D01*
X139347939Y-139838000D01*
X139144061Y-139838000D01*
X138944102Y-139877774D01*
X138755744Y-139955795D01*
X138586226Y-140069063D01*
X138442063Y-140213226D01*
X138328795Y-140382744D01*
X138250774Y-140571102D01*
X138211000Y-140771061D01*
X138211000Y-140974939D01*
X138250774Y-141174898D01*
X138328795Y-141363256D01*
X138442063Y-141532774D01*
X138586226Y-141676937D01*
X138755744Y-141790205D01*
X138944102Y-141868226D01*
X139144061Y-141908000D01*
X139347939Y-141908000D01*
X139547898Y-141868226D01*
X139681707Y-141812800D01*
X147835843Y-141812800D01*
X147882000Y-141817346D01*
X147928157Y-141812800D01*
X147928167Y-141812800D01*
X148066233Y-141799202D01*
X148243386Y-141745463D01*
X148406651Y-141658196D01*
X148549754Y-141540754D01*
X148579191Y-141504886D01*
X149402895Y-140681183D01*
X149438754Y-140651754D01*
X149504944Y-140571102D01*
X149556196Y-140508652D01*
X149643463Y-140345386D01*
X149697202Y-140168233D01*
X149710800Y-140030167D01*
X149710800Y-140030157D01*
X149715346Y-139984000D01*
X149710800Y-139937843D01*
X149710800Y-134608662D01*
X149799702Y-134535702D01*
X149980626Y-134315246D01*
X150115065Y-134063730D01*
X150197851Y-133790818D01*
X150225805Y-133507000D01*
X150197851Y-133223182D01*
X150115065Y-132950270D01*
X149980626Y-132698754D01*
X149799702Y-132478298D01*
X149579246Y-132297374D01*
X149327730Y-132162935D01*
X149054818Y-132080149D01*
X148842122Y-132059200D01*
X146449698Y-132059200D01*
X146154800Y-131764302D01*
X146154800Y-129112825D01*
X146168513Y-129067620D01*
X146300368Y-129199475D01*
X146543589Y-129361990D01*
X146813842Y-129473932D01*
X147100740Y-129531000D01*
X147393260Y-129531000D01*
X147680158Y-129473932D01*
X147904564Y-129380980D01*
X148831437Y-129380980D01*
X148902429Y-129599094D01*
X149046031Y-129874923D01*
X149240685Y-130117437D01*
X149478911Y-130317316D01*
X149751554Y-130466879D01*
X150048137Y-130560378D01*
X150295000Y-130433570D01*
X150295000Y-129135000D01*
X150549000Y-129135000D01*
X150549000Y-130433570D01*
X150795863Y-130560378D01*
X151092446Y-130466879D01*
X151365089Y-130317316D01*
X151603315Y-130117437D01*
X151797969Y-129874923D01*
X151941571Y-129599094D01*
X152012563Y-129380980D01*
X151892594Y-129135000D01*
X150549000Y-129135000D01*
X150295000Y-129135000D01*
X148951406Y-129135000D01*
X148831437Y-129380980D01*
X147904564Y-129380980D01*
X147950411Y-129361990D01*
X148193632Y-129199475D01*
X148400475Y-128992632D01*
X148506412Y-128834087D01*
X148892217Y-128448282D01*
X148831437Y-128635020D01*
X148951406Y-128881000D01*
X150295000Y-128881000D01*
X150295000Y-128861000D01*
X150549000Y-128861000D01*
X150549000Y-128881000D01*
X151892594Y-128881000D01*
X152012563Y-128635020D01*
X151941571Y-128416906D01*
X151797969Y-128141077D01*
X151603315Y-127898563D01*
X151418101Y-127743163D01*
X151597463Y-127595963D01*
X151795845Y-127354235D01*
X151943255Y-127078449D01*
X152034030Y-126779204D01*
X152064681Y-126468000D01*
X152034030Y-126156796D01*
X151943255Y-125857551D01*
X151795845Y-125581765D01*
X151692554Y-125455905D01*
X151776494Y-125411037D01*
X151873185Y-125331685D01*
X151952537Y-125234994D01*
X152011502Y-125124680D01*
X152047812Y-125004982D01*
X152060072Y-124880500D01*
X152060072Y-122975500D01*
X152047812Y-122851018D01*
X152028757Y-122788202D01*
X157408029Y-122788202D01*
X159460643Y-124840817D01*
X159486888Y-124872796D01*
X159518864Y-124899038D01*
X159518866Y-124899040D01*
X159576018Y-124945943D01*
X159614520Y-124977541D01*
X159760135Y-125055374D01*
X159918136Y-125103303D01*
X160041282Y-125115432D01*
X160041291Y-125115432D01*
X160082451Y-125119486D01*
X160123611Y-125115432D01*
X165117342Y-125115432D01*
X164968440Y-125338279D01*
X164788654Y-125772321D01*
X164697000Y-126233098D01*
X164697000Y-126702902D01*
X164788654Y-127163679D01*
X164968440Y-127597721D01*
X165229450Y-127988349D01*
X165561651Y-128320550D01*
X165952279Y-128581560D01*
X166386321Y-128761346D01*
X166847098Y-128853000D01*
X167316902Y-128853000D01*
X167777679Y-128761346D01*
X168211721Y-128581560D01*
X168602349Y-128320550D01*
X168934550Y-127988349D01*
X169195560Y-127597721D01*
X169318800Y-127300193D01*
X170628194Y-128609588D01*
X170654436Y-128641564D01*
X170660466Y-128646513D01*
X170700063Y-128705774D01*
X170844226Y-128849937D01*
X171013744Y-128963205D01*
X171202102Y-129041226D01*
X171402061Y-129081000D01*
X171605939Y-129081000D01*
X171805898Y-129041226D01*
X171994256Y-128963205D01*
X172163774Y-128849937D01*
X172307937Y-128705774D01*
X172421205Y-128536256D01*
X172499226Y-128347898D01*
X172539000Y-128147939D01*
X172539000Y-127944061D01*
X172523910Y-127868200D01*
X172770090Y-127868200D01*
X172755000Y-127944061D01*
X172755000Y-128147939D01*
X172794774Y-128347898D01*
X172872795Y-128536256D01*
X172986063Y-128705774D01*
X173130226Y-128849937D01*
X173299744Y-128963205D01*
X173488102Y-129041226D01*
X173688061Y-129081000D01*
X173891939Y-129081000D01*
X174091898Y-129041226D01*
X174280256Y-128963205D01*
X174449774Y-128849937D01*
X174593937Y-128705774D01*
X174707205Y-128536256D01*
X174785226Y-128347898D01*
X174825000Y-128147939D01*
X174825000Y-127944061D01*
X174785226Y-127744102D01*
X174707205Y-127555744D01*
X174628200Y-127437504D01*
X174628200Y-127325159D01*
X174632254Y-127283999D01*
X174630067Y-127261790D01*
X175110800Y-127261790D01*
X175110800Y-127437504D01*
X175031795Y-127555744D01*
X174953774Y-127744102D01*
X174914000Y-127944061D01*
X174914000Y-128147939D01*
X174953774Y-128347898D01*
X175031795Y-128536256D01*
X175145063Y-128705774D01*
X175289226Y-128849937D01*
X175458744Y-128963205D01*
X175647102Y-129041226D01*
X175847061Y-129081000D01*
X176050939Y-129081000D01*
X176250898Y-129041226D01*
X176439256Y-128963205D01*
X176608774Y-128849937D01*
X176752937Y-128705774D01*
X176866205Y-128536256D01*
X176944226Y-128347898D01*
X176984000Y-128147939D01*
X176984000Y-127944061D01*
X176944226Y-127744102D01*
X176866205Y-127555744D01*
X176787200Y-127437504D01*
X176787200Y-126944162D01*
X176791254Y-126902999D01*
X176787200Y-126861836D01*
X176787200Y-126861830D01*
X176775071Y-126738684D01*
X176749801Y-126655380D01*
X177396800Y-126655380D01*
X177396801Y-127437503D01*
X177317795Y-127555744D01*
X177239774Y-127744102D01*
X177200000Y-127944061D01*
X177200000Y-128147939D01*
X177239774Y-128347898D01*
X177317795Y-128536256D01*
X177431063Y-128705774D01*
X177575226Y-128849937D01*
X177744744Y-128963205D01*
X177933102Y-129041226D01*
X178133061Y-129081000D01*
X178336939Y-129081000D01*
X178536898Y-129041226D01*
X178725256Y-128963205D01*
X178894774Y-128849937D01*
X179038937Y-128705774D01*
X179152205Y-128536256D01*
X179230226Y-128347898D01*
X179270000Y-128147939D01*
X179270000Y-127944061D01*
X179230226Y-127744102D01*
X179152205Y-127555744D01*
X179073200Y-127437504D01*
X179073200Y-126182163D01*
X179077254Y-126141000D01*
X179073200Y-126099837D01*
X179073200Y-126099830D01*
X179061071Y-125976684D01*
X179013142Y-125818683D01*
X178935309Y-125673068D01*
X178830564Y-125545436D01*
X178798583Y-125519190D01*
X178532991Y-125253598D01*
X178506744Y-125221616D01*
X178379112Y-125116871D01*
X178233497Y-125039038D01*
X178075496Y-124991109D01*
X177952350Y-124978980D01*
X177952343Y-124978980D01*
X177911180Y-124974926D01*
X177870017Y-124978980D01*
X172129430Y-124978980D01*
X172129430Y-124127205D01*
X172133484Y-124086045D01*
X172129430Y-124044885D01*
X172129430Y-124044876D01*
X172117301Y-123921730D01*
X172069372Y-123763729D01*
X171991539Y-123618114D01*
X171963349Y-123583764D01*
X171913038Y-123522460D01*
X171913036Y-123522458D01*
X171886794Y-123490482D01*
X171854819Y-123464241D01*
X170581997Y-122191420D01*
X170284991Y-121894413D01*
X170258749Y-121862437D01*
X170219832Y-121830498D01*
X170131117Y-121757692D01*
X169985503Y-121679859D01*
X169827501Y-121631930D01*
X169663186Y-121615746D01*
X169622014Y-121619801D01*
X161183195Y-121619799D01*
X159130578Y-119567183D01*
X159104338Y-119535209D01*
X159072362Y-119508967D01*
X159072359Y-119508964D01*
X158976705Y-119430463D01*
X158831090Y-119352630D01*
X158673089Y-119304701D01*
X158508774Y-119288518D01*
X158467602Y-119292573D01*
X151522745Y-119292569D01*
X151165001Y-118934826D01*
X151165001Y-114573000D01*
X151231950Y-114573000D01*
X151431909Y-114533226D01*
X151620267Y-114455205D01*
X151789785Y-114341937D01*
X151933948Y-114197774D01*
X152047216Y-114028256D01*
X152125237Y-113839898D01*
X152165011Y-113639939D01*
X152165011Y-113436061D01*
X152125237Y-113236102D01*
X152047216Y-113047744D01*
X151968211Y-112929504D01*
X151968211Y-111777174D01*
X151972265Y-111736011D01*
X151968211Y-111694848D01*
X151968211Y-111694841D01*
X151956082Y-111571695D01*
X151908153Y-111413694D01*
X151830320Y-111268079D01*
X151801531Y-111233000D01*
X151751819Y-111172425D01*
X151751817Y-111172423D01*
X151725575Y-111140447D01*
X151693599Y-111114206D01*
X151226393Y-110647000D01*
X151693587Y-110179807D01*
X151725564Y-110153564D01*
X151758949Y-110112885D01*
X151799464Y-110063517D01*
X151909744Y-110137203D01*
X152098102Y-110215224D01*
X152298061Y-110254998D01*
X152501939Y-110254998D01*
X152701898Y-110215224D01*
X152890256Y-110137203D01*
X153008493Y-110058200D01*
X154880020Y-110058200D01*
X154875929Y-110071685D01*
X154870653Y-110125247D01*
X154784795Y-110253744D01*
X154706774Y-110442102D01*
X154667000Y-110642061D01*
X154667000Y-110845939D01*
X154706774Y-111045898D01*
X154784795Y-111234256D01*
X154898063Y-111403774D01*
X155042226Y-111547937D01*
X155211744Y-111661205D01*
X155400102Y-111739226D01*
X155600061Y-111779000D01*
X155803939Y-111779000D01*
X156003898Y-111739226D01*
X156192256Y-111661205D01*
X156361774Y-111547937D01*
X156505937Y-111403774D01*
X156619205Y-111234256D01*
X156697226Y-111045898D01*
X156737000Y-110845939D01*
X156737000Y-110820200D01*
X160740837Y-110820200D01*
X160782000Y-110824254D01*
X160823163Y-110820200D01*
X160823170Y-110820200D01*
X160946316Y-110808071D01*
X161104317Y-110760142D01*
X161249932Y-110682309D01*
X161377564Y-110577564D01*
X161403811Y-110545582D01*
X161721800Y-110227593D01*
X161721801Y-119776293D01*
X161642795Y-119894534D01*
X161564774Y-120082892D01*
X161525000Y-120282851D01*
X161525000Y-120486729D01*
X161564774Y-120686688D01*
X161642795Y-120875046D01*
X161756063Y-121044564D01*
X161900226Y-121188727D01*
X162069744Y-121301995D01*
X162258102Y-121380016D01*
X162458061Y-121419790D01*
X162661939Y-121419790D01*
X162861898Y-121380016D01*
X163050256Y-121301995D01*
X163219774Y-121188727D01*
X163363937Y-121044564D01*
X163477205Y-120875046D01*
X163555226Y-120686688D01*
X163595000Y-120486729D01*
X163595000Y-120282851D01*
X163555226Y-120082892D01*
X163477205Y-119894534D01*
X163398200Y-119776294D01*
X163398200Y-112166061D01*
X163430000Y-112166061D01*
X163430000Y-112369939D01*
X163469774Y-112569898D01*
X163547795Y-112758256D01*
X163626800Y-112876496D01*
X163626801Y-119073617D01*
X163622746Y-119114790D01*
X163638929Y-119279105D01*
X163686858Y-119437106D01*
X163764691Y-119582721D01*
X163830441Y-119662837D01*
X163869437Y-119710354D01*
X163901413Y-119736596D01*
X164712031Y-120547215D01*
X164739774Y-120686688D01*
X164817795Y-120875046D01*
X164931063Y-121044564D01*
X165075226Y-121188727D01*
X165244744Y-121301995D01*
X165433102Y-121380016D01*
X165633061Y-121419790D01*
X165836939Y-121419790D01*
X166036898Y-121380016D01*
X166225256Y-121301995D01*
X166394774Y-121188727D01*
X166538937Y-121044564D01*
X166652205Y-120875046D01*
X166730226Y-120686688D01*
X166770000Y-120486729D01*
X166770000Y-120282851D01*
X166730226Y-120082892D01*
X166652205Y-119894534D01*
X166538937Y-119725016D01*
X166394774Y-119580853D01*
X166225256Y-119467585D01*
X166036898Y-119389564D01*
X165897425Y-119361821D01*
X165303200Y-118767597D01*
X165303200Y-115976061D01*
X165335000Y-115976061D01*
X165335000Y-116179939D01*
X165374774Y-116379898D01*
X165452795Y-116568256D01*
X165566063Y-116737774D01*
X165710226Y-116881937D01*
X165879744Y-116995205D01*
X166068102Y-117073226D01*
X166268061Y-117113000D01*
X166471939Y-117113000D01*
X166671898Y-117073226D01*
X166860256Y-116995205D01*
X166978496Y-116916200D01*
X189136807Y-116916200D01*
X189407800Y-117187194D01*
X189407801Y-117501504D01*
X189328795Y-117619744D01*
X189250774Y-117808102D01*
X189211000Y-118008061D01*
X189211000Y-118211939D01*
X189250774Y-118411898D01*
X189328795Y-118600256D01*
X189442063Y-118769774D01*
X189586226Y-118913937D01*
X189755744Y-119027205D01*
X189944102Y-119105226D01*
X190144061Y-119145000D01*
X190347939Y-119145000D01*
X190547898Y-119105226D01*
X190736256Y-119027205D01*
X190905774Y-118913937D01*
X191049937Y-118769774D01*
X191163205Y-118600256D01*
X191241226Y-118411898D01*
X191281000Y-118211939D01*
X191281000Y-118008061D01*
X191241226Y-117808102D01*
X191163205Y-117619744D01*
X191084200Y-117501504D01*
X191084200Y-116881163D01*
X191088254Y-116840000D01*
X191084200Y-116798837D01*
X191084200Y-116798830D01*
X191072071Y-116675684D01*
X191024142Y-116517683D01*
X190946309Y-116372068D01*
X190921053Y-116341293D01*
X190867808Y-116276414D01*
X190867806Y-116276412D01*
X190841564Y-116244436D01*
X190809588Y-116218195D01*
X190105811Y-115514417D01*
X190079564Y-115482436D01*
X189951932Y-115377691D01*
X189806317Y-115299858D01*
X189648316Y-115251929D01*
X189525170Y-115239800D01*
X189525163Y-115239800D01*
X189484000Y-115235746D01*
X189442837Y-115239800D01*
X186439910Y-115239800D01*
X186455000Y-115163939D01*
X186455000Y-114960061D01*
X186415226Y-114760102D01*
X186337205Y-114571744D01*
X186223937Y-114402226D01*
X186079774Y-114258063D01*
X185910256Y-114144795D01*
X185721898Y-114066774D01*
X185521939Y-114027000D01*
X185318061Y-114027000D01*
X185118102Y-114066774D01*
X184984293Y-114122200D01*
X175395277Y-114122200D01*
X174929800Y-113656724D01*
X174929800Y-109655707D01*
X174985226Y-109521898D01*
X175025000Y-109321939D01*
X175025000Y-109118061D01*
X174985226Y-108918102D01*
X174907205Y-108729744D01*
X174793937Y-108560226D01*
X174649774Y-108416063D01*
X174480256Y-108302795D01*
X174291898Y-108224774D01*
X174091939Y-108185000D01*
X173888061Y-108185000D01*
X173688102Y-108224774D01*
X173499744Y-108302795D01*
X173330226Y-108416063D01*
X173186063Y-108560226D01*
X173072795Y-108729744D01*
X172994774Y-108918102D01*
X172955000Y-109118061D01*
X172955000Y-109321939D01*
X172994774Y-109521898D01*
X173050201Y-109655709D01*
X173050200Y-113999843D01*
X173045654Y-114046000D01*
X173050200Y-114092157D01*
X173050200Y-114092166D01*
X173063798Y-114230232D01*
X173117537Y-114407385D01*
X173204804Y-114570651D01*
X173322246Y-114713754D01*
X173358115Y-114743191D01*
X173854723Y-115239800D01*
X166978496Y-115239800D01*
X166860256Y-115160795D01*
X166671898Y-115082774D01*
X166471939Y-115043000D01*
X166268061Y-115043000D01*
X166068102Y-115082774D01*
X165879744Y-115160795D01*
X165710226Y-115274063D01*
X165566063Y-115418226D01*
X165452795Y-115587744D01*
X165374774Y-115776102D01*
X165335000Y-115976061D01*
X165303200Y-115976061D01*
X165303200Y-112876496D01*
X165382205Y-112758256D01*
X165460226Y-112569898D01*
X165500000Y-112369939D01*
X165500000Y-112166061D01*
X165460226Y-111966102D01*
X165382205Y-111777744D01*
X165268937Y-111608226D01*
X165124774Y-111464063D01*
X164955256Y-111350795D01*
X164766898Y-111272774D01*
X164566939Y-111233000D01*
X164363061Y-111233000D01*
X164163102Y-111272774D01*
X163974744Y-111350795D01*
X163805226Y-111464063D01*
X163661063Y-111608226D01*
X163547795Y-111777744D01*
X163469774Y-111966102D01*
X163430000Y-112166061D01*
X163398200Y-112166061D01*
X163398200Y-103555193D01*
X164007194Y-102946200D01*
X165761504Y-102946200D01*
X165879744Y-103025205D01*
X166068102Y-103103226D01*
X166268061Y-103143000D01*
X166471939Y-103143000D01*
X166671898Y-103103226D01*
X166860256Y-103025205D01*
X167029774Y-102911937D01*
X167173937Y-102767774D01*
X167287205Y-102598256D01*
X167365226Y-102409898D01*
X167405000Y-102209939D01*
X167405000Y-102006061D01*
X167875000Y-102006061D01*
X167875000Y-102209939D01*
X167914774Y-102409898D01*
X167992795Y-102598256D01*
X168071801Y-102716497D01*
X168071800Y-111718837D01*
X168067746Y-111760000D01*
X168071800Y-111801163D01*
X168071800Y-111801169D01*
X168083929Y-111924315D01*
X168131858Y-112082316D01*
X168209691Y-112227931D01*
X168314436Y-112355564D01*
X168346418Y-112381811D01*
X168796189Y-112831582D01*
X168822436Y-112863564D01*
X168950068Y-112968309D01*
X169095683Y-113046142D01*
X169253684Y-113094071D01*
X169376830Y-113106200D01*
X169376839Y-113106200D01*
X169417999Y-113110254D01*
X169459159Y-113106200D01*
X169571504Y-113106200D01*
X169689744Y-113185205D01*
X169878102Y-113263226D01*
X170078061Y-113303000D01*
X170281939Y-113303000D01*
X170481898Y-113263226D01*
X170670256Y-113185205D01*
X170839774Y-113071937D01*
X170983937Y-112927774D01*
X171097205Y-112758256D01*
X171175226Y-112569898D01*
X171215000Y-112369939D01*
X171215000Y-112166061D01*
X171175226Y-111966102D01*
X171097205Y-111777744D01*
X170983937Y-111608226D01*
X170839774Y-111464063D01*
X170670256Y-111350795D01*
X170481898Y-111272774D01*
X170281939Y-111233000D01*
X170078061Y-111233000D01*
X169878102Y-111272774D01*
X169748200Y-111326582D01*
X169748200Y-102716496D01*
X169827205Y-102598256D01*
X169905226Y-102409898D01*
X169945000Y-102209939D01*
X169945000Y-102006061D01*
X169905226Y-101806102D01*
X169827205Y-101617744D01*
X169713937Y-101448226D01*
X169569774Y-101304063D01*
X169400256Y-101190795D01*
X169211898Y-101112774D01*
X169011939Y-101073000D01*
X168808061Y-101073000D01*
X168608102Y-101112774D01*
X168419744Y-101190795D01*
X168250226Y-101304063D01*
X168106063Y-101448226D01*
X167992795Y-101617744D01*
X167914774Y-101806102D01*
X167875000Y-102006061D01*
X167405000Y-102006061D01*
X167365226Y-101806102D01*
X167287205Y-101617744D01*
X167173937Y-101448226D01*
X167029774Y-101304063D01*
X166860256Y-101190795D01*
X166671898Y-101112774D01*
X166471939Y-101073000D01*
X166268061Y-101073000D01*
X166068102Y-101112774D01*
X165879744Y-101190795D01*
X165761504Y-101269800D01*
X163701163Y-101269800D01*
X163660000Y-101265746D01*
X163618837Y-101269800D01*
X163618830Y-101269800D01*
X163495684Y-101281929D01*
X163337683Y-101329858D01*
X163192068Y-101407691D01*
X163064436Y-101512436D01*
X163038193Y-101544413D01*
X161996418Y-102586189D01*
X161964436Y-102612436D01*
X161859691Y-102740069D01*
X161781858Y-102885684D01*
X161733929Y-103043685D01*
X161721800Y-103166831D01*
X161721800Y-103166837D01*
X161717746Y-103208000D01*
X161721800Y-103249163D01*
X161721800Y-105305289D01*
X161695774Y-105279263D01*
X161526256Y-105165995D01*
X161337898Y-105087974D01*
X161137939Y-105048200D01*
X160934061Y-105048200D01*
X160734102Y-105087974D01*
X160545744Y-105165995D01*
X160427504Y-105245000D01*
X156540200Y-105245000D01*
X156540200Y-103224496D01*
X156619205Y-103106256D01*
X156697226Y-102917898D01*
X156737000Y-102717939D01*
X156737000Y-102514061D01*
X156697226Y-102314102D01*
X156619205Y-102125744D01*
X156505937Y-101956226D01*
X156361774Y-101812063D01*
X156192256Y-101698795D01*
X156003898Y-101620774D01*
X155803939Y-101581000D01*
X155600061Y-101581000D01*
X155400102Y-101620774D01*
X155270200Y-101674582D01*
X155270200Y-98623163D01*
X155274254Y-98582000D01*
X155270200Y-98540837D01*
X155270200Y-98540830D01*
X155258071Y-98417684D01*
X155210142Y-98259683D01*
X155132309Y-98114068D01*
X155094560Y-98068071D01*
X155053808Y-98018414D01*
X155053806Y-98018412D01*
X155027564Y-97986436D01*
X154995587Y-97960193D01*
X154438969Y-97403575D01*
X154411226Y-97264102D01*
X154333205Y-97075744D01*
X154219937Y-96906226D01*
X154163911Y-96850200D01*
X159216837Y-96850200D01*
X159258000Y-96854254D01*
X159299163Y-96850200D01*
X159299170Y-96850200D01*
X159422316Y-96838071D01*
X159580317Y-96790142D01*
X159725932Y-96712309D01*
X159853564Y-96607564D01*
X159879811Y-96575582D01*
X162788601Y-93666793D01*
X162788601Y-94564637D01*
X162113791Y-95239448D01*
X162074057Y-95272057D01*
X161943919Y-95430630D01*
X161847217Y-95611547D01*
X161787669Y-95807851D01*
X161772600Y-95960849D01*
X161772600Y-95960859D01*
X161767563Y-96012000D01*
X161772600Y-96063142D01*
X161772601Y-97738849D01*
X161767563Y-97790000D01*
X161772601Y-97841151D01*
X161772601Y-97841152D01*
X161787670Y-97994150D01*
X161806510Y-98056256D01*
X161847218Y-98190455D01*
X161943919Y-98371369D01*
X162041450Y-98490211D01*
X162041451Y-98490212D01*
X162074058Y-98529943D01*
X162113786Y-98562547D01*
X163057452Y-99506214D01*
X163090057Y-99545943D01*
X163129785Y-99578547D01*
X163129788Y-99578550D01*
X163248630Y-99676081D01*
X163393813Y-99753683D01*
X163429546Y-99772783D01*
X163625850Y-99832331D01*
X163778848Y-99847400D01*
X163778858Y-99847400D01*
X163830000Y-99852437D01*
X163881141Y-99847400D01*
X167588859Y-99847400D01*
X167640000Y-99852437D01*
X167691141Y-99847400D01*
X167691152Y-99847400D01*
X167844150Y-99832331D01*
X168040454Y-99772783D01*
X168221370Y-99676081D01*
X168379943Y-99545943D01*
X168412552Y-99506209D01*
X169356214Y-98562548D01*
X169395943Y-98529943D01*
X169428551Y-98490211D01*
X169526081Y-98371370D01*
X169622782Y-98190456D01*
X169622783Y-98190453D01*
X169682331Y-97994150D01*
X169697400Y-97841152D01*
X169697400Y-97841142D01*
X169702437Y-97790000D01*
X169697400Y-97738859D01*
X169697400Y-94157361D01*
X170103362Y-93751400D01*
X171144859Y-93751400D01*
X171196000Y-93756437D01*
X171247141Y-93751400D01*
X171247152Y-93751400D01*
X171400150Y-93736331D01*
X171596454Y-93676783D01*
X171777370Y-93580081D01*
X171935943Y-93449943D01*
X171968552Y-93410209D01*
X173166214Y-92212548D01*
X173205943Y-92179943D01*
X173240423Y-92137930D01*
X173336081Y-92021370D01*
X173432782Y-91840456D01*
X173432945Y-91839919D01*
X173492331Y-91644150D01*
X173507400Y-91491152D01*
X173507400Y-91491142D01*
X173512437Y-91440001D01*
X173507400Y-91388859D01*
X173507400Y-90347361D01*
X173786362Y-90068400D01*
X180035639Y-90068400D01*
X180314600Y-90347362D01*
X180314601Y-112573152D01*
X180329670Y-112726150D01*
X180389218Y-112922454D01*
X180485920Y-113103370D01*
X180616058Y-113261943D01*
X180774631Y-113392081D01*
X180955547Y-113488783D01*
X181151851Y-113548331D01*
X181356000Y-113568438D01*
X181560150Y-113548331D01*
X181756454Y-113488783D01*
X181937370Y-113392081D01*
X182095943Y-113261943D01*
X182226081Y-113103370D01*
X182322783Y-112922454D01*
X182382331Y-112726150D01*
X182397400Y-112573152D01*
X182397400Y-111232336D01*
X183679000Y-111232336D01*
X183679000Y-111753665D01*
X183696870Y-111935102D01*
X183767489Y-112167901D01*
X183882168Y-112382449D01*
X184036499Y-112570502D01*
X184224552Y-112724833D01*
X184439100Y-112839511D01*
X184671899Y-112910130D01*
X184914000Y-112933975D01*
X185156102Y-112910130D01*
X185388901Y-112839511D01*
X185603449Y-112724833D01*
X185791502Y-112570502D01*
X185945833Y-112382449D01*
X186060511Y-112167900D01*
X186131130Y-111935101D01*
X186149000Y-111753664D01*
X186149000Y-111232335D01*
X186131130Y-111050898D01*
X186060511Y-110818099D01*
X185945833Y-110603551D01*
X185909271Y-110559000D01*
X190589928Y-110559000D01*
X190589928Y-112259000D01*
X190602188Y-112383482D01*
X190638498Y-112503180D01*
X190697463Y-112613494D01*
X190776815Y-112710185D01*
X190873506Y-112789537D01*
X190983820Y-112848502D01*
X191103518Y-112884812D01*
X191228000Y-112897072D01*
X192928000Y-112897072D01*
X193052482Y-112884812D01*
X193172180Y-112848502D01*
X193282494Y-112789537D01*
X193379185Y-112710185D01*
X193458537Y-112613494D01*
X193517502Y-112503180D01*
X193553812Y-112383482D01*
X193566072Y-112259000D01*
X193566072Y-110559000D01*
X193553812Y-110434518D01*
X193517502Y-110314820D01*
X193458537Y-110204506D01*
X193379185Y-110107815D01*
X193282494Y-110028463D01*
X193172180Y-109969498D01*
X193091534Y-109945034D01*
X193175588Y-109869269D01*
X193349641Y-109635920D01*
X193474825Y-109373099D01*
X193519476Y-109225890D01*
X193398155Y-108996000D01*
X192205000Y-108996000D01*
X192205000Y-109016000D01*
X191951000Y-109016000D01*
X191951000Y-108996000D01*
X190757845Y-108996000D01*
X190636524Y-109225890D01*
X190681175Y-109373099D01*
X190806359Y-109635920D01*
X190980412Y-109869269D01*
X191064466Y-109945034D01*
X190983820Y-109969498D01*
X190873506Y-110028463D01*
X190776815Y-110107815D01*
X190697463Y-110204506D01*
X190638498Y-110314820D01*
X190602188Y-110434518D01*
X190589928Y-110559000D01*
X185909271Y-110559000D01*
X185791502Y-110415498D01*
X185603448Y-110261167D01*
X185388900Y-110146489D01*
X185156101Y-110075870D01*
X184914000Y-110052025D01*
X184671898Y-110075870D01*
X184439099Y-110146489D01*
X184224551Y-110261167D01*
X184036498Y-110415498D01*
X183882167Y-110603552D01*
X183767489Y-110818100D01*
X183696870Y-111050899D01*
X183679000Y-111232336D01*
X182397400Y-111232336D01*
X182397400Y-106291363D01*
X183679000Y-106291363D01*
X183679000Y-106534637D01*
X183726460Y-106773236D01*
X183819557Y-106997992D01*
X183954713Y-107200267D01*
X184126733Y-107372287D01*
X184329008Y-107507443D01*
X184553764Y-107600540D01*
X184792363Y-107648000D01*
X185035637Y-107648000D01*
X185274236Y-107600540D01*
X185498992Y-107507443D01*
X185701267Y-107372287D01*
X185873287Y-107200267D01*
X186008443Y-106997992D01*
X186101540Y-106773236D01*
X186149000Y-106534637D01*
X186149000Y-106291363D01*
X186127394Y-106182740D01*
X190593000Y-106182740D01*
X190593000Y-106475260D01*
X190650068Y-106762158D01*
X190762010Y-107032411D01*
X190924525Y-107275632D01*
X191131368Y-107482475D01*
X191313534Y-107604195D01*
X191196645Y-107673822D01*
X190980412Y-107868731D01*
X190806359Y-108102080D01*
X190681175Y-108364901D01*
X190636524Y-108512110D01*
X190757845Y-108742000D01*
X191951000Y-108742000D01*
X191951000Y-108722000D01*
X192205000Y-108722000D01*
X192205000Y-108742000D01*
X193398155Y-108742000D01*
X193519476Y-108512110D01*
X193474825Y-108364901D01*
X193349641Y-108102080D01*
X193175588Y-107868731D01*
X192959355Y-107673822D01*
X192842466Y-107604195D01*
X193024632Y-107482475D01*
X193231475Y-107275632D01*
X193393990Y-107032411D01*
X193505932Y-106762158D01*
X193563000Y-106475260D01*
X193563000Y-106182740D01*
X193505932Y-105895842D01*
X193393990Y-105625589D01*
X193231475Y-105382368D01*
X193024632Y-105175525D01*
X192781411Y-105013010D01*
X192511158Y-104901068D01*
X192224260Y-104844000D01*
X191931740Y-104844000D01*
X191644842Y-104901068D01*
X191374589Y-105013010D01*
X191131368Y-105175525D01*
X190924525Y-105382368D01*
X190762010Y-105625589D01*
X190650068Y-105895842D01*
X190593000Y-106182740D01*
X186127394Y-106182740D01*
X186101540Y-106052764D01*
X186008443Y-105828008D01*
X185873287Y-105625733D01*
X185701267Y-105453713D01*
X185498992Y-105318557D01*
X185274236Y-105225460D01*
X185035637Y-105178000D01*
X184792363Y-105178000D01*
X184553764Y-105225460D01*
X184329008Y-105318557D01*
X184126733Y-105453713D01*
X183954713Y-105625733D01*
X183819557Y-105828008D01*
X183726460Y-106052764D01*
X183679000Y-106291363D01*
X182397400Y-106291363D01*
X182397400Y-89967141D01*
X182402437Y-89916000D01*
X182397400Y-89864858D01*
X182397400Y-89864848D01*
X182382331Y-89711850D01*
X182322783Y-89515546D01*
X182226081Y-89334630D01*
X182217597Y-89324292D01*
X182128551Y-89215789D01*
X182128547Y-89215785D01*
X182095943Y-89176057D01*
X182056214Y-89143452D01*
X181239552Y-88326790D01*
X181206943Y-88287057D01*
X181048370Y-88156919D01*
X180867454Y-88060217D01*
X180671150Y-88000669D01*
X180518152Y-87985600D01*
X180518141Y-87985600D01*
X180467000Y-87980563D01*
X180415859Y-87985600D01*
X173406141Y-87985600D01*
X173355000Y-87980563D01*
X173303858Y-87985600D01*
X173303848Y-87985600D01*
X173150850Y-88000669D01*
X172954546Y-88060217D01*
X172895631Y-88091708D01*
X172773630Y-88156919D01*
X172654789Y-88254449D01*
X172654785Y-88254453D01*
X172615057Y-88287057D01*
X172582452Y-88326786D01*
X172234200Y-88675038D01*
X172234200Y-85397193D01*
X172505194Y-85126200D01*
X181768837Y-85126200D01*
X181810000Y-85130254D01*
X181851163Y-85126200D01*
X181851170Y-85126200D01*
X181974316Y-85114071D01*
X182132317Y-85066142D01*
X182277932Y-84988309D01*
X182405564Y-84883564D01*
X182431811Y-84851582D01*
X183389587Y-83893807D01*
X183421564Y-83867564D01*
X183452121Y-83830331D01*
X183526309Y-83739932D01*
X183604142Y-83594317D01*
X183652071Y-83436316D01*
X183661944Y-83336071D01*
X183664200Y-83313170D01*
X183664200Y-83313163D01*
X183668254Y-83272000D01*
X183664200Y-83230837D01*
X183664200Y-78879418D01*
X183794102Y-78933226D01*
X183994061Y-78973000D01*
X184197939Y-78973000D01*
X184397898Y-78933226D01*
X184586256Y-78855205D01*
X184755774Y-78741937D01*
X184899937Y-78597774D01*
X185013205Y-78428256D01*
X185091226Y-78239898D01*
X185131000Y-78039939D01*
X185131000Y-77836061D01*
X185091226Y-77636102D01*
X185013205Y-77447744D01*
X184899937Y-77278226D01*
X184755774Y-77134063D01*
X184586256Y-77020795D01*
X184397898Y-76942774D01*
X184197939Y-76903000D01*
X183994061Y-76903000D01*
X183794102Y-76942774D01*
X183605744Y-77020795D01*
X183487504Y-77099800D01*
X183121159Y-77099800D01*
X183079999Y-77095746D01*
X183038839Y-77099800D01*
X183038830Y-77099800D01*
X182915684Y-77111929D01*
X182757683Y-77159858D01*
X182612068Y-77237691D01*
X182484436Y-77342436D01*
X182458189Y-77374418D01*
X182318000Y-77514607D01*
X182177811Y-77374418D01*
X182151564Y-77342436D01*
X182023932Y-77237691D01*
X181878317Y-77159858D01*
X181720316Y-77111929D01*
X181597170Y-77099800D01*
X181597163Y-77099800D01*
X181556000Y-77095746D01*
X181514837Y-77099800D01*
X181148496Y-77099800D01*
X181030256Y-77020795D01*
X180841898Y-76942774D01*
X180641939Y-76903000D01*
X180438061Y-76903000D01*
X180238102Y-76942774D01*
X180049744Y-77020795D01*
X179880226Y-77134063D01*
X179736063Y-77278226D01*
X179622795Y-77447744D01*
X179544774Y-77636102D01*
X179505000Y-77836061D01*
X179505000Y-78039939D01*
X179544774Y-78239898D01*
X179622795Y-78428256D01*
X179736063Y-78597774D01*
X179880226Y-78741937D01*
X180049744Y-78855205D01*
X180238102Y-78933226D01*
X180438061Y-78973000D01*
X180641939Y-78973000D01*
X180841898Y-78933226D01*
X180971800Y-78879418D01*
X180971801Y-82162805D01*
X180700807Y-82433800D01*
X180089914Y-82433800D01*
X180105004Y-82357939D01*
X180105004Y-82154061D01*
X180065230Y-81954102D01*
X179987209Y-81765744D01*
X179873941Y-81596226D01*
X179729778Y-81452063D01*
X179560260Y-81338795D01*
X179371902Y-81260774D01*
X179171943Y-81221000D01*
X178968065Y-81221000D01*
X178768106Y-81260774D01*
X178579748Y-81338795D01*
X178461508Y-81417800D01*
X171691159Y-81417800D01*
X171649999Y-81413746D01*
X171608839Y-81417800D01*
X171608830Y-81417800D01*
X171485684Y-81429929D01*
X171327683Y-81477858D01*
X171225792Y-81532320D01*
X171182068Y-81555691D01*
X171107245Y-81617097D01*
X171054436Y-81660436D01*
X171028194Y-81692412D01*
X168800413Y-83920194D01*
X168768437Y-83946436D01*
X168742195Y-83978412D01*
X168742192Y-83978415D01*
X168663691Y-84074069D01*
X168585858Y-84219684D01*
X168537929Y-84377685D01*
X168521746Y-84542000D01*
X168525801Y-84583173D01*
X168525800Y-89267504D01*
X168446795Y-89385744D01*
X168368774Y-89574102D01*
X168329000Y-89774061D01*
X168329000Y-89977939D01*
X168344090Y-90053800D01*
X165849163Y-90053800D01*
X165808000Y-90049746D01*
X165766837Y-90053800D01*
X165766830Y-90053800D01*
X165647319Y-90065571D01*
X165643684Y-90065929D01*
X165485683Y-90113858D01*
X165340068Y-90191691D01*
X165313287Y-90213670D01*
X165212436Y-90296436D01*
X165186193Y-90328413D01*
X164871400Y-90643206D01*
X164871400Y-80315144D01*
X164876437Y-80264000D01*
X164871400Y-80212856D01*
X164871400Y-80212848D01*
X164856331Y-80059850D01*
X164796783Y-79863546D01*
X164700081Y-79682630D01*
X164605456Y-79567329D01*
X164602551Y-79563789D01*
X164602547Y-79563785D01*
X164569943Y-79524057D01*
X164530214Y-79491452D01*
X163840551Y-78801790D01*
X163807943Y-78762057D01*
X163649370Y-78631919D01*
X163468454Y-78535217D01*
X163272150Y-78475669D01*
X163119152Y-78460600D01*
X163119141Y-78460600D01*
X163068000Y-78455563D01*
X163016859Y-78460600D01*
X157277144Y-78460600D01*
X157226000Y-78455563D01*
X157174856Y-78460600D01*
X157174848Y-78460600D01*
X157021850Y-78475669D01*
X156825546Y-78535217D01*
X156708511Y-78597774D01*
X156644630Y-78631919D01*
X156525789Y-78729449D01*
X156525785Y-78729453D01*
X156486057Y-78762057D01*
X156453452Y-78801786D01*
X155763786Y-79491453D01*
X155724058Y-79524057D01*
X155691454Y-79563785D01*
X155691450Y-79563789D01*
X155593919Y-79682631D01*
X155497218Y-79863545D01*
X155485553Y-79902000D01*
X155437670Y-80059850D01*
X155432148Y-80115919D01*
X155417563Y-80264000D01*
X155422601Y-80315151D01*
X155422600Y-81610638D01*
X155270639Y-81762600D01*
X152094848Y-81762600D01*
X151941850Y-81777669D01*
X151745546Y-81837217D01*
X151564630Y-81933919D01*
X151406057Y-82064057D01*
X151275919Y-82222630D01*
X151179217Y-82403546D01*
X151119669Y-82599850D01*
X151099562Y-82804000D01*
X151119669Y-83008150D01*
X151179217Y-83204454D01*
X151275919Y-83385370D01*
X151406057Y-83543943D01*
X151564630Y-83674081D01*
X151745546Y-83770783D01*
X151941850Y-83830331D01*
X152094848Y-83845400D01*
X155650859Y-83845400D01*
X155702000Y-83850437D01*
X155753141Y-83845400D01*
X155753152Y-83845400D01*
X155906150Y-83830331D01*
X156102454Y-83770783D01*
X156283370Y-83674081D01*
X156441943Y-83543943D01*
X156474551Y-83504210D01*
X157146600Y-82832162D01*
X157146601Y-90808637D01*
X157048639Y-90906600D01*
X152094848Y-90906600D01*
X151941850Y-90921669D01*
X151745546Y-90981217D01*
X151564630Y-91077919D01*
X151406057Y-91208057D01*
X151275919Y-91366630D01*
X151179217Y-91547546D01*
X151119669Y-91743850D01*
X151099562Y-91948000D01*
X151117074Y-92125800D01*
X150663159Y-92125800D01*
X150621999Y-92121746D01*
X150580839Y-92125800D01*
X150580830Y-92125800D01*
X150457684Y-92137929D01*
X150299683Y-92185858D01*
X150216508Y-92230316D01*
X150154068Y-92263691D01*
X150077761Y-92326315D01*
X150026436Y-92368436D01*
X150000193Y-92400413D01*
X148788418Y-93612189D01*
X148756436Y-93638436D01*
X148651691Y-93766069D01*
X148573858Y-93911684D01*
X148525929Y-94069685D01*
X148513800Y-94192831D01*
X148513800Y-94192837D01*
X148509746Y-94234000D01*
X148513800Y-94275163D01*
X148513801Y-100490805D01*
X148242807Y-100761800D01*
X145316280Y-100761800D01*
X145348537Y-100722494D01*
X145407502Y-100612180D01*
X145443812Y-100492482D01*
X145456072Y-100368000D01*
X145456072Y-98768000D01*
X145443812Y-98643518D01*
X145407502Y-98523820D01*
X145348537Y-98413506D01*
X145269185Y-98316815D01*
X145172494Y-98237463D01*
X145062180Y-98178498D01*
X144942482Y-98142188D01*
X144818000Y-98129928D01*
X143218000Y-98129928D01*
X143093518Y-98142188D01*
X142973820Y-98178498D01*
X142863506Y-98237463D01*
X142766815Y-98316815D01*
X142687463Y-98413506D01*
X142628498Y-98523820D01*
X142592188Y-98643518D01*
X142591357Y-98651961D01*
X142392759Y-98453363D01*
X142157727Y-98296320D01*
X141896574Y-98188147D01*
X141619335Y-98133000D01*
X141336665Y-98133000D01*
X141059426Y-98188147D01*
X140798273Y-98296320D01*
X140563241Y-98453363D01*
X140363363Y-98653241D01*
X140208000Y-98885759D01*
X140052637Y-98653241D01*
X139852759Y-98453363D01*
X139617727Y-98296320D01*
X139356574Y-98188147D01*
X139079335Y-98133000D01*
X138796665Y-98133000D01*
X138519426Y-98188147D01*
X138258273Y-98296320D01*
X138023241Y-98453363D01*
X137823363Y-98653241D01*
X137666320Y-98888273D01*
X137661933Y-98898865D01*
X137550385Y-98712869D01*
X137361414Y-98504481D01*
X137135420Y-98336963D01*
X136881087Y-98216754D01*
X136747039Y-98176096D01*
X136525000Y-98298085D01*
X136525000Y-99441000D01*
X136545000Y-99441000D01*
X136545000Y-99695000D01*
X136525000Y-99695000D01*
X136525000Y-99715000D01*
X136271000Y-99715000D01*
X136271000Y-99695000D01*
X136251000Y-99695000D01*
X136251000Y-99441000D01*
X136271000Y-99441000D01*
X136271000Y-98298085D01*
X136048961Y-98176096D01*
X135914913Y-98216754D01*
X135660580Y-98336963D01*
X135434586Y-98504481D01*
X135245615Y-98712869D01*
X135134067Y-98898865D01*
X135129680Y-98888273D01*
X134972637Y-98653241D01*
X134772759Y-98453363D01*
X134537727Y-98296320D01*
X134276574Y-98188147D01*
X133999335Y-98133000D01*
X133716665Y-98133000D01*
X133439426Y-98188147D01*
X133178273Y-98296320D01*
X132943241Y-98453363D01*
X132743363Y-98653241D01*
X132588000Y-98885759D01*
X132432637Y-98653241D01*
X132232759Y-98453363D01*
X131997727Y-98296320D01*
X131736574Y-98188147D01*
X131459335Y-98133000D01*
X131176665Y-98133000D01*
X130899426Y-98188147D01*
X130638273Y-98296320D01*
X130403241Y-98453363D01*
X130203363Y-98653241D01*
X130048000Y-98885759D01*
X129892637Y-98653241D01*
X129692759Y-98453363D01*
X129457727Y-98296320D01*
X129196574Y-98188147D01*
X128919335Y-98133000D01*
X128636665Y-98133000D01*
X128359426Y-98188147D01*
X128098273Y-98296320D01*
X127863241Y-98453363D01*
X127663363Y-98653241D01*
X127508000Y-98885759D01*
X127352637Y-98653241D01*
X127152759Y-98453363D01*
X126917727Y-98296320D01*
X126656574Y-98188147D01*
X126379335Y-98133000D01*
X126096665Y-98133000D01*
X125819426Y-98188147D01*
X125558273Y-98296320D01*
X125323241Y-98453363D01*
X125123363Y-98653241D01*
X124968000Y-98885759D01*
X124812637Y-98653241D01*
X124612759Y-98453363D01*
X124377727Y-98296320D01*
X124116574Y-98188147D01*
X123839335Y-98133000D01*
X123556665Y-98133000D01*
X123279426Y-98188147D01*
X123018273Y-98296320D01*
X122783241Y-98453363D01*
X122583363Y-98653241D01*
X122428000Y-98885759D01*
X122272637Y-98653241D01*
X122072759Y-98453363D01*
X122004336Y-98407645D01*
X122022730Y-98402065D01*
X122274246Y-98267626D01*
X122415136Y-98152000D01*
X122439458Y-98132040D01*
X122439460Y-98132038D01*
X122494702Y-98086702D01*
X122540039Y-98031459D01*
X123314796Y-97256702D01*
X124716903Y-97256702D01*
X124788486Y-97500671D01*
X125043996Y-97621571D01*
X125318184Y-97690300D01*
X125600512Y-97704217D01*
X125880130Y-97662787D01*
X126146292Y-97567603D01*
X126271514Y-97500671D01*
X126343097Y-97256702D01*
X125530000Y-96443605D01*
X124716903Y-97256702D01*
X123314796Y-97256702D01*
X123455469Y-97116030D01*
X123510701Y-97070702D01*
X123556030Y-97015469D01*
X123556040Y-97015459D01*
X123691625Y-96850247D01*
X123691627Y-96850245D01*
X123826065Y-96598730D01*
X123908851Y-96325818D01*
X123929800Y-96113122D01*
X123929800Y-96113112D01*
X123936804Y-96042000D01*
X123929800Y-95970888D01*
X123929800Y-95879698D01*
X124097699Y-95711800D01*
X124203751Y-95711800D01*
X124172429Y-95777996D01*
X124103700Y-96052184D01*
X124089783Y-96334512D01*
X124131213Y-96614130D01*
X124226397Y-96880292D01*
X124293329Y-97005514D01*
X124537298Y-97077097D01*
X125350395Y-96264000D01*
X125336253Y-96249858D01*
X125515858Y-96070253D01*
X125530000Y-96084395D01*
X125544143Y-96070253D01*
X125723748Y-96249858D01*
X125709605Y-96264000D01*
X126522702Y-97077097D01*
X126766671Y-97005514D01*
X126887571Y-96750004D01*
X126956300Y-96475816D01*
X126970217Y-96193488D01*
X126928787Y-95913870D01*
X126833603Y-95647708D01*
X126766671Y-95522486D01*
X126522704Y-95450903D01*
X126638977Y-95334630D01*
X126575987Y-95271640D01*
X126739626Y-95072246D01*
X126874065Y-94820730D01*
X126956851Y-94547818D01*
X126984805Y-94264000D01*
X126956851Y-93980182D01*
X126874065Y-93707270D01*
X126739626Y-93455754D01*
X126558702Y-93235298D01*
X126338246Y-93054374D01*
X126086730Y-92919935D01*
X125813818Y-92837149D01*
X125601122Y-92816200D01*
X123569112Y-92816200D01*
X123498000Y-92809196D01*
X123426888Y-92816200D01*
X123426878Y-92816200D01*
X123214182Y-92837149D01*
X122941270Y-92919935D01*
X122689754Y-93054374D01*
X122689752Y-93054375D01*
X122689753Y-93054375D01*
X122524541Y-93189960D01*
X122524535Y-93189966D01*
X122469298Y-93235298D01*
X122423966Y-93290535D01*
X121508535Y-94205967D01*
X121453299Y-94251298D01*
X121407966Y-94306536D01*
X121407960Y-94306542D01*
X121344451Y-94383929D01*
X121272374Y-94471754D01*
X121137935Y-94723270D01*
X121055149Y-94996182D01*
X121034200Y-95208878D01*
X121034200Y-95208888D01*
X121027196Y-95280000D01*
X121034200Y-95351112D01*
X121034200Y-95442301D01*
X120866302Y-95610200D01*
X117131230Y-95610200D01*
X117332775Y-95308566D01*
X117478639Y-94956419D01*
X117553000Y-94582581D01*
X117553000Y-94201419D01*
X117478639Y-93827581D01*
X117332775Y-93475434D01*
X117121013Y-93158509D01*
X116851491Y-92888987D01*
X116534566Y-92677225D01*
X116182419Y-92531361D01*
X115808581Y-92457000D01*
X115427419Y-92457000D01*
X115053581Y-92531361D01*
X114701434Y-92677225D01*
X114384509Y-92888987D01*
X114114987Y-93158509D01*
X113903225Y-93475434D01*
X113757361Y-93827581D01*
X113683000Y-94201419D01*
X113683000Y-94582581D01*
X113757361Y-94956419D01*
X113903225Y-95308566D01*
X114104770Y-95610200D01*
X107313104Y-95610200D01*
X107241999Y-95603197D01*
X107170895Y-95610200D01*
X107170878Y-95610200D01*
X106958182Y-95631149D01*
X106685270Y-95713935D01*
X106433754Y-95848374D01*
X106433752Y-95848375D01*
X106433753Y-95848375D01*
X106294347Y-95962783D01*
X106213298Y-96029298D01*
X106167962Y-96084540D01*
X105079000Y-97173502D01*
X105079000Y-91041224D01*
X111448381Y-91041224D01*
X111580317Y-91336312D01*
X111921045Y-91507159D01*
X112288557Y-91608250D01*
X112668729Y-91635701D01*
X113046951Y-91588457D01*
X113408690Y-91468333D01*
X113655683Y-91336312D01*
X113787619Y-91041224D01*
X112618000Y-89871605D01*
X111448381Y-91041224D01*
X105079000Y-91041224D01*
X105079000Y-89742729D01*
X110674299Y-89742729D01*
X110721543Y-90120951D01*
X110841667Y-90482690D01*
X110973688Y-90729683D01*
X111268776Y-90861619D01*
X112438395Y-89692000D01*
X112797605Y-89692000D01*
X113967224Y-90861619D01*
X114262312Y-90729683D01*
X114433159Y-90388955D01*
X114534250Y-90021443D01*
X114561701Y-89641271D01*
X114514457Y-89263049D01*
X114394333Y-88901310D01*
X114262312Y-88654317D01*
X113967224Y-88522381D01*
X112797605Y-89692000D01*
X112438395Y-89692000D01*
X111268776Y-88522381D01*
X110973688Y-88654317D01*
X110802841Y-88995045D01*
X110701750Y-89362557D01*
X110674299Y-89742729D01*
X105079000Y-89742729D01*
X105079000Y-88342776D01*
X111448381Y-88342776D01*
X112618000Y-89512395D01*
X113738395Y-88392000D01*
X116679928Y-88392000D01*
X116679928Y-90992000D01*
X116692188Y-91116482D01*
X116728498Y-91236180D01*
X116787463Y-91346494D01*
X116866815Y-91443185D01*
X116963506Y-91522537D01*
X117073820Y-91581502D01*
X117193518Y-91617812D01*
X117318000Y-91630072D01*
X119918000Y-91630072D01*
X120042482Y-91617812D01*
X120162180Y-91581502D01*
X120272494Y-91522537D01*
X120369185Y-91443185D01*
X120448537Y-91346494D01*
X120507502Y-91236180D01*
X120543812Y-91116482D01*
X120556072Y-90992000D01*
X120556072Y-88778512D01*
X124089783Y-88778512D01*
X124131213Y-89058130D01*
X124226397Y-89324292D01*
X124293329Y-89449514D01*
X124537296Y-89521097D01*
X124421023Y-89637370D01*
X124496129Y-89712476D01*
X124415363Y-89793241D01*
X124258320Y-90028273D01*
X124150147Y-90289426D01*
X124095000Y-90566665D01*
X124095000Y-90849335D01*
X124150147Y-91126574D01*
X124258320Y-91387727D01*
X124415363Y-91622759D01*
X124615241Y-91822637D01*
X124850273Y-91979680D01*
X125111426Y-92087853D01*
X125388665Y-92143000D01*
X125671335Y-92143000D01*
X125948574Y-92087853D01*
X126209727Y-91979680D01*
X126444759Y-91822637D01*
X126644637Y-91622759D01*
X126801680Y-91387727D01*
X126909853Y-91126574D01*
X126965000Y-90849335D01*
X126965000Y-90566665D01*
X126909853Y-90289426D01*
X126801680Y-90028273D01*
X126795158Y-90018512D01*
X144355783Y-90018512D01*
X144397213Y-90298130D01*
X144492397Y-90564292D01*
X144559329Y-90689514D01*
X144803296Y-90761097D01*
X144687023Y-90877370D01*
X144762129Y-90952476D01*
X144681363Y-91033241D01*
X144524320Y-91268273D01*
X144416147Y-91529426D01*
X144361000Y-91806665D01*
X144361000Y-92089335D01*
X144416147Y-92366574D01*
X144524320Y-92627727D01*
X144681363Y-92862759D01*
X144881241Y-93062637D01*
X145116273Y-93219680D01*
X145377426Y-93327853D01*
X145654665Y-93383000D01*
X145937335Y-93383000D01*
X146214574Y-93327853D01*
X146475727Y-93219680D01*
X146710759Y-93062637D01*
X146910637Y-92862759D01*
X147067680Y-92627727D01*
X147175853Y-92366574D01*
X147231000Y-92089335D01*
X147231000Y-91806665D01*
X147175853Y-91529426D01*
X147067680Y-91268273D01*
X146910637Y-91033241D01*
X146829872Y-90952476D01*
X146904977Y-90877370D01*
X146788704Y-90761097D01*
X147032671Y-90689514D01*
X147153571Y-90434004D01*
X147222300Y-90159816D01*
X147236217Y-89877488D01*
X147194787Y-89597870D01*
X147099603Y-89331708D01*
X147032671Y-89206486D01*
X146788702Y-89134903D01*
X145975605Y-89948000D01*
X145989748Y-89962143D01*
X145810143Y-90141748D01*
X145796000Y-90127605D01*
X145781858Y-90141748D01*
X145602253Y-89962143D01*
X145616395Y-89948000D01*
X144803298Y-89134903D01*
X144559329Y-89206486D01*
X144438429Y-89461996D01*
X144369700Y-89736184D01*
X144355783Y-90018512D01*
X126795158Y-90018512D01*
X126644637Y-89793241D01*
X126563872Y-89712476D01*
X126638977Y-89637370D01*
X126522704Y-89521097D01*
X126766671Y-89449514D01*
X126887571Y-89194004D01*
X126947405Y-88955298D01*
X144982903Y-88955298D01*
X145796000Y-89768395D01*
X146609097Y-88955298D01*
X146537514Y-88711329D01*
X146282004Y-88590429D01*
X146007816Y-88521700D01*
X145725488Y-88507783D01*
X145445870Y-88549213D01*
X145179708Y-88644397D01*
X145054486Y-88711329D01*
X144982903Y-88955298D01*
X126947405Y-88955298D01*
X126956300Y-88919816D01*
X126970217Y-88637488D01*
X126928787Y-88357870D01*
X126833603Y-88091708D01*
X126766671Y-87966486D01*
X126522702Y-87894903D01*
X125709605Y-88708000D01*
X125723748Y-88722143D01*
X125544143Y-88901748D01*
X125530000Y-88887605D01*
X125515858Y-88901748D01*
X125336253Y-88722143D01*
X125350395Y-88708000D01*
X124537298Y-87894903D01*
X124293329Y-87966486D01*
X124172429Y-88221996D01*
X124103700Y-88496184D01*
X124089783Y-88778512D01*
X120556072Y-88778512D01*
X120556072Y-88392000D01*
X120543812Y-88267518D01*
X120507502Y-88147820D01*
X120448537Y-88037506D01*
X120369185Y-87940815D01*
X120272494Y-87861463D01*
X120162180Y-87802498D01*
X120042482Y-87766188D01*
X119918000Y-87753928D01*
X117318000Y-87753928D01*
X117193518Y-87766188D01*
X117073820Y-87802498D01*
X116963506Y-87861463D01*
X116866815Y-87940815D01*
X116787463Y-88037506D01*
X116728498Y-88147820D01*
X116692188Y-88267518D01*
X116679928Y-88392000D01*
X113738395Y-88392000D01*
X113787619Y-88342776D01*
X113655683Y-88047688D01*
X113314955Y-87876841D01*
X112947443Y-87775750D01*
X112567271Y-87748299D01*
X112189049Y-87795543D01*
X111827310Y-87915667D01*
X111580317Y-88047688D01*
X111448381Y-88342776D01*
X105079000Y-88342776D01*
X105079000Y-87715298D01*
X124716903Y-87715298D01*
X125530000Y-88528395D01*
X126343097Y-87715298D01*
X126271514Y-87471329D01*
X126016004Y-87350429D01*
X125741816Y-87281700D01*
X125459488Y-87267783D01*
X125179870Y-87309213D01*
X124913708Y-87404397D01*
X124788486Y-87471329D01*
X124716903Y-87715298D01*
X105079000Y-87715298D01*
X105079000Y-74568000D01*
X105830928Y-74568000D01*
X105830928Y-76368000D01*
X105843188Y-76492482D01*
X105879498Y-76612180D01*
X105938463Y-76722494D01*
X106017815Y-76819185D01*
X106114506Y-76898537D01*
X106224820Y-76957502D01*
X106243127Y-76963056D01*
X106176688Y-77029495D01*
X106008701Y-77280905D01*
X105892989Y-77560257D01*
X105834000Y-77856816D01*
X105834000Y-78159184D01*
X105892989Y-78455743D01*
X106008701Y-78735095D01*
X106176688Y-78986505D01*
X106390495Y-79200312D01*
X106485703Y-79263928D01*
X106469000Y-79263928D01*
X106344518Y-79276188D01*
X106224820Y-79312498D01*
X106114506Y-79371463D01*
X106017815Y-79450815D01*
X105938463Y-79547506D01*
X105879498Y-79657820D01*
X105843188Y-79777518D01*
X105830928Y-79902000D01*
X105830928Y-81702000D01*
X105843188Y-81826482D01*
X105879498Y-81946180D01*
X105938463Y-82056494D01*
X106017815Y-82153185D01*
X106114506Y-82232537D01*
X106224820Y-82291502D01*
X106243127Y-82297056D01*
X106176688Y-82363495D01*
X106008701Y-82614905D01*
X105892989Y-82894257D01*
X105834000Y-83190816D01*
X105834000Y-83493184D01*
X105892989Y-83789743D01*
X106008701Y-84069095D01*
X106176688Y-84320505D01*
X106390495Y-84534312D01*
X106641905Y-84702299D01*
X106921257Y-84818011D01*
X107217816Y-84877000D01*
X107520184Y-84877000D01*
X107816743Y-84818011D01*
X108096095Y-84702299D01*
X108347505Y-84534312D01*
X108561312Y-84320505D01*
X108729299Y-84069095D01*
X108845011Y-83789743D01*
X108904000Y-83493184D01*
X108904000Y-83190816D01*
X108897973Y-83160512D01*
X124035783Y-83160512D01*
X124077213Y-83440130D01*
X124172397Y-83706292D01*
X124239329Y-83831514D01*
X124483296Y-83903097D01*
X124367023Y-84019370D01*
X124442129Y-84094476D01*
X124361363Y-84175241D01*
X124204320Y-84410273D01*
X124096147Y-84671426D01*
X124041000Y-84948665D01*
X124041000Y-85231335D01*
X124096147Y-85508574D01*
X124204320Y-85769727D01*
X124361363Y-86004759D01*
X124561241Y-86204637D01*
X124796273Y-86361680D01*
X125057426Y-86469853D01*
X125334665Y-86525000D01*
X125617335Y-86525000D01*
X125894574Y-86469853D01*
X126155727Y-86361680D01*
X126390759Y-86204637D01*
X126590637Y-86004759D01*
X126747680Y-85769727D01*
X126855853Y-85508574D01*
X126911000Y-85231335D01*
X126911000Y-84948665D01*
X126855853Y-84671426D01*
X126747680Y-84410273D01*
X126590637Y-84175241D01*
X126509872Y-84094476D01*
X126584977Y-84019370D01*
X126468704Y-83903097D01*
X126712671Y-83831514D01*
X126833571Y-83576004D01*
X126902300Y-83301816D01*
X126916217Y-83019488D01*
X126874787Y-82739870D01*
X126779603Y-82473708D01*
X126712671Y-82348486D01*
X126468702Y-82276903D01*
X125655605Y-83090000D01*
X125669748Y-83104143D01*
X125490143Y-83283748D01*
X125476000Y-83269605D01*
X125461858Y-83283748D01*
X125282253Y-83104143D01*
X125296395Y-83090000D01*
X124483298Y-82276903D01*
X124239329Y-82348486D01*
X124118429Y-82603996D01*
X124049700Y-82878184D01*
X124035783Y-83160512D01*
X108897973Y-83160512D01*
X108845011Y-82894257D01*
X108729299Y-82614905D01*
X108561312Y-82363495D01*
X108494873Y-82297056D01*
X108513180Y-82291502D01*
X108623494Y-82232537D01*
X108720185Y-82153185D01*
X108766050Y-82097298D01*
X124662903Y-82097298D01*
X125476000Y-82910395D01*
X126289097Y-82097298D01*
X126217514Y-81853329D01*
X125962004Y-81732429D01*
X125687816Y-81663700D01*
X125405488Y-81649783D01*
X125125870Y-81691213D01*
X124859708Y-81786397D01*
X124734486Y-81853329D01*
X124662903Y-82097298D01*
X108766050Y-82097298D01*
X108799537Y-82056494D01*
X108858502Y-81946180D01*
X108894812Y-81826482D01*
X108907072Y-81702000D01*
X108907072Y-80874512D01*
X144355783Y-80874512D01*
X144397213Y-81154130D01*
X144492397Y-81420292D01*
X144559329Y-81545514D01*
X144803296Y-81617097D01*
X144687023Y-81733370D01*
X144762129Y-81808476D01*
X144681363Y-81889241D01*
X144524320Y-82124273D01*
X144416147Y-82385426D01*
X144361000Y-82662665D01*
X144361000Y-82945335D01*
X144416147Y-83222574D01*
X144524320Y-83483727D01*
X144681363Y-83718759D01*
X144881241Y-83918637D01*
X145116273Y-84075680D01*
X145377426Y-84183853D01*
X145654665Y-84239000D01*
X145937335Y-84239000D01*
X146214574Y-84183853D01*
X146475727Y-84075680D01*
X146710759Y-83918637D01*
X146910637Y-83718759D01*
X147067680Y-83483727D01*
X147175853Y-83222574D01*
X147231000Y-82945335D01*
X147231000Y-82662665D01*
X147175853Y-82385426D01*
X147067680Y-82124273D01*
X146910637Y-81889241D01*
X146829872Y-81808476D01*
X146904977Y-81733370D01*
X146788704Y-81617097D01*
X147032671Y-81545514D01*
X147153571Y-81290004D01*
X147222300Y-81015816D01*
X147236217Y-80733488D01*
X147194787Y-80453870D01*
X147099603Y-80187708D01*
X147032671Y-80062486D01*
X146788702Y-79990903D01*
X145975605Y-80804000D01*
X145989748Y-80818143D01*
X145810143Y-80997748D01*
X145796000Y-80983605D01*
X145781858Y-80997748D01*
X145602253Y-80818143D01*
X145616395Y-80804000D01*
X144803298Y-79990903D01*
X144559329Y-80062486D01*
X144438429Y-80317996D01*
X144369700Y-80592184D01*
X144355783Y-80874512D01*
X108907072Y-80874512D01*
X108907072Y-79902000D01*
X108898139Y-79811298D01*
X144982903Y-79811298D01*
X145796000Y-80624395D01*
X146609097Y-79811298D01*
X146537514Y-79567329D01*
X146282004Y-79446429D01*
X146007816Y-79377700D01*
X145725488Y-79363783D01*
X145445870Y-79405213D01*
X145179708Y-79500397D01*
X145054486Y-79567329D01*
X144982903Y-79811298D01*
X108898139Y-79811298D01*
X108894812Y-79777518D01*
X108858502Y-79657820D01*
X108799537Y-79547506D01*
X108720185Y-79450815D01*
X108623494Y-79371463D01*
X108513180Y-79312498D01*
X108393482Y-79276188D01*
X108269000Y-79263928D01*
X108252297Y-79263928D01*
X108347505Y-79200312D01*
X108561312Y-78986505D01*
X108729299Y-78735095D01*
X108845011Y-78455743D01*
X108904000Y-78159184D01*
X108904000Y-77856816D01*
X108845011Y-77560257D01*
X108729299Y-77280905D01*
X108561312Y-77029495D01*
X108494873Y-76963056D01*
X108513180Y-76957502D01*
X108623494Y-76898537D01*
X108720185Y-76819185D01*
X108799537Y-76722494D01*
X108858502Y-76612180D01*
X108894812Y-76492482D01*
X108907072Y-76368000D01*
X108907072Y-74568000D01*
X108894812Y-74443518D01*
X108858502Y-74323820D01*
X108799537Y-74213506D01*
X108720185Y-74116815D01*
X108623494Y-74037463D01*
X108513180Y-73978498D01*
X108393482Y-73942188D01*
X108269000Y-73929928D01*
X106469000Y-73929928D01*
X106344518Y-73942188D01*
X106224820Y-73978498D01*
X106114506Y-74037463D01*
X106017815Y-74116815D01*
X105938463Y-74213506D01*
X105879498Y-74323820D01*
X105843188Y-74443518D01*
X105830928Y-74568000D01*
X105079000Y-74568000D01*
X105079000Y-65313000D01*
X195309000Y-65313000D01*
X195309001Y-152543000D01*
G36*
X115299858Y-104071684D02*
G01*
X115251929Y-104229685D01*
X115239800Y-104352831D01*
X115239800Y-104352837D01*
X115235746Y-104394000D01*
X115239800Y-104435163D01*
X115239801Y-113642207D01*
X115163241Y-113693363D01*
X114963363Y-113893241D01*
X114808000Y-114125759D01*
X114652637Y-113893241D01*
X114452759Y-113693363D01*
X114217727Y-113536320D01*
X113956574Y-113428147D01*
X113679335Y-113373000D01*
X113396665Y-113373000D01*
X113119426Y-113428147D01*
X112858273Y-113536320D01*
X112623241Y-113693363D01*
X112423363Y-113893241D01*
X112268000Y-114125759D01*
X112112637Y-113893241D01*
X111912759Y-113693363D01*
X111677727Y-113536320D01*
X111416574Y-113428147D01*
X111139335Y-113373000D01*
X110856665Y-113373000D01*
X110579426Y-113428147D01*
X110318273Y-113536320D01*
X110083241Y-113693363D01*
X109883363Y-113893241D01*
X109728000Y-114125759D01*
X109572637Y-113893241D01*
X109372759Y-113693363D01*
X109296200Y-113642208D01*
X109296200Y-103979193D01*
X109313193Y-103962200D01*
X115358379Y-103962200D01*
X115299858Y-104071684D01*
G37*
X115299858Y-104071684D02*
X115251929Y-104229685D01*
X115239800Y-104352831D01*
X115239800Y-104352837D01*
X115235746Y-104394000D01*
X115239800Y-104435163D01*
X115239801Y-113642207D01*
X115163241Y-113693363D01*
X114963363Y-113893241D01*
X114808000Y-114125759D01*
X114652637Y-113893241D01*
X114452759Y-113693363D01*
X114217727Y-113536320D01*
X113956574Y-113428147D01*
X113679335Y-113373000D01*
X113396665Y-113373000D01*
X113119426Y-113428147D01*
X112858273Y-113536320D01*
X112623241Y-113693363D01*
X112423363Y-113893241D01*
X112268000Y-114125759D01*
X112112637Y-113893241D01*
X111912759Y-113693363D01*
X111677727Y-113536320D01*
X111416574Y-113428147D01*
X111139335Y-113373000D01*
X110856665Y-113373000D01*
X110579426Y-113428147D01*
X110318273Y-113536320D01*
X110083241Y-113693363D01*
X109883363Y-113893241D01*
X109728000Y-114125759D01*
X109572637Y-113893241D01*
X109372759Y-113693363D01*
X109296200Y-113642208D01*
X109296200Y-103979193D01*
X109313193Y-103962200D01*
X115358379Y-103962200D01*
X115299858Y-104071684D01*
G36*
X152577800Y-107808304D02*
G01*
X152498795Y-107926544D01*
X152420774Y-108114902D01*
X152406831Y-108184998D01*
X152298061Y-108184998D01*
X152098102Y-108224772D01*
X151968200Y-108278580D01*
X151968200Y-106018496D01*
X152047205Y-105900256D01*
X152125226Y-105711898D01*
X152165000Y-105511939D01*
X152165000Y-105308061D01*
X152125226Y-105108102D01*
X152047205Y-104919744D01*
X151933937Y-104750226D01*
X151789774Y-104606063D01*
X151620256Y-104492795D01*
X151431898Y-104414774D01*
X151231939Y-104375000D01*
X151028061Y-104375000D01*
X150828102Y-104414774D01*
X150639744Y-104492795D01*
X150470226Y-104606063D01*
X150326063Y-104750226D01*
X150212795Y-104919744D01*
X150134774Y-105108102D01*
X150095000Y-105308061D01*
X150095000Y-105511939D01*
X150134774Y-105711898D01*
X150212795Y-105900256D01*
X150291800Y-106018496D01*
X150291801Y-109210805D01*
X150063606Y-109439001D01*
X119463962Y-109439001D01*
X119422799Y-109434947D01*
X119381636Y-109439001D01*
X119381629Y-109439001D01*
X119258483Y-109451130D01*
X119100482Y-109499059D01*
X118954867Y-109576892D01*
X118877439Y-109640436D01*
X118827235Y-109681637D01*
X118800992Y-109713614D01*
X118054418Y-110460189D01*
X118022436Y-110486436D01*
X117917691Y-110614069D01*
X117839858Y-110759684D01*
X117791929Y-110917685D01*
X117779800Y-111040831D01*
X117779800Y-111040837D01*
X117775746Y-111082000D01*
X117779800Y-111123163D01*
X117779801Y-113642208D01*
X117703241Y-113693363D01*
X117503363Y-113893241D01*
X117348000Y-114125759D01*
X117192637Y-113893241D01*
X116992759Y-113693363D01*
X116916200Y-113642208D01*
X116916200Y-104741193D01*
X116933193Y-104724200D01*
X149818837Y-104724200D01*
X149860000Y-104728254D01*
X149901163Y-104724200D01*
X149901170Y-104724200D01*
X150024316Y-104712071D01*
X150182317Y-104664142D01*
X150327932Y-104586309D01*
X150455564Y-104481564D01*
X150481811Y-104449582D01*
X152577801Y-102353593D01*
X152577800Y-107808304D01*
G37*
X152577800Y-107808304D02*
X152498795Y-107926544D01*
X152420774Y-108114902D01*
X152406831Y-108184998D01*
X152298061Y-108184998D01*
X152098102Y-108224772D01*
X151968200Y-108278580D01*
X151968200Y-106018496D01*
X152047205Y-105900256D01*
X152125226Y-105711898D01*
X152165000Y-105511939D01*
X152165000Y-105308061D01*
X152125226Y-105108102D01*
X152047205Y-104919744D01*
X151933937Y-104750226D01*
X151789774Y-104606063D01*
X151620256Y-104492795D01*
X151431898Y-104414774D01*
X151231939Y-104375000D01*
X151028061Y-104375000D01*
X150828102Y-104414774D01*
X150639744Y-104492795D01*
X150470226Y-104606063D01*
X150326063Y-104750226D01*
X150212795Y-104919744D01*
X150134774Y-105108102D01*
X150095000Y-105308061D01*
X150095000Y-105511939D01*
X150134774Y-105711898D01*
X150212795Y-105900256D01*
X150291800Y-106018496D01*
X150291801Y-109210805D01*
X150063606Y-109439001D01*
X119463962Y-109439001D01*
X119422799Y-109434947D01*
X119381636Y-109439001D01*
X119381629Y-109439001D01*
X119258483Y-109451130D01*
X119100482Y-109499059D01*
X118954867Y-109576892D01*
X118877439Y-109640436D01*
X118827235Y-109681637D01*
X118800992Y-109713614D01*
X118054418Y-110460189D01*
X118022436Y-110486436D01*
X117917691Y-110614069D01*
X117839858Y-110759684D01*
X117791929Y-110917685D01*
X117779800Y-111040831D01*
X117779800Y-111040837D01*
X117775746Y-111082000D01*
X117779800Y-111123163D01*
X117779801Y-113642208D01*
X117703241Y-113693363D01*
X117503363Y-113893241D01*
X117348000Y-114125759D01*
X117192637Y-113893241D01*
X116992759Y-113693363D01*
X116916200Y-113642208D01*
X116916200Y-104741193D01*
X116933193Y-104724200D01*
X149818837Y-104724200D01*
X149860000Y-104728254D01*
X149901163Y-104724200D01*
X149901170Y-104724200D01*
X150024316Y-104712071D01*
X150182317Y-104664142D01*
X150327932Y-104586309D01*
X150455564Y-104481564D01*
X150481811Y-104449582D01*
X152577801Y-102353593D01*
X152577800Y-107808304D01*
M02*
