M48
INCH,TZ
T1C0.0157
T2C0.0276
T3C0.0295
T4C0.0315
T5C0.0350
T6C0.0354
T7C0.0394
T8C0.0433
T9C0.0630
T10C0.0791
%
G90
G05
T1
X45200Y-41500
X45200Y-42300
X45200Y-43100
X46271Y-46862
X47571Y-52612
X48071Y-52612
X48300Y-50200
X48571Y-52612
X49071Y-52612
X49571Y-52612
X51071Y-46712
X51521Y-46712
X51621Y-47862
X51621Y-53662
X51621Y-54162
X51700Y-50200
X51721Y-49212
X51721Y-49662
X51921Y-48812
X51971Y-46712
X52271Y-48462
X52421Y-46712
X52617Y-53062
X52871Y-51162
X53000Y-34400
X53021Y-47300
X53021Y-48161
X53671Y-50662
X53900Y-34400
X54100Y-41350
X54100Y-42150
X54100Y-42950
X54521Y-51312
X54521Y-53762
X54621Y-48900
X54821Y-55462
X54900Y-34400
X55200Y-41350
X55200Y-42150
X55200Y-42950
X55900Y-34400
X56371Y-54412
X56521Y-48212
X57300Y-46174
X58471Y-42462
X58571Y-52562
X59200Y-39050
X59200Y-39700
X59500Y-41500
X59500Y-44700
X59600Y-38412
X59600Y-39400
X59900Y-32600
X59900Y-36200
X59900Y-41100
X60000Y-43000
X60000Y-44200
X60021Y-46512
X60300Y-32600
X60300Y-36200
X60400Y-38412
X60400Y-39050
X60400Y-42684
X60621Y-46512
X60700Y-36200
X60800Y-30300
X60800Y-42684
X60800Y-44200
X60950Y-38300
X61221Y-46512
X61250Y-38700
X61300Y-40400
X61300Y-43600
X61600Y-30300
X62279Y-31884
X62279Y-32235
X62300Y-38700
X62400Y-30300
X62600Y-43900
X62600Y-44700
X62785Y-33284
X63000Y-44300
X63100Y-38700
X63179Y-33284
X63221Y-30300
X63400Y-41765
X63400Y-42159
X63400Y-42552
X63400Y-43900
X63400Y-44700
X63585Y-33284
X63979Y-33284
X64000Y-30300
X64000Y-47396
X64579Y-38284
X64750Y-44200
X64800Y-30300
X65021Y-31112
X65021Y-34512
X65021Y-35012
X65250Y-47396
X65286Y-34777
X65500Y-40200
X65500Y-45700
X65521Y-35012
X65536Y-34527
X65579Y-38284
X65621Y-31112
X66221Y-31112
X66221Y-33912
X66500Y-40200
X66679Y-35384
X67000Y-44200
X67521Y-50412
X67621Y-44912
X67721Y-46912
X68100Y-33900
X68321Y-46912
X68421Y-50412
X68500Y-43000
X68900Y-33900
X68921Y-46912
X69200Y-35800
X69271Y-50412
X69621Y-30712
X69820Y-46351
X69821Y-49112
X70000Y-35800
X70171Y-50412
X70221Y-30712
X70420Y-46351
X70421Y-49112
X70500Y-33900
X70500Y-32384
X70800Y-35800
X70821Y-36912
X70821Y-37512
X70821Y-38112
X70821Y-38712
X70821Y-39312
X70921Y-47712
X71079Y-30684
X71400Y-44300
X71420Y-46351
X71421Y-49112
X72020Y-46351
X72021Y-49112
X72221Y-35312
X72221Y-35912
X72479Y-30684
X72921Y-50012
X73000Y-45300
X73521Y-50012
X73621Y-30912
X73621Y-32912
X73621Y-33312
X73621Y-33712
X74121Y-50012
X74900Y-46500
X75521Y-48712
X75521Y-49212
X75521Y-49712
T2
X72801Y-41895
X72801Y-43895
T3
X52900Y-49500
X52900Y-50000
X52900Y-50500
T4
X49621Y-51912
X50221Y-51912
X50821Y-51912
X49421Y-34924
X49421Y-35712
X57400Y-31813
X57400Y-32600
X49421Y-37112
X49421Y-37899
X42700Y-39200
X42700Y-45200
X43700Y-39200
X43700Y-45200
X44700Y-39200
X44700Y-45200
X45700Y-39200
X45700Y-45200
X46700Y-39200
X46700Y-45200
X47700Y-39200
X47700Y-45200
X48700Y-39200
X48700Y-45200
X49700Y-39200
X49700Y-45200
X50700Y-39200
X50700Y-45200
X51700Y-39200
X51700Y-45200
X52700Y-39200
X52700Y-45200
X53700Y-39200
X53700Y-45200
X54700Y-39200
X54700Y-45200
X55700Y-39200
X55700Y-45200
X56700Y-39200
X56700Y-45200
X49400Y-32713
X49400Y-33500
X57400Y-35413
X57400Y-36200
T5
X46221Y-49212
X46221Y-50212
T6
X42271Y-31812
X42271Y-32812
X42271Y-29712
X42271Y-30712
X42271Y-55012
X42271Y-56012
X42271Y-52912
X42271Y-53912
T7
X56971Y-50412
X57971Y-50412
X75621Y-41862
X75621Y-42862
X75621Y-43862
T8
X59221Y-48791
X59221Y-49791
X59221Y-50791
T9
X44338Y-35312
X45519Y-37162
X46700Y-35312
T10
X44221Y-47212
X44221Y-51212
T0
M30
