G04 #@! TF.GenerationSoftware,KiCad,Pcbnew,(5.1.5)-3*
G04 #@! TF.CreationDate,2021-02-03T08:35:31+01:00*
G04 #@! TF.ProjectId,OpenSPAD,4f70656e-5350-4414-942e-6b696361645f,rev?*
G04 #@! TF.SameCoordinates,Original*
G04 #@! TF.FileFunction,Soldermask,Bot*
G04 #@! TF.FilePolarity,Negative*
%FSLAX46Y46*%
G04 Gerber Fmt 4.6, Leading zero omitted, Abs format (unit mm)*
G04 Created by KiCad (PCBNEW (5.1.5)-3) date 2021-02-03 08:35:31*
%MOMM*%
%LPD*%
G04 APERTURE LIST*
%ADD10C,0.100000*%
G04 APERTURE END LIST*
D10*
G36*
X107646395Y-141355546D02*
G01*
X107819466Y-141427234D01*
X107819467Y-141427235D01*
X107975227Y-141531310D01*
X108107690Y-141663773D01*
X108107691Y-141663775D01*
X108211766Y-141819534D01*
X108283454Y-141992605D01*
X108320000Y-142176333D01*
X108320000Y-142363667D01*
X108283454Y-142547395D01*
X108211766Y-142720466D01*
X108211765Y-142720467D01*
X108107690Y-142876227D01*
X107975227Y-143008690D01*
X107896818Y-143061081D01*
X107819466Y-143112766D01*
X107646395Y-143184454D01*
X107462667Y-143221000D01*
X107275333Y-143221000D01*
X107091605Y-143184454D01*
X106918534Y-143112766D01*
X106841182Y-143061081D01*
X106762773Y-143008690D01*
X106630310Y-142876227D01*
X106526235Y-142720467D01*
X106526234Y-142720466D01*
X106454546Y-142547395D01*
X106418000Y-142363667D01*
X106418000Y-142176333D01*
X106454546Y-141992605D01*
X106526234Y-141819534D01*
X106630309Y-141663775D01*
X106630310Y-141663773D01*
X106762773Y-141531310D01*
X106918533Y-141427235D01*
X106918534Y-141427234D01*
X107091605Y-141355546D01*
X107275333Y-141319000D01*
X107462667Y-141319000D01*
X107646395Y-141355546D01*
G37*
G36*
X108320000Y-140681000D02*
G01*
X106418000Y-140681000D01*
X106418000Y-138779000D01*
X108320000Y-138779000D01*
X108320000Y-140681000D01*
G37*
G36*
X107646395Y-136021546D02*
G01*
X107819466Y-136093234D01*
X107819467Y-136093235D01*
X107975227Y-136197310D01*
X108107690Y-136329773D01*
X108107691Y-136329775D01*
X108211766Y-136485534D01*
X108283454Y-136658605D01*
X108320000Y-136842333D01*
X108320000Y-137029667D01*
X108283454Y-137213395D01*
X108211766Y-137386466D01*
X108211765Y-137386467D01*
X108107690Y-137542227D01*
X107975227Y-137674690D01*
X107896818Y-137727081D01*
X107819466Y-137778766D01*
X107646395Y-137850454D01*
X107462667Y-137887000D01*
X107275333Y-137887000D01*
X107091605Y-137850454D01*
X106918534Y-137778766D01*
X106841182Y-137727081D01*
X106762773Y-137674690D01*
X106630310Y-137542227D01*
X106526235Y-137386467D01*
X106526234Y-137386466D01*
X106454546Y-137213395D01*
X106418000Y-137029667D01*
X106418000Y-136842333D01*
X106454546Y-136658605D01*
X106526234Y-136485534D01*
X106630309Y-136329775D01*
X106630310Y-136329773D01*
X106762773Y-136197310D01*
X106918533Y-136093235D01*
X106918534Y-136093234D01*
X107091605Y-136021546D01*
X107275333Y-135985000D01*
X107462667Y-135985000D01*
X107646395Y-136021546D01*
G37*
G36*
X108320000Y-135347000D02*
G01*
X106418000Y-135347000D01*
X106418000Y-133445000D01*
X108320000Y-133445000D01*
X108320000Y-135347000D01*
G37*
G36*
X114248669Y-128285686D02*
G01*
X114425058Y-128303059D01*
X114764548Y-128406042D01*
X114764550Y-128406043D01*
X115077422Y-128573277D01*
X115351661Y-128798339D01*
X115576723Y-129072578D01*
X115743957Y-129385450D01*
X115743958Y-129385452D01*
X115846941Y-129724942D01*
X115881714Y-130078000D01*
X115846941Y-130431058D01*
X115743958Y-130770548D01*
X115743957Y-130770550D01*
X115576723Y-131083422D01*
X115351661Y-131357661D01*
X115077422Y-131582723D01*
X114764550Y-131749957D01*
X114764548Y-131749958D01*
X114425058Y-131852941D01*
X114248669Y-131870314D01*
X114160476Y-131879000D01*
X110483524Y-131879000D01*
X110395331Y-131870314D01*
X110218942Y-131852941D01*
X109879452Y-131749958D01*
X109879450Y-131749957D01*
X109566578Y-131582723D01*
X109292339Y-131357661D01*
X109067277Y-131083422D01*
X108900043Y-130770550D01*
X108900042Y-130770548D01*
X108797059Y-130431058D01*
X108762286Y-130078000D01*
X108797059Y-129724942D01*
X108900042Y-129385452D01*
X108900043Y-129385450D01*
X109067277Y-129072578D01*
X109292339Y-128798339D01*
X109566578Y-128573277D01*
X109879450Y-128406043D01*
X109879452Y-128406042D01*
X110218942Y-128303059D01*
X110395331Y-128285686D01*
X110483524Y-128277000D01*
X114160476Y-128277000D01*
X114248669Y-128285686D01*
G37*
G36*
X150567936Y-128009340D02*
G01*
X150666220Y-128019020D01*
X150855381Y-128076401D01*
X151029712Y-128169583D01*
X151182515Y-128294985D01*
X151307917Y-128447788D01*
X151401099Y-128622119D01*
X151458480Y-128811280D01*
X151477855Y-129008000D01*
X151458480Y-129204720D01*
X151401099Y-129393881D01*
X151307917Y-129568212D01*
X151182515Y-129721015D01*
X151029712Y-129846417D01*
X150855381Y-129939599D01*
X150666220Y-129996980D01*
X150567936Y-130006660D01*
X150518795Y-130011500D01*
X150325205Y-130011500D01*
X150276064Y-130006660D01*
X150177780Y-129996980D01*
X149988619Y-129939599D01*
X149814288Y-129846417D01*
X149661485Y-129721015D01*
X149536083Y-129568212D01*
X149442901Y-129393881D01*
X149385520Y-129204720D01*
X149366145Y-129008000D01*
X149385520Y-128811280D01*
X149442901Y-128622119D01*
X149536083Y-128447788D01*
X149661485Y-128294985D01*
X149814288Y-128169583D01*
X149988619Y-128076401D01*
X150177780Y-128019020D01*
X150276064Y-128009340D01*
X150325205Y-128004500D01*
X150518795Y-128004500D01*
X150567936Y-128009340D01*
G37*
G36*
X145608000Y-128947000D02*
G01*
X143806000Y-128947000D01*
X143806000Y-127145000D01*
X145608000Y-127145000D01*
X145608000Y-128947000D01*
G37*
G36*
X147360512Y-127149927D02*
G01*
X147509812Y-127179624D01*
X147673784Y-127247544D01*
X147821354Y-127346147D01*
X147946853Y-127471646D01*
X148045456Y-127619216D01*
X148113376Y-127783188D01*
X148143073Y-127932488D01*
X148146247Y-127948443D01*
X148148000Y-127957259D01*
X148148000Y-128134741D01*
X148113376Y-128308812D01*
X148045456Y-128472784D01*
X147946853Y-128620354D01*
X147821354Y-128745853D01*
X147673784Y-128844456D01*
X147509812Y-128912376D01*
X147360512Y-128942073D01*
X147335742Y-128947000D01*
X147158258Y-128947000D01*
X147133488Y-128942073D01*
X146984188Y-128912376D01*
X146820216Y-128844456D01*
X146672646Y-128745853D01*
X146547147Y-128620354D01*
X146448544Y-128472784D01*
X146380624Y-128308812D01*
X146346000Y-128134741D01*
X146346000Y-127957259D01*
X146347754Y-127948443D01*
X146350927Y-127932488D01*
X146380624Y-127783188D01*
X146448544Y-127619216D01*
X146547147Y-127471646D01*
X146672646Y-127346147D01*
X146820216Y-127247544D01*
X146984188Y-127179624D01*
X147133488Y-127149927D01*
X147158258Y-127145000D01*
X147335742Y-127145000D01*
X147360512Y-127149927D01*
G37*
G36*
X135167000Y-126306000D02*
G01*
X135002660Y-126306000D01*
X134978274Y-126308402D01*
X134954825Y-126315515D01*
X134933214Y-126327066D01*
X134914272Y-126342611D01*
X134898727Y-126361553D01*
X134887176Y-126383164D01*
X134880063Y-126406613D01*
X134877661Y-126430999D01*
X134880063Y-126455385D01*
X134887176Y-126478834D01*
X134898727Y-126500445D01*
X134914272Y-126519387D01*
X134923345Y-126527609D01*
X135000264Y-126590736D01*
X135072244Y-126678443D01*
X135106429Y-126742399D01*
X135125728Y-126778505D01*
X135125729Y-126778508D01*
X135158666Y-126887084D01*
X135169787Y-127000000D01*
X135158666Y-127112916D01*
X135128985Y-127210758D01*
X135125728Y-127221495D01*
X135111804Y-127247544D01*
X135072244Y-127321557D01*
X135000264Y-127409264D01*
X134912557Y-127481244D01*
X134831141Y-127524761D01*
X134810766Y-127538375D01*
X134793439Y-127555702D01*
X134779826Y-127576076D01*
X134770448Y-127598715D01*
X134765668Y-127622748D01*
X134765668Y-127647252D01*
X134770448Y-127671285D01*
X134779826Y-127693924D01*
X134793440Y-127714299D01*
X134810767Y-127731626D01*
X134831141Y-127745239D01*
X134912557Y-127788756D01*
X135000264Y-127860736D01*
X135072244Y-127948443D01*
X135106429Y-128012399D01*
X135125728Y-128048505D01*
X135125729Y-128048508D01*
X135158666Y-128157084D01*
X135169787Y-128270000D01*
X135158666Y-128382916D01*
X135131404Y-128472784D01*
X135125728Y-128491495D01*
X135106429Y-128527601D01*
X135072244Y-128591557D01*
X135000264Y-128679264D01*
X134912557Y-128751244D01*
X134848601Y-128785429D01*
X134812495Y-128804728D01*
X134812492Y-128804729D01*
X134703916Y-128837666D01*
X134619298Y-128846000D01*
X134112702Y-128846000D01*
X134028084Y-128837666D01*
X133919508Y-128804729D01*
X133919505Y-128804728D01*
X133883399Y-128785429D01*
X133819443Y-128751244D01*
X133731736Y-128679264D01*
X133659756Y-128591557D01*
X133625571Y-128527601D01*
X133606272Y-128491495D01*
X133600596Y-128472784D01*
X133573334Y-128382916D01*
X133562213Y-128270000D01*
X133573334Y-128157084D01*
X133606271Y-128048508D01*
X133606272Y-128048505D01*
X133625571Y-128012399D01*
X133659756Y-127948443D01*
X133731736Y-127860736D01*
X133819443Y-127788756D01*
X133900859Y-127745239D01*
X133921234Y-127731625D01*
X133938561Y-127714298D01*
X133952174Y-127693924D01*
X133961552Y-127671285D01*
X133966332Y-127647252D01*
X133966332Y-127622748D01*
X133961552Y-127598715D01*
X133952174Y-127576076D01*
X133938560Y-127555701D01*
X133921233Y-127538374D01*
X133900859Y-127524761D01*
X133819443Y-127481244D01*
X133731736Y-127409264D01*
X133659756Y-127321557D01*
X133620196Y-127247544D01*
X133606272Y-127221495D01*
X133603015Y-127210758D01*
X133573334Y-127112916D01*
X133562213Y-127000000D01*
X133573334Y-126887084D01*
X133606271Y-126778508D01*
X133606272Y-126778505D01*
X133625571Y-126742399D01*
X133659756Y-126678443D01*
X133731736Y-126590736D01*
X133808646Y-126527617D01*
X133825965Y-126510298D01*
X133839579Y-126489923D01*
X133848957Y-126467284D01*
X133853737Y-126443251D01*
X133853737Y-126418747D01*
X133848957Y-126394714D01*
X133839579Y-126372075D01*
X133825966Y-126351701D01*
X133808639Y-126334374D01*
X133788264Y-126320760D01*
X133765625Y-126311382D01*
X133741592Y-126306602D01*
X133729340Y-126306000D01*
X133565000Y-126306000D01*
X133565000Y-125154000D01*
X135167000Y-125154000D01*
X135167000Y-126306000D01*
G37*
G36*
X118018823Y-126699313D02*
G01*
X118179242Y-126747976D01*
X118236363Y-126778508D01*
X118327078Y-126826996D01*
X118456659Y-126933341D01*
X118563004Y-127062922D01*
X118563005Y-127062924D01*
X118642024Y-127210758D01*
X118690687Y-127371177D01*
X118707117Y-127538000D01*
X118690687Y-127704823D01*
X118642024Y-127865242D01*
X118597552Y-127948443D01*
X118563004Y-128013078D01*
X118456659Y-128142659D01*
X118327078Y-128249004D01*
X118327076Y-128249005D01*
X118179242Y-128328024D01*
X118018823Y-128376687D01*
X117893804Y-128389000D01*
X116910196Y-128389000D01*
X116785177Y-128376687D01*
X116624758Y-128328024D01*
X116476924Y-128249005D01*
X116476922Y-128249004D01*
X116347341Y-128142659D01*
X116240996Y-128013078D01*
X116206448Y-127948443D01*
X116161976Y-127865242D01*
X116113313Y-127704823D01*
X116096883Y-127538000D01*
X116113313Y-127371177D01*
X116161976Y-127210758D01*
X116240995Y-127062924D01*
X116240996Y-127062922D01*
X116347341Y-126933341D01*
X116476922Y-126826996D01*
X116567637Y-126778508D01*
X116624758Y-126747976D01*
X116785177Y-126699313D01*
X116910196Y-126687000D01*
X117893804Y-126687000D01*
X118018823Y-126699313D01*
G37*
G36*
X167607331Y-124736211D02*
G01*
X167935092Y-124871974D01*
X168230070Y-125069072D01*
X168480928Y-125319930D01*
X168678026Y-125614908D01*
X168813789Y-125942669D01*
X168883000Y-126290616D01*
X168883000Y-126645384D01*
X168813789Y-126993331D01*
X168678026Y-127321092D01*
X168480928Y-127616070D01*
X168230070Y-127866928D01*
X167935092Y-128064026D01*
X167607331Y-128199789D01*
X167259384Y-128269000D01*
X166904616Y-128269000D01*
X166556669Y-128199789D01*
X166228908Y-128064026D01*
X165933930Y-127866928D01*
X165683072Y-127616070D01*
X165485974Y-127321092D01*
X165350211Y-126993331D01*
X165281000Y-126645384D01*
X165281000Y-126290616D01*
X165350211Y-125942669D01*
X165485974Y-125614908D01*
X165683072Y-125319930D01*
X165933930Y-125069072D01*
X166228908Y-124871974D01*
X166556669Y-124736211D01*
X166904616Y-124667000D01*
X167259384Y-124667000D01*
X167607331Y-124736211D01*
G37*
G36*
X150567936Y-125469340D02*
G01*
X150666220Y-125479020D01*
X150855381Y-125536401D01*
X151029712Y-125629583D01*
X151182515Y-125754985D01*
X151307917Y-125907788D01*
X151401099Y-126082119D01*
X151458480Y-126271280D01*
X151477855Y-126468000D01*
X151458480Y-126664720D01*
X151401099Y-126853881D01*
X151307917Y-127028212D01*
X151182515Y-127181015D01*
X151029712Y-127306417D01*
X150855381Y-127399599D01*
X150666220Y-127456980D01*
X150567936Y-127466660D01*
X150518795Y-127471500D01*
X150325205Y-127471500D01*
X150276064Y-127466660D01*
X150177780Y-127456980D01*
X149988619Y-127399599D01*
X149814288Y-127306417D01*
X149661485Y-127181015D01*
X149536083Y-127028212D01*
X149442901Y-126853881D01*
X149385520Y-126664720D01*
X149366145Y-126468000D01*
X149385520Y-126271280D01*
X149442901Y-126082119D01*
X149536083Y-125907788D01*
X149661485Y-125754985D01*
X149814288Y-125629583D01*
X149988619Y-125536401D01*
X150177780Y-125479020D01*
X150276064Y-125469340D01*
X150325205Y-125464500D01*
X150518795Y-125464500D01*
X150567936Y-125469340D01*
G37*
G36*
X118018823Y-124159313D02*
G01*
X118179242Y-124207976D01*
X118311906Y-124278886D01*
X118327078Y-124286996D01*
X118456659Y-124393341D01*
X118563004Y-124522922D01*
X118563005Y-124522924D01*
X118642024Y-124670758D01*
X118690687Y-124831177D01*
X118707117Y-124998000D01*
X118690687Y-125164823D01*
X118642024Y-125325242D01*
X118571114Y-125457906D01*
X118563004Y-125473078D01*
X118456659Y-125602659D01*
X118327078Y-125709004D01*
X118327076Y-125709005D01*
X118179242Y-125788024D01*
X118018823Y-125836687D01*
X117893804Y-125849000D01*
X116910196Y-125849000D01*
X116785177Y-125836687D01*
X116624758Y-125788024D01*
X116476924Y-125709005D01*
X116476922Y-125709004D01*
X116347341Y-125602659D01*
X116240996Y-125473078D01*
X116232886Y-125457906D01*
X116161976Y-125325242D01*
X116113313Y-125164823D01*
X116096883Y-124998000D01*
X116113313Y-124831177D01*
X116161976Y-124670758D01*
X116240995Y-124522924D01*
X116240996Y-124522922D01*
X116347341Y-124393341D01*
X116476922Y-124286996D01*
X116492094Y-124278886D01*
X116624758Y-124207976D01*
X116785177Y-124159313D01*
X116910196Y-124147000D01*
X117893804Y-124147000D01*
X118018823Y-124159313D01*
G37*
G36*
X151473000Y-124931500D02*
G01*
X149371000Y-124931500D01*
X149371000Y-122924500D01*
X151473000Y-122924500D01*
X151473000Y-124931500D01*
G37*
G36*
X114248669Y-118125686D02*
G01*
X114425058Y-118143059D01*
X114764548Y-118246042D01*
X114764550Y-118246043D01*
X115077422Y-118413277D01*
X115077424Y-118413278D01*
X115077423Y-118413278D01*
X115351661Y-118638339D01*
X115576722Y-118912577D01*
X115743958Y-119225452D01*
X115846941Y-119564942D01*
X115881714Y-119918000D01*
X115846941Y-120271058D01*
X115743958Y-120610548D01*
X115743957Y-120610550D01*
X115576723Y-120923422D01*
X115351661Y-121197661D01*
X115077422Y-121422723D01*
X114764550Y-121589957D01*
X114764548Y-121589958D01*
X114425058Y-121692941D01*
X114248669Y-121710314D01*
X114160476Y-121719000D01*
X110483524Y-121719000D01*
X110395331Y-121710314D01*
X110218942Y-121692941D01*
X109879452Y-121589958D01*
X109879450Y-121589957D01*
X109566578Y-121422723D01*
X109292339Y-121197661D01*
X109067277Y-120923422D01*
X108900043Y-120610550D01*
X108900042Y-120610548D01*
X108797059Y-120271058D01*
X108762286Y-119918000D01*
X108797059Y-119564942D01*
X108900042Y-119225452D01*
X109067278Y-118912577D01*
X109292339Y-118638339D01*
X109566577Y-118413278D01*
X109566576Y-118413278D01*
X109566578Y-118413277D01*
X109879450Y-118246043D01*
X109879452Y-118246042D01*
X110218942Y-118143059D01*
X110395331Y-118125686D01*
X110483524Y-118117000D01*
X114160476Y-118117000D01*
X114248669Y-118125686D01*
G37*
G36*
X111246228Y-113989703D02*
G01*
X111401100Y-114053853D01*
X111540481Y-114146985D01*
X111659015Y-114265519D01*
X111752147Y-114404900D01*
X111816297Y-114559772D01*
X111849000Y-114724184D01*
X111849000Y-114891816D01*
X111816297Y-115056228D01*
X111752147Y-115211100D01*
X111659015Y-115350481D01*
X111540481Y-115469015D01*
X111401100Y-115562147D01*
X111246228Y-115626297D01*
X111081816Y-115659000D01*
X110914184Y-115659000D01*
X110749772Y-115626297D01*
X110594900Y-115562147D01*
X110455519Y-115469015D01*
X110336985Y-115350481D01*
X110243853Y-115211100D01*
X110179703Y-115056228D01*
X110147000Y-114891816D01*
X110147000Y-114724184D01*
X110179703Y-114559772D01*
X110243853Y-114404900D01*
X110336985Y-114265519D01*
X110455519Y-114146985D01*
X110594900Y-114053853D01*
X110749772Y-113989703D01*
X110914184Y-113957000D01*
X111081816Y-113957000D01*
X111246228Y-113989703D01*
G37*
G36*
X113786228Y-113989703D02*
G01*
X113941100Y-114053853D01*
X114080481Y-114146985D01*
X114199015Y-114265519D01*
X114292147Y-114404900D01*
X114356297Y-114559772D01*
X114389000Y-114724184D01*
X114389000Y-114891816D01*
X114356297Y-115056228D01*
X114292147Y-115211100D01*
X114199015Y-115350481D01*
X114080481Y-115469015D01*
X113941100Y-115562147D01*
X113786228Y-115626297D01*
X113621816Y-115659000D01*
X113454184Y-115659000D01*
X113289772Y-115626297D01*
X113134900Y-115562147D01*
X112995519Y-115469015D01*
X112876985Y-115350481D01*
X112783853Y-115211100D01*
X112719703Y-115056228D01*
X112687000Y-114891816D01*
X112687000Y-114724184D01*
X112719703Y-114559772D01*
X112783853Y-114404900D01*
X112876985Y-114265519D01*
X112995519Y-114146985D01*
X113134900Y-114053853D01*
X113289772Y-113989703D01*
X113454184Y-113957000D01*
X113621816Y-113957000D01*
X113786228Y-113989703D01*
G37*
G36*
X118866228Y-113989703D02*
G01*
X119021100Y-114053853D01*
X119160481Y-114146985D01*
X119279015Y-114265519D01*
X119372147Y-114404900D01*
X119436297Y-114559772D01*
X119469000Y-114724184D01*
X119469000Y-114891816D01*
X119436297Y-115056228D01*
X119372147Y-115211100D01*
X119279015Y-115350481D01*
X119160481Y-115469015D01*
X119021100Y-115562147D01*
X118866228Y-115626297D01*
X118701816Y-115659000D01*
X118534184Y-115659000D01*
X118369772Y-115626297D01*
X118214900Y-115562147D01*
X118075519Y-115469015D01*
X117956985Y-115350481D01*
X117863853Y-115211100D01*
X117799703Y-115056228D01*
X117767000Y-114891816D01*
X117767000Y-114724184D01*
X117799703Y-114559772D01*
X117863853Y-114404900D01*
X117956985Y-114265519D01*
X118075519Y-114146985D01*
X118214900Y-114053853D01*
X118369772Y-113989703D01*
X118534184Y-113957000D01*
X118701816Y-113957000D01*
X118866228Y-113989703D01*
G37*
G36*
X141726228Y-113989703D02*
G01*
X141881100Y-114053853D01*
X142020481Y-114146985D01*
X142139015Y-114265519D01*
X142232147Y-114404900D01*
X142296297Y-114559772D01*
X142329000Y-114724184D01*
X142329000Y-114891816D01*
X142296297Y-115056228D01*
X142232147Y-115211100D01*
X142139015Y-115350481D01*
X142020481Y-115469015D01*
X141881100Y-115562147D01*
X141726228Y-115626297D01*
X141561816Y-115659000D01*
X141394184Y-115659000D01*
X141229772Y-115626297D01*
X141074900Y-115562147D01*
X140935519Y-115469015D01*
X140816985Y-115350481D01*
X140723853Y-115211100D01*
X140659703Y-115056228D01*
X140627000Y-114891816D01*
X140627000Y-114724184D01*
X140659703Y-114559772D01*
X140723853Y-114404900D01*
X140816985Y-114265519D01*
X140935519Y-114146985D01*
X141074900Y-114053853D01*
X141229772Y-113989703D01*
X141394184Y-113957000D01*
X141561816Y-113957000D01*
X141726228Y-113989703D01*
G37*
G36*
X121406228Y-113989703D02*
G01*
X121561100Y-114053853D01*
X121700481Y-114146985D01*
X121819015Y-114265519D01*
X121912147Y-114404900D01*
X121976297Y-114559772D01*
X122009000Y-114724184D01*
X122009000Y-114891816D01*
X121976297Y-115056228D01*
X121912147Y-115211100D01*
X121819015Y-115350481D01*
X121700481Y-115469015D01*
X121561100Y-115562147D01*
X121406228Y-115626297D01*
X121241816Y-115659000D01*
X121074184Y-115659000D01*
X120909772Y-115626297D01*
X120754900Y-115562147D01*
X120615519Y-115469015D01*
X120496985Y-115350481D01*
X120403853Y-115211100D01*
X120339703Y-115056228D01*
X120307000Y-114891816D01*
X120307000Y-114724184D01*
X120339703Y-114559772D01*
X120403853Y-114404900D01*
X120496985Y-114265519D01*
X120615519Y-114146985D01*
X120754900Y-114053853D01*
X120909772Y-113989703D01*
X121074184Y-113957000D01*
X121241816Y-113957000D01*
X121406228Y-113989703D01*
G37*
G36*
X123946228Y-113989703D02*
G01*
X124101100Y-114053853D01*
X124240481Y-114146985D01*
X124359015Y-114265519D01*
X124452147Y-114404900D01*
X124516297Y-114559772D01*
X124549000Y-114724184D01*
X124549000Y-114891816D01*
X124516297Y-115056228D01*
X124452147Y-115211100D01*
X124359015Y-115350481D01*
X124240481Y-115469015D01*
X124101100Y-115562147D01*
X123946228Y-115626297D01*
X123781816Y-115659000D01*
X123614184Y-115659000D01*
X123449772Y-115626297D01*
X123294900Y-115562147D01*
X123155519Y-115469015D01*
X123036985Y-115350481D01*
X122943853Y-115211100D01*
X122879703Y-115056228D01*
X122847000Y-114891816D01*
X122847000Y-114724184D01*
X122879703Y-114559772D01*
X122943853Y-114404900D01*
X123036985Y-114265519D01*
X123155519Y-114146985D01*
X123294900Y-114053853D01*
X123449772Y-113989703D01*
X123614184Y-113957000D01*
X123781816Y-113957000D01*
X123946228Y-113989703D01*
G37*
G36*
X126486228Y-113989703D02*
G01*
X126641100Y-114053853D01*
X126780481Y-114146985D01*
X126899015Y-114265519D01*
X126992147Y-114404900D01*
X127056297Y-114559772D01*
X127089000Y-114724184D01*
X127089000Y-114891816D01*
X127056297Y-115056228D01*
X126992147Y-115211100D01*
X126899015Y-115350481D01*
X126780481Y-115469015D01*
X126641100Y-115562147D01*
X126486228Y-115626297D01*
X126321816Y-115659000D01*
X126154184Y-115659000D01*
X125989772Y-115626297D01*
X125834900Y-115562147D01*
X125695519Y-115469015D01*
X125576985Y-115350481D01*
X125483853Y-115211100D01*
X125419703Y-115056228D01*
X125387000Y-114891816D01*
X125387000Y-114724184D01*
X125419703Y-114559772D01*
X125483853Y-114404900D01*
X125576985Y-114265519D01*
X125695519Y-114146985D01*
X125834900Y-114053853D01*
X125989772Y-113989703D01*
X126154184Y-113957000D01*
X126321816Y-113957000D01*
X126486228Y-113989703D01*
G37*
G36*
X131566228Y-113989703D02*
G01*
X131721100Y-114053853D01*
X131860481Y-114146985D01*
X131979015Y-114265519D01*
X132072147Y-114404900D01*
X132136297Y-114559772D01*
X132169000Y-114724184D01*
X132169000Y-114891816D01*
X132136297Y-115056228D01*
X132072147Y-115211100D01*
X131979015Y-115350481D01*
X131860481Y-115469015D01*
X131721100Y-115562147D01*
X131566228Y-115626297D01*
X131401816Y-115659000D01*
X131234184Y-115659000D01*
X131069772Y-115626297D01*
X130914900Y-115562147D01*
X130775519Y-115469015D01*
X130656985Y-115350481D01*
X130563853Y-115211100D01*
X130499703Y-115056228D01*
X130467000Y-114891816D01*
X130467000Y-114724184D01*
X130499703Y-114559772D01*
X130563853Y-114404900D01*
X130656985Y-114265519D01*
X130775519Y-114146985D01*
X130914900Y-114053853D01*
X131069772Y-113989703D01*
X131234184Y-113957000D01*
X131401816Y-113957000D01*
X131566228Y-113989703D01*
G37*
G36*
X129026228Y-113989703D02*
G01*
X129181100Y-114053853D01*
X129320481Y-114146985D01*
X129439015Y-114265519D01*
X129532147Y-114404900D01*
X129596297Y-114559772D01*
X129629000Y-114724184D01*
X129629000Y-114891816D01*
X129596297Y-115056228D01*
X129532147Y-115211100D01*
X129439015Y-115350481D01*
X129320481Y-115469015D01*
X129181100Y-115562147D01*
X129026228Y-115626297D01*
X128861816Y-115659000D01*
X128694184Y-115659000D01*
X128529772Y-115626297D01*
X128374900Y-115562147D01*
X128235519Y-115469015D01*
X128116985Y-115350481D01*
X128023853Y-115211100D01*
X127959703Y-115056228D01*
X127927000Y-114891816D01*
X127927000Y-114724184D01*
X127959703Y-114559772D01*
X128023853Y-114404900D01*
X128116985Y-114265519D01*
X128235519Y-114146985D01*
X128374900Y-114053853D01*
X128529772Y-113989703D01*
X128694184Y-113957000D01*
X128861816Y-113957000D01*
X129026228Y-113989703D01*
G37*
G36*
X134106228Y-113989703D02*
G01*
X134261100Y-114053853D01*
X134400481Y-114146985D01*
X134519015Y-114265519D01*
X134612147Y-114404900D01*
X134676297Y-114559772D01*
X134709000Y-114724184D01*
X134709000Y-114891816D01*
X134676297Y-115056228D01*
X134612147Y-115211100D01*
X134519015Y-115350481D01*
X134400481Y-115469015D01*
X134261100Y-115562147D01*
X134106228Y-115626297D01*
X133941816Y-115659000D01*
X133774184Y-115659000D01*
X133609772Y-115626297D01*
X133454900Y-115562147D01*
X133315519Y-115469015D01*
X133196985Y-115350481D01*
X133103853Y-115211100D01*
X133039703Y-115056228D01*
X133007000Y-114891816D01*
X133007000Y-114724184D01*
X133039703Y-114559772D01*
X133103853Y-114404900D01*
X133196985Y-114265519D01*
X133315519Y-114146985D01*
X133454900Y-114053853D01*
X133609772Y-113989703D01*
X133774184Y-113957000D01*
X133941816Y-113957000D01*
X134106228Y-113989703D01*
G37*
G36*
X136646228Y-113989703D02*
G01*
X136801100Y-114053853D01*
X136940481Y-114146985D01*
X137059015Y-114265519D01*
X137152147Y-114404900D01*
X137216297Y-114559772D01*
X137249000Y-114724184D01*
X137249000Y-114891816D01*
X137216297Y-115056228D01*
X137152147Y-115211100D01*
X137059015Y-115350481D01*
X136940481Y-115469015D01*
X136801100Y-115562147D01*
X136646228Y-115626297D01*
X136481816Y-115659000D01*
X136314184Y-115659000D01*
X136149772Y-115626297D01*
X135994900Y-115562147D01*
X135855519Y-115469015D01*
X135736985Y-115350481D01*
X135643853Y-115211100D01*
X135579703Y-115056228D01*
X135547000Y-114891816D01*
X135547000Y-114724184D01*
X135579703Y-114559772D01*
X135643853Y-114404900D01*
X135736985Y-114265519D01*
X135855519Y-114146985D01*
X135994900Y-114053853D01*
X136149772Y-113989703D01*
X136314184Y-113957000D01*
X136481816Y-113957000D01*
X136646228Y-113989703D01*
G37*
G36*
X139186228Y-113989703D02*
G01*
X139341100Y-114053853D01*
X139480481Y-114146985D01*
X139599015Y-114265519D01*
X139692147Y-114404900D01*
X139756297Y-114559772D01*
X139789000Y-114724184D01*
X139789000Y-114891816D01*
X139756297Y-115056228D01*
X139692147Y-115211100D01*
X139599015Y-115350481D01*
X139480481Y-115469015D01*
X139341100Y-115562147D01*
X139186228Y-115626297D01*
X139021816Y-115659000D01*
X138854184Y-115659000D01*
X138689772Y-115626297D01*
X138534900Y-115562147D01*
X138395519Y-115469015D01*
X138276985Y-115350481D01*
X138183853Y-115211100D01*
X138119703Y-115056228D01*
X138087000Y-114891816D01*
X138087000Y-114724184D01*
X138119703Y-114559772D01*
X138183853Y-114404900D01*
X138276985Y-114265519D01*
X138395519Y-114146985D01*
X138534900Y-114053853D01*
X138689772Y-113989703D01*
X138854184Y-113957000D01*
X139021816Y-113957000D01*
X139186228Y-113989703D01*
G37*
G36*
X144266228Y-113989703D02*
G01*
X144421100Y-114053853D01*
X144560481Y-114146985D01*
X144679015Y-114265519D01*
X144772147Y-114404900D01*
X144836297Y-114559772D01*
X144869000Y-114724184D01*
X144869000Y-114891816D01*
X144836297Y-115056228D01*
X144772147Y-115211100D01*
X144679015Y-115350481D01*
X144560481Y-115469015D01*
X144421100Y-115562147D01*
X144266228Y-115626297D01*
X144101816Y-115659000D01*
X143934184Y-115659000D01*
X143769772Y-115626297D01*
X143614900Y-115562147D01*
X143475519Y-115469015D01*
X143356985Y-115350481D01*
X143263853Y-115211100D01*
X143199703Y-115056228D01*
X143167000Y-114891816D01*
X143167000Y-114724184D01*
X143199703Y-114559772D01*
X143263853Y-114404900D01*
X143356985Y-114265519D01*
X143475519Y-114146985D01*
X143614900Y-114053853D01*
X143769772Y-113989703D01*
X143934184Y-113957000D01*
X144101816Y-113957000D01*
X144266228Y-113989703D01*
G37*
G36*
X116326228Y-113989703D02*
G01*
X116481100Y-114053853D01*
X116620481Y-114146985D01*
X116739015Y-114265519D01*
X116832147Y-114404900D01*
X116896297Y-114559772D01*
X116929000Y-114724184D01*
X116929000Y-114891816D01*
X116896297Y-115056228D01*
X116832147Y-115211100D01*
X116739015Y-115350481D01*
X116620481Y-115469015D01*
X116481100Y-115562147D01*
X116326228Y-115626297D01*
X116161816Y-115659000D01*
X115994184Y-115659000D01*
X115829772Y-115626297D01*
X115674900Y-115562147D01*
X115535519Y-115469015D01*
X115416985Y-115350481D01*
X115323853Y-115211100D01*
X115259703Y-115056228D01*
X115227000Y-114891816D01*
X115227000Y-114724184D01*
X115259703Y-114559772D01*
X115323853Y-114404900D01*
X115416985Y-114265519D01*
X115535519Y-114146985D01*
X115674900Y-114053853D01*
X115829772Y-113989703D01*
X115994184Y-113957000D01*
X116161816Y-113957000D01*
X116326228Y-113989703D01*
G37*
G36*
X108706228Y-113989703D02*
G01*
X108861100Y-114053853D01*
X109000481Y-114146985D01*
X109119015Y-114265519D01*
X109212147Y-114404900D01*
X109276297Y-114559772D01*
X109309000Y-114724184D01*
X109309000Y-114891816D01*
X109276297Y-115056228D01*
X109212147Y-115211100D01*
X109119015Y-115350481D01*
X109000481Y-115469015D01*
X108861100Y-115562147D01*
X108706228Y-115626297D01*
X108541816Y-115659000D01*
X108374184Y-115659000D01*
X108209772Y-115626297D01*
X108054900Y-115562147D01*
X107915519Y-115469015D01*
X107796985Y-115350481D01*
X107703853Y-115211100D01*
X107639703Y-115056228D01*
X107607000Y-114891816D01*
X107607000Y-114724184D01*
X107639703Y-114559772D01*
X107703853Y-114404900D01*
X107796985Y-114265519D01*
X107915519Y-114146985D01*
X108054900Y-114053853D01*
X108209772Y-113989703D01*
X108374184Y-113957000D01*
X108541816Y-113957000D01*
X108706228Y-113989703D01*
G37*
G36*
X185041617Y-110651420D02*
G01*
X185132403Y-110678960D01*
X185164335Y-110688646D01*
X185277424Y-110749094D01*
X185376554Y-110830447D01*
X185457906Y-110929575D01*
X185518354Y-111042664D01*
X185528040Y-111074596D01*
X185555580Y-111165382D01*
X185565000Y-111261027D01*
X185565000Y-111724972D01*
X185555580Y-111820618D01*
X185528040Y-111911404D01*
X185518354Y-111943336D01*
X185457906Y-112056425D01*
X185376554Y-112155554D01*
X185277425Y-112236906D01*
X185164336Y-112297354D01*
X185132404Y-112307040D01*
X185041618Y-112334580D01*
X184914000Y-112347149D01*
X184786383Y-112334580D01*
X184695597Y-112307040D01*
X184663665Y-112297354D01*
X184550576Y-112236906D01*
X184451447Y-112155553D01*
X184370094Y-112056425D01*
X184309646Y-111943336D01*
X184299960Y-111911404D01*
X184272420Y-111820618D01*
X184263000Y-111724973D01*
X184263000Y-111261028D01*
X184272420Y-111165383D01*
X184309645Y-111042669D01*
X184309646Y-111042665D01*
X184370094Y-110929576D01*
X184451447Y-110830446D01*
X184550575Y-110749094D01*
X184663664Y-110688646D01*
X184695596Y-110678960D01*
X184786382Y-110651420D01*
X184914000Y-110638851D01*
X185041617Y-110651420D01*
G37*
G36*
X192979000Y-112310000D02*
G01*
X191177000Y-112310000D01*
X191177000Y-110508000D01*
X192979000Y-110508000D01*
X192979000Y-112310000D01*
G37*
G36*
X192191512Y-107972927D02*
G01*
X192340812Y-108002624D01*
X192504784Y-108070544D01*
X192652354Y-108169147D01*
X192777853Y-108294646D01*
X192876456Y-108442216D01*
X192944376Y-108606188D01*
X192979000Y-108780259D01*
X192979000Y-108957741D01*
X192944376Y-109131812D01*
X192876456Y-109295784D01*
X192777853Y-109443354D01*
X192652354Y-109568853D01*
X192504784Y-109667456D01*
X192340812Y-109735376D01*
X192191512Y-109765073D01*
X192166742Y-109770000D01*
X191989258Y-109770000D01*
X191964488Y-109765073D01*
X191815188Y-109735376D01*
X191651216Y-109667456D01*
X191503646Y-109568853D01*
X191378147Y-109443354D01*
X191279544Y-109295784D01*
X191211624Y-109131812D01*
X191177000Y-108957741D01*
X191177000Y-108780259D01*
X191211624Y-108606188D01*
X191279544Y-108442216D01*
X191378147Y-108294646D01*
X191503646Y-108169147D01*
X191651216Y-108070544D01*
X191815188Y-108002624D01*
X191964488Y-107972927D01*
X191989258Y-107968000D01*
X192166742Y-107968000D01*
X192191512Y-107972927D01*
G37*
G36*
X192191512Y-105432927D02*
G01*
X192340812Y-105462624D01*
X192504784Y-105530544D01*
X192652354Y-105629147D01*
X192777853Y-105754646D01*
X192876456Y-105902216D01*
X192944376Y-106066188D01*
X192979000Y-106240259D01*
X192979000Y-106417741D01*
X192944376Y-106591812D01*
X192876456Y-106755784D01*
X192777853Y-106903354D01*
X192652354Y-107028853D01*
X192504784Y-107127456D01*
X192340812Y-107195376D01*
X192191512Y-107225073D01*
X192166742Y-107230000D01*
X191989258Y-107230000D01*
X191964488Y-107225073D01*
X191815188Y-107195376D01*
X191651216Y-107127456D01*
X191503646Y-107028853D01*
X191378147Y-106903354D01*
X191279544Y-106755784D01*
X191211624Y-106591812D01*
X191177000Y-106417741D01*
X191177000Y-106240259D01*
X191211624Y-106066188D01*
X191279544Y-105902216D01*
X191378147Y-105754646D01*
X191503646Y-105629147D01*
X191651216Y-105530544D01*
X191815188Y-105462624D01*
X191964488Y-105432927D01*
X191989258Y-105428000D01*
X192166742Y-105428000D01*
X192191512Y-105432927D01*
G37*
G36*
X185103890Y-105787017D02*
G01*
X185222364Y-105836091D01*
X185321327Y-105902216D01*
X185328988Y-105907335D01*
X185419665Y-105998012D01*
X185490910Y-106104638D01*
X185539983Y-106223110D01*
X185565000Y-106348881D01*
X185565000Y-106477119D01*
X185539983Y-106602890D01*
X185490909Y-106721364D01*
X185419665Y-106827988D01*
X185328988Y-106918665D01*
X185222364Y-106989909D01*
X185222363Y-106989910D01*
X185222362Y-106989910D01*
X185103890Y-107038983D01*
X184978119Y-107064000D01*
X184849881Y-107064000D01*
X184724110Y-107038983D01*
X184605638Y-106989910D01*
X184605637Y-106989910D01*
X184605636Y-106989909D01*
X184499012Y-106918665D01*
X184408335Y-106827988D01*
X184337091Y-106721364D01*
X184288017Y-106602890D01*
X184263000Y-106477119D01*
X184263000Y-106348881D01*
X184288017Y-106223110D01*
X184337090Y-106104638D01*
X184408335Y-105998012D01*
X184499012Y-105907335D01*
X184506673Y-105902216D01*
X184605636Y-105836091D01*
X184724110Y-105787017D01*
X184849881Y-105762000D01*
X184978119Y-105762000D01*
X185103890Y-105787017D01*
G37*
G36*
X129026228Y-98749703D02*
G01*
X129181100Y-98813853D01*
X129320481Y-98906985D01*
X129439015Y-99025519D01*
X129532147Y-99164900D01*
X129596297Y-99319772D01*
X129629000Y-99484184D01*
X129629000Y-99651816D01*
X129596297Y-99816228D01*
X129532147Y-99971100D01*
X129439015Y-100110481D01*
X129320481Y-100229015D01*
X129181100Y-100322147D01*
X129026228Y-100386297D01*
X128861816Y-100419000D01*
X128694184Y-100419000D01*
X128529772Y-100386297D01*
X128374900Y-100322147D01*
X128235519Y-100229015D01*
X128116985Y-100110481D01*
X128023853Y-99971100D01*
X127959703Y-99816228D01*
X127927000Y-99651816D01*
X127927000Y-99484184D01*
X127959703Y-99319772D01*
X128023853Y-99164900D01*
X128116985Y-99025519D01*
X128235519Y-98906985D01*
X128374900Y-98813853D01*
X128529772Y-98749703D01*
X128694184Y-98717000D01*
X128861816Y-98717000D01*
X129026228Y-98749703D01*
G37*
G36*
X108706228Y-98749703D02*
G01*
X108861100Y-98813853D01*
X109000481Y-98906985D01*
X109119015Y-99025519D01*
X109212147Y-99164900D01*
X109276297Y-99319772D01*
X109309000Y-99484184D01*
X109309000Y-99651816D01*
X109276297Y-99816228D01*
X109212147Y-99971100D01*
X109119015Y-100110481D01*
X109000481Y-100229015D01*
X108861100Y-100322147D01*
X108706228Y-100386297D01*
X108541816Y-100419000D01*
X108374184Y-100419000D01*
X108209772Y-100386297D01*
X108054900Y-100322147D01*
X107915519Y-100229015D01*
X107796985Y-100110481D01*
X107703853Y-99971100D01*
X107639703Y-99816228D01*
X107607000Y-99651816D01*
X107607000Y-99484184D01*
X107639703Y-99319772D01*
X107703853Y-99164900D01*
X107796985Y-99025519D01*
X107915519Y-98906985D01*
X108054900Y-98813853D01*
X108209772Y-98749703D01*
X108374184Y-98717000D01*
X108541816Y-98717000D01*
X108706228Y-98749703D01*
G37*
G36*
X144869000Y-100419000D02*
G01*
X143167000Y-100419000D01*
X143167000Y-98717000D01*
X144869000Y-98717000D01*
X144869000Y-100419000D01*
G37*
G36*
X141726228Y-98749703D02*
G01*
X141881100Y-98813853D01*
X142020481Y-98906985D01*
X142139015Y-99025519D01*
X142232147Y-99164900D01*
X142296297Y-99319772D01*
X142329000Y-99484184D01*
X142329000Y-99651816D01*
X142296297Y-99816228D01*
X142232147Y-99971100D01*
X142139015Y-100110481D01*
X142020481Y-100229015D01*
X141881100Y-100322147D01*
X141726228Y-100386297D01*
X141561816Y-100419000D01*
X141394184Y-100419000D01*
X141229772Y-100386297D01*
X141074900Y-100322147D01*
X140935519Y-100229015D01*
X140816985Y-100110481D01*
X140723853Y-99971100D01*
X140659703Y-99816228D01*
X140627000Y-99651816D01*
X140627000Y-99484184D01*
X140659703Y-99319772D01*
X140723853Y-99164900D01*
X140816985Y-99025519D01*
X140935519Y-98906985D01*
X141074900Y-98813853D01*
X141229772Y-98749703D01*
X141394184Y-98717000D01*
X141561816Y-98717000D01*
X141726228Y-98749703D01*
G37*
G36*
X139186228Y-98749703D02*
G01*
X139341100Y-98813853D01*
X139480481Y-98906985D01*
X139599015Y-99025519D01*
X139692147Y-99164900D01*
X139756297Y-99319772D01*
X139789000Y-99484184D01*
X139789000Y-99651816D01*
X139756297Y-99816228D01*
X139692147Y-99971100D01*
X139599015Y-100110481D01*
X139480481Y-100229015D01*
X139341100Y-100322147D01*
X139186228Y-100386297D01*
X139021816Y-100419000D01*
X138854184Y-100419000D01*
X138689772Y-100386297D01*
X138534900Y-100322147D01*
X138395519Y-100229015D01*
X138276985Y-100110481D01*
X138183853Y-99971100D01*
X138119703Y-99816228D01*
X138087000Y-99651816D01*
X138087000Y-99484184D01*
X138119703Y-99319772D01*
X138183853Y-99164900D01*
X138276985Y-99025519D01*
X138395519Y-98906985D01*
X138534900Y-98813853D01*
X138689772Y-98749703D01*
X138854184Y-98717000D01*
X139021816Y-98717000D01*
X139186228Y-98749703D01*
G37*
G36*
X126486228Y-98749703D02*
G01*
X126641100Y-98813853D01*
X126780481Y-98906985D01*
X126899015Y-99025519D01*
X126992147Y-99164900D01*
X127056297Y-99319772D01*
X127089000Y-99484184D01*
X127089000Y-99651816D01*
X127056297Y-99816228D01*
X126992147Y-99971100D01*
X126899015Y-100110481D01*
X126780481Y-100229015D01*
X126641100Y-100322147D01*
X126486228Y-100386297D01*
X126321816Y-100419000D01*
X126154184Y-100419000D01*
X125989772Y-100386297D01*
X125834900Y-100322147D01*
X125695519Y-100229015D01*
X125576985Y-100110481D01*
X125483853Y-99971100D01*
X125419703Y-99816228D01*
X125387000Y-99651816D01*
X125387000Y-99484184D01*
X125419703Y-99319772D01*
X125483853Y-99164900D01*
X125576985Y-99025519D01*
X125695519Y-98906985D01*
X125834900Y-98813853D01*
X125989772Y-98749703D01*
X126154184Y-98717000D01*
X126321816Y-98717000D01*
X126486228Y-98749703D01*
G37*
G36*
X113786228Y-98749703D02*
G01*
X113941100Y-98813853D01*
X114080481Y-98906985D01*
X114199015Y-99025519D01*
X114292147Y-99164900D01*
X114356297Y-99319772D01*
X114389000Y-99484184D01*
X114389000Y-99651816D01*
X114356297Y-99816228D01*
X114292147Y-99971100D01*
X114199015Y-100110481D01*
X114080481Y-100229015D01*
X113941100Y-100322147D01*
X113786228Y-100386297D01*
X113621816Y-100419000D01*
X113454184Y-100419000D01*
X113289772Y-100386297D01*
X113134900Y-100322147D01*
X112995519Y-100229015D01*
X112876985Y-100110481D01*
X112783853Y-99971100D01*
X112719703Y-99816228D01*
X112687000Y-99651816D01*
X112687000Y-99484184D01*
X112719703Y-99319772D01*
X112783853Y-99164900D01*
X112876985Y-99025519D01*
X112995519Y-98906985D01*
X113134900Y-98813853D01*
X113289772Y-98749703D01*
X113454184Y-98717000D01*
X113621816Y-98717000D01*
X113786228Y-98749703D01*
G37*
G36*
X116326228Y-98749703D02*
G01*
X116481100Y-98813853D01*
X116620481Y-98906985D01*
X116739015Y-99025519D01*
X116832147Y-99164900D01*
X116896297Y-99319772D01*
X116929000Y-99484184D01*
X116929000Y-99651816D01*
X116896297Y-99816228D01*
X116832147Y-99971100D01*
X116739015Y-100110481D01*
X116620481Y-100229015D01*
X116481100Y-100322147D01*
X116326228Y-100386297D01*
X116161816Y-100419000D01*
X115994184Y-100419000D01*
X115829772Y-100386297D01*
X115674900Y-100322147D01*
X115535519Y-100229015D01*
X115416985Y-100110481D01*
X115323853Y-99971100D01*
X115259703Y-99816228D01*
X115227000Y-99651816D01*
X115227000Y-99484184D01*
X115259703Y-99319772D01*
X115323853Y-99164900D01*
X115416985Y-99025519D01*
X115535519Y-98906985D01*
X115674900Y-98813853D01*
X115829772Y-98749703D01*
X115994184Y-98717000D01*
X116161816Y-98717000D01*
X116326228Y-98749703D01*
G37*
G36*
X118866228Y-98749703D02*
G01*
X119021100Y-98813853D01*
X119160481Y-98906985D01*
X119279015Y-99025519D01*
X119372147Y-99164900D01*
X119436297Y-99319772D01*
X119469000Y-99484184D01*
X119469000Y-99651816D01*
X119436297Y-99816228D01*
X119372147Y-99971100D01*
X119279015Y-100110481D01*
X119160481Y-100229015D01*
X119021100Y-100322147D01*
X118866228Y-100386297D01*
X118701816Y-100419000D01*
X118534184Y-100419000D01*
X118369772Y-100386297D01*
X118214900Y-100322147D01*
X118075519Y-100229015D01*
X117956985Y-100110481D01*
X117863853Y-99971100D01*
X117799703Y-99816228D01*
X117767000Y-99651816D01*
X117767000Y-99484184D01*
X117799703Y-99319772D01*
X117863853Y-99164900D01*
X117956985Y-99025519D01*
X118075519Y-98906985D01*
X118214900Y-98813853D01*
X118369772Y-98749703D01*
X118534184Y-98717000D01*
X118701816Y-98717000D01*
X118866228Y-98749703D01*
G37*
G36*
X131566228Y-98749703D02*
G01*
X131721100Y-98813853D01*
X131860481Y-98906985D01*
X131979015Y-99025519D01*
X132072147Y-99164900D01*
X132136297Y-99319772D01*
X132169000Y-99484184D01*
X132169000Y-99651816D01*
X132136297Y-99816228D01*
X132072147Y-99971100D01*
X131979015Y-100110481D01*
X131860481Y-100229015D01*
X131721100Y-100322147D01*
X131566228Y-100386297D01*
X131401816Y-100419000D01*
X131234184Y-100419000D01*
X131069772Y-100386297D01*
X130914900Y-100322147D01*
X130775519Y-100229015D01*
X130656985Y-100110481D01*
X130563853Y-99971100D01*
X130499703Y-99816228D01*
X130467000Y-99651816D01*
X130467000Y-99484184D01*
X130499703Y-99319772D01*
X130563853Y-99164900D01*
X130656985Y-99025519D01*
X130775519Y-98906985D01*
X130914900Y-98813853D01*
X131069772Y-98749703D01*
X131234184Y-98717000D01*
X131401816Y-98717000D01*
X131566228Y-98749703D01*
G37*
G36*
X121406228Y-98749703D02*
G01*
X121561100Y-98813853D01*
X121700481Y-98906985D01*
X121819015Y-99025519D01*
X121912147Y-99164900D01*
X121976297Y-99319772D01*
X122009000Y-99484184D01*
X122009000Y-99651816D01*
X121976297Y-99816228D01*
X121912147Y-99971100D01*
X121819015Y-100110481D01*
X121700481Y-100229015D01*
X121561100Y-100322147D01*
X121406228Y-100386297D01*
X121241816Y-100419000D01*
X121074184Y-100419000D01*
X120909772Y-100386297D01*
X120754900Y-100322147D01*
X120615519Y-100229015D01*
X120496985Y-100110481D01*
X120403853Y-99971100D01*
X120339703Y-99816228D01*
X120307000Y-99651816D01*
X120307000Y-99484184D01*
X120339703Y-99319772D01*
X120403853Y-99164900D01*
X120496985Y-99025519D01*
X120615519Y-98906985D01*
X120754900Y-98813853D01*
X120909772Y-98749703D01*
X121074184Y-98717000D01*
X121241816Y-98717000D01*
X121406228Y-98749703D01*
G37*
G36*
X134106228Y-98749703D02*
G01*
X134261100Y-98813853D01*
X134400481Y-98906985D01*
X134519015Y-99025519D01*
X134612147Y-99164900D01*
X134676297Y-99319772D01*
X134709000Y-99484184D01*
X134709000Y-99651816D01*
X134676297Y-99816228D01*
X134612147Y-99971100D01*
X134519015Y-100110481D01*
X134400481Y-100229015D01*
X134261100Y-100322147D01*
X134106228Y-100386297D01*
X133941816Y-100419000D01*
X133774184Y-100419000D01*
X133609772Y-100386297D01*
X133454900Y-100322147D01*
X133315519Y-100229015D01*
X133196985Y-100110481D01*
X133103853Y-99971100D01*
X133039703Y-99816228D01*
X133007000Y-99651816D01*
X133007000Y-99484184D01*
X133039703Y-99319772D01*
X133103853Y-99164900D01*
X133196985Y-99025519D01*
X133315519Y-98906985D01*
X133454900Y-98813853D01*
X133609772Y-98749703D01*
X133774184Y-98717000D01*
X133941816Y-98717000D01*
X134106228Y-98749703D01*
G37*
G36*
X123946228Y-98749703D02*
G01*
X124101100Y-98813853D01*
X124240481Y-98906985D01*
X124359015Y-99025519D01*
X124452147Y-99164900D01*
X124516297Y-99319772D01*
X124549000Y-99484184D01*
X124549000Y-99651816D01*
X124516297Y-99816228D01*
X124452147Y-99971100D01*
X124359015Y-100110481D01*
X124240481Y-100229015D01*
X124101100Y-100322147D01*
X123946228Y-100386297D01*
X123781816Y-100419000D01*
X123614184Y-100419000D01*
X123449772Y-100386297D01*
X123294900Y-100322147D01*
X123155519Y-100229015D01*
X123036985Y-100110481D01*
X122943853Y-99971100D01*
X122879703Y-99816228D01*
X122847000Y-99651816D01*
X122847000Y-99484184D01*
X122879703Y-99319772D01*
X122943853Y-99164900D01*
X123036985Y-99025519D01*
X123155519Y-98906985D01*
X123294900Y-98813853D01*
X123449772Y-98749703D01*
X123614184Y-98717000D01*
X123781816Y-98717000D01*
X123946228Y-98749703D01*
G37*
G36*
X111246228Y-98749703D02*
G01*
X111401100Y-98813853D01*
X111540481Y-98906985D01*
X111659015Y-99025519D01*
X111752147Y-99164900D01*
X111816297Y-99319772D01*
X111849000Y-99484184D01*
X111849000Y-99651816D01*
X111816297Y-99816228D01*
X111752147Y-99971100D01*
X111659015Y-100110481D01*
X111540481Y-100229015D01*
X111401100Y-100322147D01*
X111246228Y-100386297D01*
X111081816Y-100419000D01*
X110914184Y-100419000D01*
X110749772Y-100386297D01*
X110594900Y-100322147D01*
X110455519Y-100229015D01*
X110336985Y-100110481D01*
X110243853Y-99971100D01*
X110179703Y-99816228D01*
X110147000Y-99651816D01*
X110147000Y-99484184D01*
X110179703Y-99319772D01*
X110243853Y-99164900D01*
X110336985Y-99025519D01*
X110455519Y-98906985D01*
X110594900Y-98813853D01*
X110749772Y-98749703D01*
X110914184Y-98717000D01*
X111081816Y-98717000D01*
X111246228Y-98749703D01*
G37*
G36*
X136646228Y-98749703D02*
G01*
X136801100Y-98813853D01*
X136940481Y-98906985D01*
X137059015Y-99025519D01*
X137152147Y-99164900D01*
X137216297Y-99319772D01*
X137249000Y-99484184D01*
X137249000Y-99651816D01*
X137216297Y-99816228D01*
X137152147Y-99971100D01*
X137059015Y-100110481D01*
X136940481Y-100229015D01*
X136801100Y-100322147D01*
X136646228Y-100386297D01*
X136481816Y-100419000D01*
X136314184Y-100419000D01*
X136149772Y-100386297D01*
X135994900Y-100322147D01*
X135855519Y-100229015D01*
X135736985Y-100110481D01*
X135643853Y-99971100D01*
X135579703Y-99816228D01*
X135547000Y-99651816D01*
X135547000Y-99484184D01*
X135579703Y-99319772D01*
X135643853Y-99164900D01*
X135736985Y-99025519D01*
X135855519Y-98906985D01*
X135994900Y-98813853D01*
X136149772Y-98749703D01*
X136314184Y-98717000D01*
X136481816Y-98717000D01*
X136646228Y-98749703D01*
G37*
G36*
X125778228Y-95445703D02*
G01*
X125933100Y-95509853D01*
X126072481Y-95602985D01*
X126191015Y-95721519D01*
X126284147Y-95860900D01*
X126348297Y-96015772D01*
X126381000Y-96180184D01*
X126381000Y-96347816D01*
X126348297Y-96512228D01*
X126284147Y-96667100D01*
X126191015Y-96806481D01*
X126072481Y-96925015D01*
X125933100Y-97018147D01*
X125778228Y-97082297D01*
X125613816Y-97115000D01*
X125446184Y-97115000D01*
X125281772Y-97082297D01*
X125126900Y-97018147D01*
X124987519Y-96925015D01*
X124868985Y-96806481D01*
X124775853Y-96667100D01*
X124711703Y-96512228D01*
X124679000Y-96347816D01*
X124679000Y-96180184D01*
X124711703Y-96015772D01*
X124775853Y-95860900D01*
X124868985Y-95721519D01*
X124987519Y-95602985D01*
X125126900Y-95509853D01*
X125281772Y-95445703D01*
X125446184Y-95413000D01*
X125613816Y-95413000D01*
X125778228Y-95445703D01*
G37*
G36*
X116012072Y-93092918D02*
G01*
X116257939Y-93194759D01*
X116369328Y-93269187D01*
X116479211Y-93342609D01*
X116667391Y-93530789D01*
X116815242Y-93752063D01*
X116917082Y-93997928D01*
X116969000Y-94258937D01*
X116969000Y-94525063D01*
X116917082Y-94786072D01*
X116820954Y-95018148D01*
X116815241Y-95031939D01*
X116759741Y-95115000D01*
X116667391Y-95253211D01*
X116479211Y-95441391D01*
X116376752Y-95509852D01*
X116257939Y-95589241D01*
X116257938Y-95589242D01*
X116257937Y-95589242D01*
X116012072Y-95691082D01*
X115751063Y-95743000D01*
X115484937Y-95743000D01*
X115223928Y-95691082D01*
X114978063Y-95589242D01*
X114978062Y-95589242D01*
X114978061Y-95589241D01*
X114859248Y-95509852D01*
X114756789Y-95441391D01*
X114568609Y-95253211D01*
X114476259Y-95115000D01*
X114420759Y-95031939D01*
X114415047Y-95018148D01*
X114318918Y-94786072D01*
X114267000Y-94525063D01*
X114267000Y-94258937D01*
X114318918Y-93997928D01*
X114420758Y-93752063D01*
X114568609Y-93530789D01*
X114756789Y-93342609D01*
X114866672Y-93269187D01*
X114978061Y-93194759D01*
X115223928Y-93092918D01*
X115484937Y-93041000D01*
X115751063Y-93041000D01*
X116012072Y-93092918D01*
G37*
G36*
X125778228Y-93445703D02*
G01*
X125933100Y-93509853D01*
X126072481Y-93602985D01*
X126191015Y-93721519D01*
X126284147Y-93860900D01*
X126348297Y-94015772D01*
X126381000Y-94180184D01*
X126381000Y-94347816D01*
X126348297Y-94512228D01*
X126284147Y-94667100D01*
X126191015Y-94806481D01*
X126072481Y-94925015D01*
X125933100Y-95018147D01*
X125778228Y-95082297D01*
X125613816Y-95115000D01*
X125446184Y-95115000D01*
X125281772Y-95082297D01*
X125126900Y-95018147D01*
X124987519Y-94925015D01*
X124868985Y-94806481D01*
X124775853Y-94667100D01*
X124711703Y-94512228D01*
X124679000Y-94347816D01*
X124679000Y-94180184D01*
X124711703Y-94015772D01*
X124775853Y-93860900D01*
X124868985Y-93721519D01*
X124987519Y-93602985D01*
X125126900Y-93509853D01*
X125281772Y-93445703D01*
X125446184Y-93413000D01*
X125613816Y-93413000D01*
X125778228Y-93445703D01*
G37*
G36*
X146044228Y-91129703D02*
G01*
X146199100Y-91193853D01*
X146338481Y-91286985D01*
X146457015Y-91405519D01*
X146550147Y-91544900D01*
X146614297Y-91699772D01*
X146647000Y-91864184D01*
X146647000Y-92031816D01*
X146614297Y-92196228D01*
X146550147Y-92351100D01*
X146457015Y-92490481D01*
X146338481Y-92609015D01*
X146199100Y-92702147D01*
X146044228Y-92766297D01*
X145879816Y-92799000D01*
X145712184Y-92799000D01*
X145547772Y-92766297D01*
X145392900Y-92702147D01*
X145253519Y-92609015D01*
X145134985Y-92490481D01*
X145041853Y-92351100D01*
X144977703Y-92196228D01*
X144945000Y-92031816D01*
X144945000Y-91864184D01*
X144977703Y-91699772D01*
X145041853Y-91544900D01*
X145134985Y-91405519D01*
X145253519Y-91286985D01*
X145392900Y-91193853D01*
X145547772Y-91129703D01*
X145712184Y-91097000D01*
X145879816Y-91097000D01*
X146044228Y-91129703D01*
G37*
G36*
X125778228Y-89889703D02*
G01*
X125933100Y-89953853D01*
X126072481Y-90046985D01*
X126191015Y-90165519D01*
X126284147Y-90304900D01*
X126348297Y-90459772D01*
X126381000Y-90624184D01*
X126381000Y-90791816D01*
X126348297Y-90956228D01*
X126284147Y-91111100D01*
X126191015Y-91250481D01*
X126072481Y-91369015D01*
X125933100Y-91462147D01*
X125778228Y-91526297D01*
X125613816Y-91559000D01*
X125446184Y-91559000D01*
X125281772Y-91526297D01*
X125126900Y-91462147D01*
X124987519Y-91369015D01*
X124868985Y-91250481D01*
X124775853Y-91111100D01*
X124711703Y-90956228D01*
X124679000Y-90791816D01*
X124679000Y-90624184D01*
X124711703Y-90459772D01*
X124775853Y-90304900D01*
X124868985Y-90165519D01*
X124987519Y-90046985D01*
X125126900Y-89953853D01*
X125281772Y-89889703D01*
X125446184Y-89857000D01*
X125613816Y-89857000D01*
X125778228Y-89889703D01*
G37*
G36*
X113012072Y-88392918D02*
G01*
X113257939Y-88494759D01*
X113369328Y-88569187D01*
X113479211Y-88642609D01*
X113667391Y-88830789D01*
X113815242Y-89052063D01*
X113917082Y-89297928D01*
X113969000Y-89558937D01*
X113969000Y-89825063D01*
X113917082Y-90086072D01*
X113815242Y-90331937D01*
X113667391Y-90553211D01*
X113479211Y-90741391D01*
X113403746Y-90791815D01*
X113257939Y-90889241D01*
X113257938Y-90889242D01*
X113257937Y-90889242D01*
X113012072Y-90991082D01*
X112751063Y-91043000D01*
X112484937Y-91043000D01*
X112223928Y-90991082D01*
X111978063Y-90889242D01*
X111978062Y-90889242D01*
X111978061Y-90889241D01*
X111832254Y-90791815D01*
X111756789Y-90741391D01*
X111568609Y-90553211D01*
X111420758Y-90331937D01*
X111318918Y-90086072D01*
X111267000Y-89825063D01*
X111267000Y-89558937D01*
X111318918Y-89297928D01*
X111420758Y-89052063D01*
X111568609Y-88830789D01*
X111756789Y-88642609D01*
X111866672Y-88569187D01*
X111978061Y-88494759D01*
X112223928Y-88392918D01*
X112484937Y-88341000D01*
X112751063Y-88341000D01*
X113012072Y-88392918D01*
G37*
G36*
X119969000Y-91043000D02*
G01*
X117267000Y-91043000D01*
X117267000Y-88341000D01*
X119969000Y-88341000D01*
X119969000Y-91043000D01*
G37*
G36*
X146044228Y-89129703D02*
G01*
X146199100Y-89193853D01*
X146338481Y-89286985D01*
X146457015Y-89405519D01*
X146550147Y-89544900D01*
X146614297Y-89699772D01*
X146647000Y-89864184D01*
X146647000Y-90031816D01*
X146614297Y-90196228D01*
X146550147Y-90351100D01*
X146457015Y-90490481D01*
X146338481Y-90609015D01*
X146199100Y-90702147D01*
X146044228Y-90766297D01*
X145879816Y-90799000D01*
X145712184Y-90799000D01*
X145547772Y-90766297D01*
X145392900Y-90702147D01*
X145253519Y-90609015D01*
X145134985Y-90490481D01*
X145041853Y-90351100D01*
X144977703Y-90196228D01*
X144945000Y-90031816D01*
X144945000Y-89864184D01*
X144977703Y-89699772D01*
X145041853Y-89544900D01*
X145134985Y-89405519D01*
X145253519Y-89286985D01*
X145392900Y-89193853D01*
X145547772Y-89129703D01*
X145712184Y-89097000D01*
X145879816Y-89097000D01*
X146044228Y-89129703D01*
G37*
G36*
X125778228Y-87889703D02*
G01*
X125933100Y-87953853D01*
X126072481Y-88046985D01*
X126191015Y-88165519D01*
X126284147Y-88304900D01*
X126348297Y-88459772D01*
X126381000Y-88624184D01*
X126381000Y-88791816D01*
X126348297Y-88956228D01*
X126284147Y-89111100D01*
X126191015Y-89250481D01*
X126072481Y-89369015D01*
X125933100Y-89462147D01*
X125778228Y-89526297D01*
X125613816Y-89559000D01*
X125446184Y-89559000D01*
X125281772Y-89526297D01*
X125126900Y-89462147D01*
X124987519Y-89369015D01*
X124868985Y-89250481D01*
X124775853Y-89111100D01*
X124711703Y-88956228D01*
X124679000Y-88791816D01*
X124679000Y-88624184D01*
X124711703Y-88459772D01*
X124775853Y-88304900D01*
X124868985Y-88165519D01*
X124987519Y-88046985D01*
X125126900Y-87953853D01*
X125281772Y-87889703D01*
X125446184Y-87857000D01*
X125613816Y-87857000D01*
X125778228Y-87889703D01*
G37*
G36*
X125724228Y-84271703D02*
G01*
X125879100Y-84335853D01*
X126018481Y-84428985D01*
X126137015Y-84547519D01*
X126230147Y-84686900D01*
X126294297Y-84841772D01*
X126327000Y-85006184D01*
X126327000Y-85173816D01*
X126294297Y-85338228D01*
X126230147Y-85493100D01*
X126137015Y-85632481D01*
X126018481Y-85751015D01*
X125879100Y-85844147D01*
X125724228Y-85908297D01*
X125559816Y-85941000D01*
X125392184Y-85941000D01*
X125227772Y-85908297D01*
X125072900Y-85844147D01*
X124933519Y-85751015D01*
X124814985Y-85632481D01*
X124721853Y-85493100D01*
X124657703Y-85338228D01*
X124625000Y-85173816D01*
X124625000Y-85006184D01*
X124657703Y-84841772D01*
X124721853Y-84686900D01*
X124814985Y-84547519D01*
X124933519Y-84428985D01*
X125072900Y-84335853D01*
X125227772Y-84271703D01*
X125392184Y-84239000D01*
X125559816Y-84239000D01*
X125724228Y-84271703D01*
G37*
G36*
X107646395Y-82427546D02*
G01*
X107819466Y-82499234D01*
X107819467Y-82499235D01*
X107975227Y-82603310D01*
X108107690Y-82735773D01*
X108107691Y-82735775D01*
X108211766Y-82891534D01*
X108283454Y-83064605D01*
X108320000Y-83248333D01*
X108320000Y-83435667D01*
X108283454Y-83619395D01*
X108211766Y-83792466D01*
X108211765Y-83792467D01*
X108107690Y-83948227D01*
X107975227Y-84080690D01*
X107896818Y-84133081D01*
X107819466Y-84184766D01*
X107646395Y-84256454D01*
X107462667Y-84293000D01*
X107275333Y-84293000D01*
X107091605Y-84256454D01*
X106918534Y-84184766D01*
X106841182Y-84133081D01*
X106762773Y-84080690D01*
X106630310Y-83948227D01*
X106526235Y-83792467D01*
X106526234Y-83792466D01*
X106454546Y-83619395D01*
X106418000Y-83435667D01*
X106418000Y-83248333D01*
X106454546Y-83064605D01*
X106526234Y-82891534D01*
X106630309Y-82735775D01*
X106630310Y-82735773D01*
X106762773Y-82603310D01*
X106918533Y-82499235D01*
X106918534Y-82499234D01*
X107091605Y-82427546D01*
X107275333Y-82391000D01*
X107462667Y-82391000D01*
X107646395Y-82427546D01*
G37*
G36*
X125724228Y-82271703D02*
G01*
X125879100Y-82335853D01*
X126018481Y-82428985D01*
X126137015Y-82547519D01*
X126230147Y-82686900D01*
X126294297Y-82841772D01*
X126327000Y-83006184D01*
X126327000Y-83173816D01*
X126294297Y-83338228D01*
X126230147Y-83493100D01*
X126137015Y-83632481D01*
X126018481Y-83751015D01*
X125879100Y-83844147D01*
X125724228Y-83908297D01*
X125559816Y-83941000D01*
X125392184Y-83941000D01*
X125227772Y-83908297D01*
X125072900Y-83844147D01*
X124933519Y-83751015D01*
X124814985Y-83632481D01*
X124721853Y-83493100D01*
X124657703Y-83338228D01*
X124625000Y-83173816D01*
X124625000Y-83006184D01*
X124657703Y-82841772D01*
X124721853Y-82686900D01*
X124814985Y-82547519D01*
X124933519Y-82428985D01*
X125072900Y-82335853D01*
X125227772Y-82271703D01*
X125392184Y-82239000D01*
X125559816Y-82239000D01*
X125724228Y-82271703D01*
G37*
G36*
X146044228Y-81985703D02*
G01*
X146199100Y-82049853D01*
X146338481Y-82142985D01*
X146457015Y-82261519D01*
X146550147Y-82400900D01*
X146614297Y-82555772D01*
X146647000Y-82720184D01*
X146647000Y-82887816D01*
X146614297Y-83052228D01*
X146550147Y-83207100D01*
X146457015Y-83346481D01*
X146338481Y-83465015D01*
X146199100Y-83558147D01*
X146044228Y-83622297D01*
X145879816Y-83655000D01*
X145712184Y-83655000D01*
X145547772Y-83622297D01*
X145392900Y-83558147D01*
X145253519Y-83465015D01*
X145134985Y-83346481D01*
X145041853Y-83207100D01*
X144977703Y-83052228D01*
X144945000Y-82887816D01*
X144945000Y-82720184D01*
X144977703Y-82555772D01*
X145041853Y-82400900D01*
X145134985Y-82261519D01*
X145253519Y-82142985D01*
X145392900Y-82049853D01*
X145547772Y-81985703D01*
X145712184Y-81953000D01*
X145879816Y-81953000D01*
X146044228Y-81985703D01*
G37*
G36*
X108320000Y-81753000D02*
G01*
X106418000Y-81753000D01*
X106418000Y-79851000D01*
X108320000Y-79851000D01*
X108320000Y-81753000D01*
G37*
G36*
X146044228Y-79985703D02*
G01*
X146199100Y-80049853D01*
X146338481Y-80142985D01*
X146457015Y-80261519D01*
X146550147Y-80400900D01*
X146614297Y-80555772D01*
X146647000Y-80720184D01*
X146647000Y-80887816D01*
X146614297Y-81052228D01*
X146550147Y-81207100D01*
X146457015Y-81346481D01*
X146338481Y-81465015D01*
X146199100Y-81558147D01*
X146044228Y-81622297D01*
X145879816Y-81655000D01*
X145712184Y-81655000D01*
X145547772Y-81622297D01*
X145392900Y-81558147D01*
X145253519Y-81465015D01*
X145134985Y-81346481D01*
X145041853Y-81207100D01*
X144977703Y-81052228D01*
X144945000Y-80887816D01*
X144945000Y-80720184D01*
X144977703Y-80555772D01*
X145041853Y-80400900D01*
X145134985Y-80261519D01*
X145253519Y-80142985D01*
X145392900Y-80049853D01*
X145547772Y-79985703D01*
X145712184Y-79953000D01*
X145879816Y-79953000D01*
X146044228Y-79985703D01*
G37*
G36*
X107646395Y-77093546D02*
G01*
X107819466Y-77165234D01*
X107819467Y-77165235D01*
X107975227Y-77269310D01*
X108107690Y-77401773D01*
X108107691Y-77401775D01*
X108211766Y-77557534D01*
X108283454Y-77730605D01*
X108320000Y-77914333D01*
X108320000Y-78101667D01*
X108283454Y-78285395D01*
X108211766Y-78458466D01*
X108211765Y-78458467D01*
X108107690Y-78614227D01*
X107975227Y-78746690D01*
X107896818Y-78799081D01*
X107819466Y-78850766D01*
X107646395Y-78922454D01*
X107462667Y-78959000D01*
X107275333Y-78959000D01*
X107091605Y-78922454D01*
X106918534Y-78850766D01*
X106841182Y-78799081D01*
X106762773Y-78746690D01*
X106630310Y-78614227D01*
X106526235Y-78458467D01*
X106526234Y-78458466D01*
X106454546Y-78285395D01*
X106418000Y-78101667D01*
X106418000Y-77914333D01*
X106454546Y-77730605D01*
X106526234Y-77557534D01*
X106630309Y-77401775D01*
X106630310Y-77401773D01*
X106762773Y-77269310D01*
X106918533Y-77165235D01*
X106918534Y-77165234D01*
X107091605Y-77093546D01*
X107275333Y-77057000D01*
X107462667Y-77057000D01*
X107646395Y-77093546D01*
G37*
G36*
X108320000Y-76419000D02*
G01*
X106418000Y-76419000D01*
X106418000Y-74517000D01*
X108320000Y-74517000D01*
X108320000Y-76419000D01*
G37*
M02*
